<?xml version="1.0" encoding="UTF-8" standalone="no"?>
<!DOCTYPE svg PUBLIC "-//W3C//DTD SVG 1.1//EN" "http://www.w3.org/Graphics/SVG/1.1/DTD/svg11.dtd">
<svg width="100%" height="100%" viewBox="0 0 2923 2923" version="1.1" xmlns="http://www.w3.org/2000/svg" xmlns:xlink="http://www.w3.org/1999/xlink" xml:space="preserve" xmlns:serif="http://www.serif.com/" style="fill-rule:evenodd;clip-rule:evenodd;stroke-linejoin:round;stroke-miterlimit:2;">
    <path d="M361.89,1914.05C369.656,1906.28 377.301,1899.35 384.102,1891.67C394.8,1879.59 404.902,1866.98 415.314,1854.65C419.713,1849.44 424.172,1844.27 428.754,1839.22C438.604,1828.36 447.746,1817.1 454.603,1803.94C457.768,1797.86 463.681,1793.62 467.236,1787.19C475.394,1772.43 485.319,1758.66 494.362,1744.38C501.371,1733.31 508.44,1722.27 514.92,1710.89C522.115,1698.26 528.788,1685.33 535.478,1672.41C543.151,1657.61 551.501,1643.06 557.89,1627.7C564.868,1610.93 574.615,1595.24 578.55,1577.28C580.3,1569.29 586.283,1563.07 587.15,1554.82C587.414,1552.31 588.297,1549.83 588.332,1547.34C588.472,1537.34 588.202,1527.33 588.481,1517.34C588.595,1513.27 589.961,1509.24 590.315,1505.16C590.597,1501.89 591.234,1498.03 589.854,1495.42C588.201,1492.29 589.304,1490.59 589.871,1487.68C592.069,1476.41 593.545,1464.93 594.22,1453.47C594.786,1443.85 595.69,1434.46 598.205,1425.09C599.851,1418.96 599.827,1412.36 600.369,1405.96C601.708,1390.17 604.468,1374.67 608.196,1359.23C611.159,1346.96 612.082,1334.21 614.514,1321.79C615.815,1315.15 618.428,1308.77 620.381,1302.25C623.314,1292.46 626.111,1282.63 629.142,1272.87C629.866,1270.54 631.175,1268.37 632.411,1266.23C635.988,1260.07 643.217,1255.78 647.814,1256.97C658.832,1259.83 663.495,1264.51 664.391,1273.59C665.054,1280.32 666.99,1287.21 666.135,1293.73C664.158,1308.8 665.626,1323.97 664.071,1338.9C662.566,1353.35 660.422,1367.68 660.192,1382.27C660.116,1387.08 657.365,1391.77 656.468,1396.63C654.857,1405.36 653.927,1414.22 652.347,1422.95C649.157,1440.6 646.145,1458.3 642.251,1475.79C639.357,1488.79 635.213,1501.51 631.573,1514.34C630.792,1517.1 630.099,1529.89 630.027,1533.29C629.954,1536.66 628.552,1540 628.464,1543.37C628.119,1556.63 629.926,1569.69 632.296,1582.72C633.5,1589.35 633.102,1596.29 634.518,1602.85C637.527,1616.79 638.883,1631.23 646.353,1643.93C649.489,1649.26 651.908,1655.02 655.213,1660.23C658.694,1665.72 666.853,1665.59 672.283,1661.86C689.391,1650.13 697.206,1631.91 703.298,1613.84C707.906,1600.17 714.199,1586.61 714.73,1571.4C715.061,1561.9 718.719,1552.51 720.861,1543.07C721.415,1540.62 722.316,1538.16 722.308,1535.7C722.285,1528.29 722.405,1520.96 725.807,1514.12C726.079,1513.57 726.464,1512.89 726.351,1512.37C723.36,1498.58 728.915,1484.66 726.21,1471.05C723.348,1456.65 724.024,1441.77 717.393,1427.71C714.06,1420.64 710.982,1414.09 705.499,1408.67C699.902,1403.14 695.556,1402.63 689.859,1408.34C685.07,1413.14 679.405,1414.79 673.405,1417.11C667.343,1419.46 664.514,1416.34 662.634,1413.1C659.578,1407.84 658.855,1401.82 662.076,1395.76C667.683,1385.21 674.656,1377.39 687.797,1376.22C692.956,1375.76 698.136,1372.15 702.707,1369.08C719.346,1357.9 734.984,1345.19 753.257,1336.55C762.493,1325.83 776.847,1324.07 788.257,1317.01C793.658,1313.66 802.113,1314.47 809.138,1314.71C821.304,1315.14 832.562,1319.22 839.893,1329.35C846.414,1338.36 853.443,1347.29 856.417,1358.45C859.814,1371.2 864.231,1383.67 864.581,1397.14C864.707,1401.96 867.39,1406.66 868.257,1411.52C869.322,1417.51 870.024,1423.59 870.33,1429.66C871.171,1446.38 871.614,1463.12 872.439,1479.83C872.82,1487.57 873.721,1495.28 874.393,1503C874.477,1503.96 874.312,1505.11 874.782,1505.83C875.449,1506.85 876.598,1507.56 877.541,1508.4C877.824,1507.52 878.187,1506.65 878.377,1505.75C879.734,1499.31 880.678,1492.75 882.467,1486.43C886.428,1472.44 890.127,1458.41 894.852,1444.6C899.242,1431.76 904.595,1419.08 906.62,1405.38C907.357,1400.4 910.908,1395.88 912.845,1391.02C914.898,1385.87 916.47,1380.53 918.411,1375.33C921.211,1367.82 923.887,1360.26 927.097,1352.93C932.536,1340.51 938.509,1328.32 943.957,1315.91C948.377,1305.84 957.337,1301.6 966.75,1298.96C969.852,1298.09 974.964,1298.31 978.413,1299.89C982.786,1301.9 986.743,1305.16 990.333,1308.47C1002.47,1319.66 1006.95,1335.25 1009.77,1350.24C1012.03,1362.3 1015.18,1374.3 1016.6,1386.61C1018,1398.73 1019.4,1410.83 1020.7,1422.95C1022.31,1438.06 1024.18,1453.09 1024.55,1468.32C1024.76,1476.54 1027.51,1484.72 1027.57,1492.93C1027.67,1506.77 1031.94,1520.18 1030.64,1534.2C1029.92,1541.91 1031.74,1549.86 1032.38,1557.7C1033.07,1566.09 1033.16,1574.57 1034.51,1582.85C1036.97,1597.89 1038.53,1612.96 1038.47,1628.21C1038.47,1629.95 1039.91,1631.64 1040.22,1633.44C1041.08,1638.45 1041.73,1643.51 1042.38,1648.55C1043.93,1660.64 1043.8,1672.87 1046.22,1684.93C1048.35,1695.55 1047.95,1706.76 1050.76,1717.14C1052.82,1724.75 1052.99,1732.38 1054.37,1739.93C1056.46,1751.42 1058.24,1762.96 1060.46,1774.42C1061.34,1778.96 1062.99,1783.36 1064.4,1787.78C1067.24,1796.6 1070.52,1805.29 1072.95,1814.22C1076.21,1826.22 1081.61,1837.3 1086.18,1848.75C1090.65,1859.96 1096.39,1869.43 1106.7,1876.25C1109.9,1878.37 1112.89,1879.19 1115.76,1878.37C1121.35,1876.77 1127.28,1875.01 1131.93,1871.71C1144.94,1862.49 1154.84,1850.22 1164.78,1837.74C1173.33,1827 1178.44,1814.37 1186.62,1803.74C1193.21,1795.18 1197.76,1785.62 1203.31,1776.57C1204.59,1774.48 1205.62,1772.17 1206.34,1769.84C1207.83,1765 1209.8,1760.71 1212.97,1756.48C1216.56,1751.71 1217.46,1745.02 1220.5,1739.71C1227.6,1727.34 1231.07,1713.43 1238.06,1700.92C1243.69,1690.83 1246.55,1679.14 1250.33,1668.06C1252.23,1662.48 1252.42,1656.11 1255.17,1651.09C1261.52,1639.51 1263.69,1626.6 1268.25,1614.48C1273.13,1601.48 1277.11,1588.12 1281.07,1574.79C1286.38,1556.97 1290.73,1538.84 1296.53,1521.18C1304,1498.44 1308.23,1474.86 1315.61,1452.11C1318.79,1442.34 1320.08,1431.97 1322.42,1421.91C1324.95,1410.98 1324.67,1399.36 1330.39,1389.22C1328.78,1376.13 1335.31,1364.42 1336.76,1351.74C1338.45,1336.92 1343.1,1322.44 1346.11,1307.74C1347.89,1299.07 1348.86,1290.23 1350.42,1281.51C1352.91,1267.57 1356.46,1253.75 1357.9,1239.71C1358.88,1230.15 1360.85,1220.87 1362.44,1211.48C1363.86,1203.13 1365.3,1194.73 1367.6,1186.61C1368.54,1183.32 1368.63,1182.43 1365.21,1182.54C1363.55,1182.59 1361.78,1182.18 1360.23,1182.61C1349.49,1185.6 1338.95,1189.97 1328.02,1191.48C1319.19,1192.7 1311.18,1196.63 1302.03,1196.92C1293.8,1197.17 1285.5,1200.03 1277.54,1202.66C1263.84,1207.21 1250.01,1210.93 1235.65,1212.61C1233.87,1212.82 1232.23,1214.02 1230.46,1214.53C1223.31,1216.58 1216.19,1218.85 1208.94,1220.48C1196.1,1223.38 1183.02,1225.32 1170.31,1228.71C1158.1,1231.96 1146.22,1236.46 1134.27,1240.63C1132.12,1241.37 1130.12,1242.92 1128.43,1244.5C1123.81,1248.82 1121.01,1249.28 1116.8,1245.96C1113.48,1243.34 1113.06,1239.33 1115,1234.86C1117.6,1228.85 1122.94,1225.96 1128.3,1223.83C1145.24,1217.11 1161.86,1209.38 1180.12,1206.43C1184.93,1205.65 1189.42,1203.12 1194.17,1201.82C1213.04,1196.64 1231.74,1190.41 1250.93,1186.93C1266.39,1184.12 1281.05,1178.78 1296.32,1175.58C1303.33,1174.1 1310.27,1172.26 1317.23,1170.54C1332.35,1166.83 1347.46,1163.06 1362.6,1159.37C1364.44,1158.92 1366.53,1159.19 1368.21,1158.44C1369.81,1157.73 1371.95,1156.32 1372.24,1154.89C1373.88,1146.51 1374.98,1138.02 1376.41,1129.58C1378.2,1119.02 1380.28,1108.49 1381.97,1097.91C1383.03,1091.28 1383.73,1084.58 1384.37,1077.89C1385.78,1063.12 1386.92,1048.32 1388.43,1033.56C1389.54,1022.75 1390.7,1011.93 1392.48,1001.22C1394.79,987.27 1397.42,973.35 1400.52,959.553C1402.06,952.711 1408.49,950.347 1414.73,952.422C1419.72,954.083 1417.8,959.007 1420.12,961.985C1421.57,963.852 1421.44,968.355 1420.17,970.653C1417.55,975.4 1418.87,980.193 1418.37,984.944C1417.91,989.362 1419.91,994.141 1416.43,998.155C1416.1,998.536 1416.12,999.625 1416.43,1000.09C1420.68,1006.58 1416.47,1013.02 1416.32,1019.46C1415.84,1040.19 1415.16,1060.91 1414.32,1081.63C1414.09,1087.37 1411.3,1093.62 1412.84,1098.66C1414.7,1104.7 1412.08,1109.75 1411.94,1115.13C1411.75,1122.3 1409.94,1129.16 1412.05,1136.59C1413.02,1140.01 1410.33,1144.47 1409.3,1148.46C1413.07,1147.15 1416.76,1145.54 1420.62,1144.61C1429.74,1142.42 1438.94,1140.52 1448.12,1138.56C1457.62,1136.52 1467.23,1134.94 1476.6,1132.45C1488.09,1129.39 1499.32,1125.5 1511.3,1124.4C1515.84,1123.99 1520.18,1121.74 1524.67,1120.58C1530.41,1119.11 1536.25,1117.97 1542,1116.53C1551.65,1114.1 1561.21,1111.31 1570.91,1109.13C1576.79,1107.82 1582.95,1107.74 1588.85,1106.48C1605.93,1102.83 1622.89,1098.1 1639.99,1095.16C1652.13,1093.07 1664.26,1090.54 1676.35,1088.25C1692.02,1085.29 1708.02,1083.73 1723.35,1078.79C1728.42,1077.15 1734.04,1077.13 1739.43,1076.57C1750.44,1075.43 1761.2,1073.22 1772.01,1070.81C1783.19,1068.31 1794.88,1068.14 1806.28,1066.47C1816.56,1064.97 1826.75,1062.81 1836.98,1060.97C1841.64,1060.13 1846.28,1059.14 1850.98,1058.6C1858.35,1057.75 1865.75,1057.17 1873.15,1056.56C1881.87,1055.84 1891.25,1056.97 1899.14,1054.06C1907.07,1051.12 1915.38,1051.98 1923.01,1048.97C1923.87,1048.63 1924.88,1048.61 1925.83,1048.56C1937.89,1047.88 1950.01,1047.76 1961.99,1046.4C1974.55,1044.97 1987.37,1044.78 1999.54,1040.6C2000.73,1040.19 2002.19,1040.62 2003.52,1040.54C2014.58,1039.89 2025.71,1039.81 2036.67,1038.4C2051.09,1036.55 2065.72,1036.23 2079.96,1034.08C2096.79,1031.55 2113.61,1031.8 2130.34,1030.19C2150.79,1028.22 2171.19,1026.99 2191.7,1026.2C2200.49,1025.86 2209.39,1026.03 2218.27,1024.84C2227.77,1023.56 2237.57,1024.57 2247.23,1024.54C2254.88,1024.51 2258.45,1021.1 2260.48,1013.63C2263.16,1003.79 2266.48,994.13 2269.54,984.398C2273.82,970.835 2278.21,957.31 2282.33,943.702C2283.77,938.961 2285.36,934.126 2286.95,929.579C2290.2,920.271 2292.95,910.7 2296.74,901.665C2299.84,894.275 2305.25,887.575 2310.69,881.509C2318.73,872.536 2330.88,874.718 2336.48,885.779C2338.97,890.698 2341.74,896.04 2342.1,901.343C2342.68,910.052 2347.31,918.838 2342.49,927.719C2341.79,929.006 2342.47,931.003 2342.38,932.665C2341.73,944.838 2342.43,957.286 2340.03,969.107C2337.28,982.663 2337.46,996.747 2332.51,1009.91C2331.19,1013.39 2331.19,1017.41 2330.92,1021.2C2330.89,1021.56 2333.22,1022.49 2334.47,1022.49C2357.13,1022.57 2379.86,1021.47 2402.45,1022.85C2426.19,1024.3 2449.96,1023.45 2473.61,1024.99C2484.34,1025.69 2495.28,1024.96 2505.75,1026.87C2517.56,1029.01 2529.4,1027.01 2540.93,1028.83C2552.05,1030.58 2563.15,1029.55 2574.13,1030.73C2590.89,1032.53 2607.67,1033.65 2624.47,1034.86C2639.58,1035.95 2654.61,1038.12 2669.83,1038.71C2684.97,1039.3 2700.16,1040.56 2715.14,1042.77C2726.25,1044.4 2737.27,1045.96 2748.5,1046.8C2760.42,1047.68 2772.18,1050.66 2784.04,1052.5C2790.06,1053.44 2796.18,1053.7 2802.2,1054.59C2817.5,1056.84 2832.87,1058.35 2847.96,1062.31C2860.15,1065.5 2872.93,1066.39 2885.4,1068.6C2895.28,1070.35 2905.08,1072.54 2914.92,1074.55C2918.14,1075.21 2923.39,1080.87 2922.26,1082.93C2920.58,1085.98 2918.42,1088.55 2914,1088.67C2900.7,1089.02 2887.89,1085.72 2874.88,1083.97C2868.98,1083.17 2863.21,1081.37 2857.31,1080.62C2844.89,1079.05 2832.4,1078.07 2819.98,1076.5C2802.49,1074.3 2785.04,1071.98 2767.48,1070.3C2755.03,1069.1 2742.68,1067.12 2730.13,1066.38C2712.8,1065.35 2695.54,1063.04 2678.24,1061.45C2672.27,1060.9 2666.25,1060.83 2660.26,1060.55C2646.2,1059.88 2631.97,1060.34 2618.15,1058.17C2608.31,1056.62 2598.51,1057.93 2588.94,1056.37C2568.57,1053.05 2548,1056.48 2527.79,1054.16C2513.31,1052.5 2498.96,1053.3 2484.58,1052.49C2479.17,1052.19 2473.8,1050.86 2468.4,1050.69C2465.37,1050.59 2462.2,1052.73 2459.24,1052.42C2418.23,1048.14 2377.11,1051.7 2336.06,1050.59C2327.29,1050.36 2327.08,1050.54 2324.27,1059.75C2322.01,1067.18 2320.2,1074.76 2318.42,1082.33C2314.61,1098.43 2310.86,1114.56 2307.27,1130.71C2304.82,1141.73 2302.65,1152.81 2300.4,1163.87C2299.65,1167.58 2299.67,1171.56 2298.28,1174.99C2292.41,1189.54 2292.74,1205.68 2286.39,1220.07C2287.55,1233.13 2280.28,1244.37 2278.45,1256.76C2276.85,1267.5 2275.79,1278.32 2274.34,1289.09C2274.05,1291.2 2273.01,1293.2 2272.4,1295.27C2268.58,1308.16 2267.7,1321.49 2266.28,1334.77C2265.58,1341.29 2263.69,1347.67 2262.4,1354.13C2261.66,1357.84 2260.66,1361.55 2260.48,1365.3C2260.14,1372.01 2261.09,1378.86 2257.07,1384.93C2256.59,1385.66 2256.48,1386.72 2256.41,1387.64C2255.71,1397.36 2255.28,1407.11 2254.33,1416.8C2253.26,1427.61 2251.57,1438.36 2250.44,1449.16C2249.53,1457.86 2249.12,1466.61 2248.37,1475.32C2247.81,1481.72 2246.28,1488.15 2246.62,1494.48C2246.93,1500.32 2245.89,1506.03 2246.29,1511.85C2246.74,1518.48 2247.41,1525.38 2246.13,1531.79C2244.59,1539.46 2247.63,1546.74 2246.37,1554.18C2245.85,1557.27 2245.03,1560.32 2244.57,1563.42C2244.29,1565.36 2243.8,1567.63 2244.5,1569.31C2247.79,1577.23 2246.26,1585.45 2246.3,1593.52C2246.36,1606.8 2247.1,1619.93 2250.28,1632.89C2251.05,1636.04 2250.43,1639.53 2250.38,1642.87C2250.23,1653.51 2251.66,1663.9 2254.26,1674.24C2255.42,1678.89 2254.89,1683.93 2255.62,1688.71C2257.02,1697.75 2258.69,1706.74 2260.43,1715.72C2261.14,1719.36 2262.14,1722.99 2263.39,1726.48C2265.57,1732.57 2268.55,1738.41 2270.28,1744.61C2273.31,1755.56 2279.73,1764.01 2288.11,1771.23C2291.63,1774.25 2300,1773.57 2303.86,1770.06C2314,1760.84 2322.79,1750.44 2330.37,1739.05C2340.45,1723.9 2350.5,1708.74 2360.42,1693.49C2371.16,1676.96 2381.25,1659.98 2392.54,1643.85C2401.89,1630.5 2412.61,1618.12 2422.64,1605.26C2426.75,1600 2430.28,1594.24 2434.76,1589.32C2448.45,1574.3 2464.56,1562.6 2484.55,1557.65C2490.68,1556.14 2497.55,1556.41 2503.89,1557.29C2510.57,1558.22 2517.39,1560.08 2523.44,1563.01C2527.18,1564.83 2529.34,1565.14 2531.8,1562.11C2533.93,1559.48 2535.9,1560.25 2537.3,1562.54C2541.07,1568.71 2546.37,1573.46 2551.16,1578.72C2552.5,1580.18 2552.18,1584.39 2551.07,1586.54C2549.67,1589.22 2547.27,1591.44 2543.01,1590.32C2529.61,1586.8 2516.35,1582.52 2502.22,1582.5C2487.15,1582.47 2474.45,1588.57 2463.83,1598.36C2447.23,1613.64 2433.59,1631.38 2422.22,1651.01C2415.46,1662.7 2406.98,1673.38 2399.39,1684.59C2395.71,1690.03 2391.83,1695.41 2388.86,1701.23C2382.98,1712.71 2375.38,1723.04 2368.23,1733.67C2359.62,1746.46 2351.36,1759.55 2341.9,1771.7C2335.6,1779.79 2328.61,1788.57 2319.89,1793.25C2308.25,1799.5 2295.16,1803.84 2280.91,1798.31C2264.8,1792.04 2255.89,1779.09 2248.6,1765.04C2240.51,1749.43 2235.47,1732.5 2230.07,1715.71C2225.21,1700.6 2223.89,1685 2220.43,1669.74C2216.81,1653.79 2215.3,1637.6 2213.91,1621.28C2212.93,1609.84 2213.99,1598.28 2212.15,1587.1C2208.69,1566.02 2211.26,1544.94 2210.51,1523.89C2210.34,1518.86 2212.73,1513.67 2212.19,1508.74C2210.87,1496.56 2212.69,1484.5 2212.65,1472.38C2212.62,1463.93 2215.29,1455.51 2216.31,1447.03C2217,1441.31 2216.78,1435.63 2218.05,1429.79C2220.01,1420.68 2218.84,1410.91 2220.6,1401.73C2223.07,1388.94 2221.07,1375.62 2226.16,1363.08C2228.24,1357.93 2227.55,1351.7 2228.43,1346.01C2230,1335.76 2231.32,1325.52 2234.15,1315.42C2236.62,1306.63 2236.97,1297.25 2238.42,1288.15C2239.61,1280.68 2240.86,1273.21 2242.44,1265.82C2244.21,1257.6 2246.16,1249.4 2248.45,1241.31C2251.74,1229.64 2251.04,1217.03 2257.57,1206.06C2259.69,1202.5 2259.63,1197.59 2260.36,1193.26C2261.26,1187.93 2261.15,1182.3 2262.87,1177.28C2267.03,1165.15 2268.79,1152.45 2272.5,1140.27C2274.93,1132.27 2275.7,1123.9 2279.45,1116.14C2282.23,1110.37 2283.56,1103.63 2284.23,1097.19C2285.61,1083.98 2290,1071.57 2293.11,1058.82C2293.62,1056.68 2294.18,1054.51 2294.25,1052.34C2294.27,1051.77 2292.06,1050.41 2291.67,1050.66C2285.54,1054.59 2278.75,1052.54 2272.44,1052.25C2267.16,1052.02 2265.56,1054.83 2264.49,1058.29C2260.25,1071.9 2257.39,1086.02 2252.11,1099.18C2246.8,1112.43 2242.71,1125.96 2238.28,1139.46C2228.28,1169.95 2217.52,1200.19 2207.36,1230.64C2197.49,1260.23 2188,1289.95 2178.32,1319.61C2169.7,1346.04 2161.12,1372.48 2152.35,1398.86C2148.75,1409.68 2144.59,1420.31 2140.88,1431.1C2136.75,1443.06 2132.14,1454.92 2128.99,1467.15C2123.65,1487.87 2115.81,1507.75 2109.75,1528.2C2106.58,1538.9 2103.67,1549.67 2100.32,1560.31C2098.75,1565.28 2096.21,1569.94 2094.42,1574.86C2088.86,1590.21 2083.78,1605.72 2077.39,1620.8C2071.62,1634.41 2068.35,1649.11 2062.1,1662.45C2055.95,1675.58 2052.18,1689.69 2044.59,1702.25C2040.51,1709.02 2039.14,1717.38 2035.36,1724.38C2025.34,1742.93 2015.62,1761.63 2004.76,1779.79C1994.95,1796.19 1984.81,1812.17 1971.7,1825.94C1961.88,1836.24 1950.14,1844.62 1936.47,1849.26C1929.11,1851.76 1921.18,1852 1913.7,1848.82C1900.65,1843.28 1891.45,1833.91 1884.13,1821.65C1875.81,1807.7 1871.33,1792.73 1868.49,1777.11C1866.62,1766.76 1866.05,1756.18 1864.32,1745.8C1860.33,1721.8 1862.22,1697.63 1862.8,1673.62C1863.21,1656.97 1863.87,1639.85 1870.1,1623.81C1870.33,1623.23 1870.49,1622.52 1870.35,1621.94C1870.08,1620.78 1869.59,1619.68 1869.18,1618.55C1868.25,1619.15 1866.99,1619.53 1866.44,1620.37C1861.68,1627.72 1857.33,1635.33 1852.33,1642.5C1844.79,1653.26 1835.25,1662.78 1823.42,1667.75C1815.54,1671.06 1805.61,1672.81 1796.39,1668.6C1788.77,1665.12 1783.51,1659.44 1779.2,1652.46C1775.28,1646.1 1771.82,1639.69 1769.11,1632.62C1765.69,1623.73 1764.23,1614.54 1762.5,1605.39C1760.08,1592.63 1757.53,1579.79 1756.74,1566.88C1756.31,1559.88 1755.14,1552.84 1756.01,1545.51C1756.99,1537.31 1754.58,1528.78 1754.54,1520.38C1754.49,1513.33 1755.8,1506.27 1756.3,1499.2C1756.35,1498.37 1755.11,1497.44 1754.47,1496.55C1753.77,1497.38 1752.58,1498.16 1752.47,1499.07C1750.76,1512.9 1743.33,1524.63 1738.6,1537.35C1735.16,1546.59 1732.56,1556.24 1728.23,1565.04C1718.95,1583.9 1709.2,1602.56 1698.84,1620.85C1692.82,1631.49 1685.51,1641.43 1678.31,1651.34C1673.14,1658.45 1666.32,1663.83 1657.64,1666.28C1647.11,1669.24 1638.86,1664.77 1632.43,1652.44C1629.63,1647.07 1627.81,1641.39 1628.28,1635.11C1628.38,1633.64 1627.05,1632.07 1626.38,1630.55C1625.1,1631.5 1623.11,1632.18 1622.66,1633.43C1617.1,1648.98 1608.29,1662.86 1600.38,1677.2C1594.39,1688.06 1587.93,1698.87 1582.89,1709.98C1573.98,1729.61 1560.51,1746.47 1551.77,1766.06C1546.59,1777.66 1538.61,1787.43 1530.97,1797.57C1523.26,1807.78 1515.27,1817.6 1505.72,1825.88C1498.42,1832.21 1490.33,1838.5 1481.47,1841.95C1468.35,1847.06 1455.53,1843.99 1444.88,1834.06C1438.96,1828.54 1432.95,1822.85 1430.57,1815C1428.65,1808.62 1424.34,1803.69 1421.88,1797.57C1416.86,1785.1 1413.04,1772.33 1410.69,1759.29C1409.12,1750.59 1404.9,1742.88 1404.02,1733.86C1402.9,1722.48 1398.66,1711.44 1396.5,1700.12C1394.19,1688.01 1390.36,1676.21 1390.17,1663.63C1390.08,1657.16 1387.75,1650.72 1386.38,1644.28C1385.08,1638.16 1383.26,1632.11 1382.5,1625.92C1381.4,1616.92 1380.6,1607.83 1380.53,1598.77C1380.46,1590.98 1379.33,1583.47 1376.87,1576.21C1375.79,1573.02 1378.35,1570.76 1376.96,1566.88C1374.32,1559.53 1374.62,1550.97 1374.49,1542.91C1374.26,1529.32 1373.06,1515.88 1370.4,1502.57C1370.33,1502.24 1370.4,1501.9 1370.39,1501.57C1369.8,1487.51 1370.44,1473.47 1368.99,1459.33C1368.15,1451.22 1367.63,1442.54 1368.25,1434.04C1368.88,1425.42 1368.39,1416.72 1368.39,1408.05L1368.39,1381.05C1368.39,1372.39 1368.19,1363.71 1368.43,1355.05C1368.97,1335.66 1368.86,1316.19 1370.77,1296.92C1371.67,1287.82 1372.14,1278.8 1372.36,1269.71C1372.38,1268.8 1372,1267.87 1371.8,1266.96C1371.33,1267.82 1370.83,1268.68 1370.39,1269.56C1369.7,1270.94 1368.63,1272.29 1368.46,1273.74C1367.01,1286.17 1366.69,1298.83 1364.14,1311.02C1361.1,1325.54 1360.48,1340.37 1356.71,1354.84C1353.21,1368.29 1352.85,1382.52 1350.26,1396.25C1347.49,1410.97 1342.34,1425.36 1340.73,1440.17C1338.54,1460.34 1332.96,1479.64 1328.14,1499.1C1323.51,1517.85 1320.16,1536.86 1314.96,1555.54C1308.49,1578.85 1301.95,1602.12 1295.1,1625.32C1291.68,1636.89 1288.4,1648.71 1285.85,1660.64C1284.64,1666.26 1281.54,1672.04 1279.68,1678C1275.84,1690.34 1271.09,1702.42 1266.33,1714.45C1261.46,1726.78 1256.91,1739.22 1252.25,1751.62C1249.88,1757.96 1247.07,1764.14 1244.37,1770.35C1243.38,1772.61 1242.11,1774.75 1240.99,1776.95C1234.79,1789.05 1228.58,1801.14 1222.41,1813.26C1221.86,1814.35 1221.95,1816.08 1221.13,1816.67C1215.58,1820.65 1214.17,1827.08 1211.27,1832.64C1204.1,1846.42 1195.41,1859.18 1185.11,1870.8C1178.41,1878.35 1172.02,1886.26 1164.62,1893.07C1154.41,1902.48 1142.24,1908.89 1128.75,1912.54C1117.37,1915.62 1106.21,1916.09 1095.27,1910.48C1075.77,1900.49 1061.96,1885.55 1054.34,1864.92C1052.64,1860.3 1050.36,1855.9 1048.26,1851.44C1044.06,1842.51 1038.75,1833.94 1035.86,1824.61C1033.3,1816.35 1031.61,1807.78 1028.39,1799.67C1023.97,1788.51 1021.14,1777 1020.32,1764.99C1020.17,1762.89 1019.42,1760.65 1018.33,1758.85C1013.37,1750.63 1014.58,1741.09 1012.62,1732.25C1010.52,1722.77 1010.19,1712.92 1006.66,1703.67C1005.88,1701.64 1006.39,1699.09 1006.4,1696.78C1006.44,1685.56 1005.03,1674.59 1000.97,1664.03C1000.3,1662.29 1000.38,1660.19 1000.42,1658.27C1000.63,1648.27 1000.31,1638.36 996.42,1628.91C996.186,1628.34 996.424,1627.59 996.385,1626.92C995.725,1615.87 996.532,1604.45 993.959,1593.86C991.566,1584.01 994.925,1573.76 990.406,1564.4C990.276,1564.13 990.406,1563.74 990.388,1563.41C989.724,1551.69 988.992,1539.97 988.406,1528.24C987.671,1513.52 988.548,1498.52 985.953,1484.15C983.556,1470.86 983.32,1457.65 981.973,1444.42C981.15,1436.34 981.585,1428.13 980.193,1420.25C977.219,1403.39 979.175,1385.81 972.554,1369.46C971.395,1366.59 971.909,1362.77 972.493,1359.54C973.62,1353.31 968.025,1349.1 968.13,1343.29C966.884,1343.56 964.846,1343.44 964.511,1344.14C960.659,1352.2 956.613,1360.22 953.488,1368.57C944.524,1392.53 935.53,1416.5 927.397,1440.75C922.273,1456.03 918.672,1471.82 914.39,1487.38C911.837,1496.65 907.881,1505.81 907.065,1515.23C905.854,1529.22 898.371,1541.58 898.184,1555.74C898.112,1561.21 895.44,1566.59 894.448,1572.1C892.261,1584.24 890.471,1596.45 888.365,1608.6C886.542,1619.12 882.153,1628 870.873,1630.86C867.299,1631.76 861.899,1632.22 859.641,1630.24C853.998,1625.3 847.008,1620.95 846.308,1611.93C845.033,1595.49 842.511,1579.26 838.649,1563.17C837.356,1557.78 838.482,1551.64 838.209,1545.9C837.833,1537.99 836.202,1530.13 835.088,1522.26C834.912,1521.01 834.027,1519.47 834.485,1518.6C837.99,1511.91 833.972,1506.06 832.794,1499.88C832.309,1497.33 832.39,1494.65 832.408,1492.03C832.536,1473.81 831.628,1455.67 828.445,1437.68C828.044,1435.42 828.482,1433.02 828.375,1430.69C827.739,1416.97 827.845,1403.15 826.165,1389.55C824.529,1376.31 820.519,1363.43 815.699,1350.95C812.218,1341.93 804.814,1338.36 795.929,1342.23C783.775,1347.52 772.321,1354.43 760.119,1359.59C747.724,1364.84 738.965,1375.26 727.044,1381.11C721.83,1383.67 721.784,1385.59 726.362,1389.37C735.58,1396.98 739.669,1407.68 744.268,1418.01C747.142,1424.46 749.027,1431.39 750.973,1438.22C752.429,1443.33 754.002,1448.57 754.261,1453.82C755.248,1473.86 756.594,1493.95 756.077,1513.97C755.744,1526.86 752.155,1539.63 750.497,1552.51C749.763,1558.22 750.216,1563.92 748.583,1569.72C744.525,1584.15 743.764,1599.18 739.056,1613.74C735.412,1625.01 730.273,1635.55 726.675,1646.65C722.382,1659.89 712.891,1669.63 706.036,1681.06C700.479,1690.32 691.105,1696.53 679.731,1698.66C676.481,1699.27 673.597,1701.74 670.346,1702.45C659.09,1704.95 636.815,1698.65 629.216,1687.17C624.04,1679.35 616.926,1672.61 612.731,1663.88C606.557,1651.03 598.446,1638.88 598.334,1623.82C598.326,1622.73 597.516,1621.64 597.079,1620.55C596.183,1621.51 595.02,1622.34 594.438,1623.47C592.317,1627.58 590.357,1631.77 588.4,1635.97C586.837,1639.31 585.376,1642.71 583.854,1646.08C582.712,1648.61 581.039,1651.02 580.499,1653.67C579.478,1658.66 577.904,1663.05 574.9,1667.43C571.309,1672.68 569.74,1679.26 566.829,1685.02C561.531,1695.51 554.865,1705.43 550.662,1716.32C545.925,1728.59 537.812,1738.91 532.828,1750.94C531.414,1754.36 528.35,1757.05 526.43,1760.3C519.322,1772.34 512.663,1784.65 505.276,1796.51C499.616,1805.6 493.097,1814.15 486.99,1822.96C484.124,1827.09 481.235,1831.22 478.517,1835.45C471.759,1845.97 465.151,1856.59 458.323,1867.07C457.369,1868.53 455.497,1869.38 454.075,1870.55C452.577,1871.79 450.702,1872.79 449.692,1874.35C439.485,1890.11 427.3,1904.24 414.247,1917.64C404.054,1928.1 393.614,1938.33 383.283,1948.66C379.081,1952.86 374.777,1956.96 370.698,1961.28C362.247,1970.23 352.145,1977.05 342.045,1983.88C331.896,1990.75 321.817,1997.72 311.51,2004.34C303.394,2009.55 295.421,2015.41 286.568,2018.93C277.908,2022.36 270.182,2027.62 261.368,2030.52C252.849,2033.32 244.3,2036.05 235.679,2038.51C225.05,2041.54 214.421,2044.53 203.178,2044.65C197.781,2044.71 192.188,2047.14 187.046,2046.3C174.672,2044.26 162.031,2044.22 149.923,2039.53C141.703,2036.34 133.205,2034.36 126.71,2027.92C126.075,2027.29 125.125,2026.65 124.287,2026.6C114.829,2026.03 109.455,2018.55 102.655,2013.66C87.893,2003.05 78.627,1987.62 68.369,1973.1C66.523,1970.49 64.559,1967.93 62.371,1965.6C59.249,1962.29 56.322,1959.08 56.286,1954.06C56.273,1952.33 55.402,1950.35 54.333,1948.93C48.023,1940.54 47.054,1929.74 42.083,1921.03C35.444,1909.41 33.322,1896.53 29.606,1884.2C27.122,1875.96 24.518,1867.42 24.023,1858.34C23.559,1849.81 19.708,1841.52 17.945,1833C15.771,1822.5 15.077,1811.62 12.173,1801.35C8.481,1788.29 13.443,1774.24 6.719,1761.62C5.472,1759.27 6.41,1755.75 6.396,1752.77C6.348,1742.81 6.959,1732.82 2.52,1723.37C1.622,1721.46 1.458,1718.11 2.555,1716.55C6.841,1710.43 2.876,1704.93 2.018,1699.23C1.746,1697.42 0.144,1695.49 0.518,1693.95C3.237,1682.74 -2.461,1671.25 1.787,1660.15C-3.78,1650.98 5.92,1641.33 0.731,1631.7C-0.813,1628.84 2.117,1623.79 2.302,1619.71C2.62,1612.73 2.181,1605.71 2.457,1598.72C2.671,1593.3 1.761,1587.96 4.047,1582.4C5.435,1579.03 3.113,1574.27 3.06,1570.13C2.999,1565.43 3.434,1560.7 3.976,1556.02C4.595,1550.66 5.938,1545.38 6.316,1540.02C7.212,1527.32 7.459,1514.56 8.465,1501.86C9.454,1489.39 10.772,1476.92 12.492,1464.53C13.609,1456.47 15.691,1448.55 17.384,1440.58C17.573,1439.69 18.426,1438.82 18.334,1438.01C16.694,1423.57 22.112,1410.61 26.19,1397.25C28.033,1391.22 27.802,1384.54 28.373,1378.14C29.41,1366.51 30.901,1355 35.71,1344.17C36.207,1343.06 36.465,1341.67 36.343,1340.46C35.58,1332.93 38.478,1326.17 40.098,1319.05C43.013,1306.23 47.638,1293.75 48.555,1280.44C48.775,1277.25 52.713,1273.78 52.053,1271.17C50.575,1265.32 56.839,1262.21 55.536,1256.18C54.559,1251.66 57.164,1246.21 58.696,1241.35C60.263,1236.37 62.852,1231.69 64.313,1226.69C67.881,1214.47 70.888,1202.09 74.458,1189.88C76.358,1183.38 78.928,1177.07 81.25,1170.7C86.947,1155.06 92.203,1139.24 98.527,1123.85C104.495,1109.34 109.788,1094.59 116.718,1080.35C123.067,1067.3 132.851,1056.66 138.684,1043.49C140.443,1039.52 144.134,1036.39 147.011,1032.94C156.834,1021.15 168.442,1011.63 181.796,1003.93C191.661,998.243 215.753,999.48 226.045,1008.89C243.231,1024.6 253.671,1044.4 259.849,1065.92C263.296,1077.93 265.888,1091.04 264.381,1104.11C262.991,1116.15 260.58,1127.83 251.218,1136.62C250.215,1137.56 248.52,1137.76 247.146,1138.31C246.894,1137.08 246.363,1135.83 246.434,1134.62C247.023,1124.56 248.589,1114.47 248.153,1104.46C247.692,1093.88 246.102,1083.28 240.653,1073.63C237.951,1068.85 237.131,1062.96 234.239,1058.34C229.047,1050.05 223.431,1041.9 217.064,1034.49C210.879,1027.29 204.2,1026.39 196.793,1031.33C187.157,1037.75 178.639,1045.43 174.336,1056.78C172.794,1060.84 169.035,1063.28 167.44,1067.95C164.078,1077.79 158.812,1087.07 153.623,1096.18C144.488,1112.22 140.574,1130.14 134.475,1147.26C129.191,1162.09 124.913,1177.28 119.682,1192.14C115.524,1203.95 113.21,1216.17 110.356,1228.28C109.936,1230.06 108.403,1231.77 108.495,1233.45C109.149,1245.51 104.327,1256.21 100.817,1267.31C99.487,1271.51 99.82,1276.21 99.246,1280.67C97.761,1292.22 91.955,1302.79 92.154,1314.83C92.238,1319.92 89.565,1325.02 88.428,1330.18C86.798,1337.57 83.072,1344.57 84.332,1352.52C84.519,1353.7 84.165,1355.09 83.67,1356.21C80.182,1364.13 79.069,1372.38 77.842,1380.95C76.389,1391.1 75.091,1401.67 71.965,1411.41C69.647,1418.62 70.266,1425.87 68.925,1432.99C66.244,1447.21 64.993,1461.7 60.429,1475.59C60.132,1476.49 60.429,1477.57 60.384,1478.57C59.726,1492.96 60.13,1507.52 57.995,1521.68C56.672,1530.46 58.368,1539.71 54.39,1548.09C57.164,1553.87 54.361,1559.67 54.205,1565.42C54.058,1570.8 55.471,1576.13 52.799,1581.79C51.226,1585.13 55.16,1590.77 54.104,1594.69C51.568,1604.13 52.916,1613.54 52.371,1622.94C51.98,1629.69 52.965,1636.38 50.73,1643.23C49.498,1647 52.129,1651.88 52.301,1656.29C52.614,1664.28 52.214,1672.29 52.479,1680.28C52.58,1683.37 53.921,1686.39 54.244,1689.49C54.473,1691.68 53.83,1693.95 53.774,1696.19C53.701,1699.13 53.796,1702.08 53.884,1705.02C53.902,1705.62 54.528,1706.34 54.344,1706.78C49.305,1719.03 56.664,1731.1 54.733,1743.54C53.286,1752.86 55.957,1762.5 58.223,1771.87C59.214,1775.96 58.748,1780.53 58.321,1784.82C57.151,1796.6 61.514,1807.45 63.556,1818.69C64.397,1823.32 66.163,1827.89 66.253,1832.52C66.515,1845.98 70.864,1858.49 73.882,1871.36C75.828,1879.67 78.172,1887.37 82.068,1895.05C85.361,1901.54 85.668,1909.5 87.62,1916.73C90.833,1928.62 97.504,1938.82 104.465,1948.72C112.683,1960.41 121.099,1972 130.131,1983.06C136.415,1990.76 146.054,1994.21 154.729,1998.34C166.206,2003.82 178.372,2007.87 191.339,2002.6C211.454,2005 228.98,1997.02 244.211,1991.82C254.896,1988.17 264.116,1981.34 274.153,1977.18C289.71,1970.73 302.289,1960.02 316.752,1952.18C324.347,1948.07 329.894,1940.19 336.403,1934.05C337.736,1932.79 339.139,1931.55 340.684,1930.58C344.62,1928.11 348.552,1926.29 351.021,1921.47C352.677,1918.24 357.812,1916.79 361.89,1914.05M2012.39,1369.55C2001.6,1382.86 1988.9,1394.41 1978.9,1408.57C1968.2,1423.7 1956.08,1437.74 1950.13,1455.73C1948.88,1459.51 1947.51,1463.52 1945.13,1466.61C1938.06,1475.78 1937.32,1487.38 1932.66,1497.49C1928.68,1506.12 1927.1,1515.83 1924.37,1525.04C1923.14,1529.19 1920.7,1533.25 1920.58,1537.39C1920.24,1549.58 1915.1,1560.65 1913.3,1572.48C1911.57,1583.93 1908.5,1595.18 1906.48,1606.6C1905.31,1613.23 1906.63,1620.72 1904.05,1626.6C1899.22,1637.57 1901.64,1649.25 1898.67,1660.33C1897.09,1666.24 1898.55,1672.93 1898.35,1679.25C1898.14,1685.76 1898.71,1692.59 1896.87,1698.65C1895.06,1704.63 1900.25,1710.26 1896.39,1715.76C1900.28,1721.54 1896.81,1727.3 1896.59,1733.11C1896.36,1739.13 1897.75,1745.21 1898.37,1751.27C1898.51,1752.59 1898.19,1753.97 1898.42,1755.26C1900.37,1766.11 1902.37,1776.95 1904.39,1787.78C1906.6,1799.61 1911.46,1810.06 1920.85,1817.93C1924.24,1820.77 1926.58,1820.71 1930.91,1818.54C1948.94,1809.49 1960.91,1793.83 1972.04,1778.11C1980.04,1766.8 1988.39,1755.36 1993.87,1742.27C1996.61,1735.73 2001.43,1730.07 2004.16,1723.53C2007.05,1716.63 2011.48,1710.69 2014.52,1703.83C2026.63,1676.52 2040.38,1649.95 2050.52,1621.75C2054.37,1611.05 2060.36,1601.13 2064.25,1590.45C2070.9,1572.18 2076.36,1553.48 2082.92,1535.18C2086.75,1524.47 2093.2,1514.54 2095.89,1503.62C2099.84,1487.6 2107.22,1472.88 2111.38,1456.94C2115.01,1443.01 2121.5,1429.84 2126.34,1416.2C2134.28,1393.83 2141.78,1371.31 2150.18,1349.09C2159.77,1323.7 2167.76,1297.7 2176.38,1271.95C2193.74,1220.15 2211.07,1168.34 2228.37,1116.51C2230.52,1110.06 2232.39,1103.51 2234.39,1097.01C2238.39,1084 2241.93,1070.82 2246.65,1058.08C2248.22,1053.82 2247.09,1053.2 2243.89,1052.59C2242.6,1052.34 2241.23,1052.5 2239.9,1052.56C2224.51,1053.21 2209.12,1053.84 2193.74,1054.6C2191.41,1054.71 2188.58,1056.6 2186.9,1055.78C2178.01,1051.44 2168.7,1060.28 2160.04,1054.57C2159.87,1054.46 2159.46,1054.74 2159.15,1054.78C2154.4,1055.38 2149.64,1055.93 2144.89,1056.56C2140.16,1057.18 2135.46,1058.25 2130.71,1058.48C2113.33,1059.32 2095.87,1059.19 2078.59,1060.88C2071.52,1061.58 2064.29,1061.4 2057.43,1062.76C2042.38,1065.73 2027.31,1066.95 2012.05,1066.55C2010.72,1066.52 2009.35,1066.36 2008.05,1066.58C1996.21,1068.53 1984.44,1071.56 1972.52,1072.27C1959.96,1073.02 1947.58,1074.07 1935.17,1076.36C1923.22,1078.57 1910.97,1079.15 1898.87,1080.59C1895.45,1080.99 1892.11,1082.19 1888.69,1082.49C1878.98,1083.33 1869.11,1083.09 1859.58,1084.83C1853.36,1085.97 1846.29,1083.53 1840.83,1088.53C1840.65,1088.69 1840.17,1088.51 1839.85,1088.55C1824.34,1090.55 1808.83,1092.43 1793.35,1094.6C1785.86,1095.64 1778.48,1097.41 1770.99,1098.5C1760.58,1100.02 1749.91,1100.37 1739.72,1102.79C1729.84,1105.13 1719.82,1106.06 1709.93,1108C1698.51,1110.23 1687.08,1112.42 1675.64,1114.53C1666.65,1116.2 1657.62,1117.69 1648.62,1119.33C1643.06,1120.34 1637.51,1121.42 1631.97,1122.56C1622.45,1124.52 1612.98,1126.64 1603.45,1128.52C1594.49,1130.29 1585.45,1131.68 1576.5,1133.49C1569.16,1134.98 1561.94,1137.03 1554.6,1138.51C1543.49,1140.74 1532.25,1142.37 1521.2,1144.84C1508.14,1147.75 1495.24,1151.34 1482.24,1154.53C1471.03,1157.28 1459.81,1159.94 1448.56,1162.53C1436.68,1165.27 1424.73,1167.71 1412.93,1170.73C1411.1,1171.19 1408.84,1173.91 1408.57,1175.84C1407.47,1183.83 1406.9,1191.91 1406.42,1199.98C1405.58,1214.36 1406.26,1228.71 1404.84,1243.19C1402.72,1264.75 1405.28,1286.61 1402.58,1308.33C1401.44,1317.52 1402.39,1326.97 1402.39,1336.3C1402.39,1340.63 1403.7,1345.55 1402.08,1349.16C1399.7,1354.49 1403.77,1359.99 1400.39,1364.81C1404.32,1370.51 1402.08,1376.92 1402.31,1382.98C1403.61,1417.35 1400.28,1451.79 1404.24,1486.15C1405.74,1499.11 1404.37,1512.22 1405.82,1525.36C1406.76,1533.81 1411.58,1542.85 1406.43,1551.66C1406.15,1552.14 1406.28,1553 1406.48,1553.6C1409.52,1563.17 1409.17,1573.18 1410.36,1582.98C1411.18,1589.68 1411.61,1596.43 1412.44,1603.14C1412.82,1606.23 1414.28,1609.25 1414.29,1612.31C1414.36,1625.25 1416.12,1637.97 1418.4,1650.65C1419.01,1654.05 1420.28,1657.43 1420.29,1660.82C1420.32,1672.71 1424.16,1683.89 1426.23,1695.39C1427.63,1703.15 1428.95,1710.92 1430.4,1718.67C1432.02,1727.31 1433.89,1735.92 1435.36,1744.59C1436.06,1748.73 1435.11,1753.35 1436.56,1757.11C1442.33,1772.04 1446.43,1787.68 1454.56,1801.63C1456.31,1804.64 1458.68,1807.3 1460.89,1810.01C1462.92,1812.5 1464.98,1813.41 1468.47,1811.66C1476.4,1807.68 1483.26,1802.61 1488.38,1795.32C1489.45,1793.79 1490,1791.46 1491.43,1790.68C1499.11,1786.56 1503.18,1779.21 1507.29,1772.3C1510.42,1767.01 1512.51,1761.01 1516.42,1756.13C1523.51,1747.29 1527,1736.29 1533.28,1727.2C1540.44,1716.85 1546.12,1705.81 1552.38,1695.03C1557.52,1686.17 1563.31,1677.58 1567.35,1668.23C1570.46,1661.02 1575.73,1655.29 1578.98,1648.08C1581.58,1642.32 1583.54,1635.8 1587.45,1630.59C1594.59,1621.04 1598.53,1609.8 1604.38,1599.59C1612.41,1585.59 1620.61,1571.68 1628.29,1557.49C1631.79,1551.01 1636.6,1545.14 1637.09,1537.07C1637.37,1532.26 1639.25,1527.37 1641.2,1522.86C1647.09,1509.29 1653.12,1495.78 1659.57,1482.47C1666.57,1468.02 1675.65,1454.91 1685.42,1442.11C1692.72,1432.55 1700.79,1423.75 1709.1,1415.31C1717.33,1406.94 1727.34,1400.29 1736.84,1393.24C1741.31,1389.91 1746.14,1386.7 1751.3,1384.79C1755.1,1383.38 1760.69,1385.58 1763.67,1383.54C1766.27,1381.76 1766.24,1376.25 1767.54,1372.44C1768.33,1370.12 1769.01,1367.58 1770.46,1365.68C1777.8,1356.09 1788.02,1355.98 1794.4,1366.65C1797.07,1371.11 1796.74,1375.62 1795.56,1380.48C1793.58,1388.7 1791.5,1396.98 1790.54,1405.36C1789.35,1415.68 1789.99,1426.09 1788.84,1436.56C1787.02,1453.12 1787.61,1469.96 1786.81,1486.69C1785.95,1504.64 1784.34,1522.87 1788.31,1540.85C1790.07,1548.86 1787.38,1556.92 1787.93,1565.2C1788.95,1580.71 1789.68,1596.2 1792.45,1611.5C1794.28,1621.61 1797.48,1631.36 1803.04,1640.08C1806.38,1645.32 1809.01,1646.01 1814.2,1642.41C1818.68,1639.3 1823.54,1637.06 1827.04,1631.77C1829.86,1627.5 1833.58,1623.16 1837.02,1618.95C1845.39,1608.71 1851.43,1597.18 1856.44,1585C1860.31,1575.6 1863.96,1566 1869,1557.23C1875.03,1546.71 1879.14,1535.39 1884.57,1524.67C1890.17,1513.58 1893.03,1501.38 1898.68,1490.54C1905.27,1477.89 1908.54,1464.05 1915.6,1451.44C1922.3,1439.46 1926.93,1426.03 1934.53,1414.4C1944.99,1398.4 1955.14,1382.05 1969.22,1368.77C1971.46,1366.65 1974.65,1365.28 1976.27,1362.82C1982.86,1352.82 1992.93,1346.83 2002.16,1340.01C2010.54,1333.81 2018.14,1335.56 2024.67,1343.82C2026.78,1346.5 2027.41,1354.16 2025.23,1356.6C2021.48,1360.76 2017.36,1364.58 2012.39,1369.55M1664.39,1561.55C1662.78,1568.27 1661.91,1575.36 1659.97,1581.74C1655.19,1597.44 1658.4,1613.76 1654.5,1629.37C1654.12,1630.89 1655.3,1632.81 1655.76,1634.55C1657.3,1633.51 1659.36,1632.81 1660.31,1631.37C1666.15,1622.51 1672.08,1613.67 1677.33,1604.46C1682.84,1594.81 1689.23,1585.7 1693.17,1575.06C1696.36,1566.44 1701.6,1558.6 1705.61,1550.25C1708.8,1543.6 1711.46,1536.69 1714.39,1529.92C1720.38,1516.08 1726.42,1502.26 1732.38,1488.41C1735.78,1480.5 1739.8,1472.75 1742.23,1464.54C1746.6,1449.72 1752.38,1435.41 1757.17,1420.76C1757.54,1419.63 1757.85,1418.49 1758.19,1417.35C1757.01,1417.99 1755.68,1418.46 1754.68,1419.31C1745.25,1427.33 1739.53,1438.48 1731.3,1447.65C1720.21,1460.01 1712.8,1475.68 1703.95,1490.02C1696.77,1501.68 1690.2,1513.73 1682.63,1525.12C1675.38,1536.03 1669.58,1547.6 1664.39,1561.55M2278.39,1021.55C2284.58,1021.88 2290.77,1022.24 2296.97,1022.54C2300.64,1022.72 2301.87,1020.77 2302.49,1017.24C2304.19,1007.69 2306.49,998.241 2308.36,988.717C2309.88,980.985 2311.08,973.191 2312.53,965.444C2312.98,963.007 2314.14,960.659 2314.32,958.221C2315.14,947.515 2315.62,936.782 2316.44,926.076C2316.83,921 2317.78,915.97 2318.33,910.903C2318.4,910.218 2317.62,909.441 2317.23,908.706C2316.76,909.178 2316.12,909.567 2315.85,910.134C2314.64,912.626 2313.3,915.093 2312.44,917.711C2310.6,923.292 2309.23,929.033 2307.3,934.58C2302.44,948.55 2297.29,962.418 2292.42,976.386C2289.58,984.547 2287.3,992.913 2284.31,1001.01C2282.05,1007.12 2278.8,1012.87 2278.39,1021.55Z" style="fill:#fff;fill-rule:nonzero;"/>
</svg>
