<?xml version="1.0" encoding="utf-8"?><!DOCTYPE svg PUBLIC "-//W3C//DTD SVG 1.1//EN" "http://www.w3.org/Graphics/SVG/1.1/DTD/svg11.dtd"><svg version="1.1" id="Contours" xmlns="http://www.w3.org/2000/svg" xmlns:xlink="http://www.w3.org/1999/xlink" x="0px" y="0px" width="3673.967041px" height="3673.967041px" viewBox="0.000007 -0.000007 3673.967041 1055.569824" enable-background="new 0 0 3673.967041 3673.967041" xml:space="preserve" stroke="black" fill="none" stroke-linecap='round' stroke-linejoin='round'><path class="selected"  fill="#000000" opacity="1.000000" stroke="none" 
 	d="
M1977.566826 557.653937 C1978.066826 555.820685 1977.489922 553.912848 1978.156426 553.243293 C1984.449639 546.922370 1985.954034 538.515388 1988.778985 530.585456 C1992.614190 519.819465 1997.943291 509.698127 2003.393242 499.629279 C2006.299981 494.258796 2007.576592 488.029914 2010.161065 482.453864 C2012.372979 477.681037 2015.670586 473.420661 2018.017754 468.699836 C2026.258965 452.124152 2033.784356 435.171271 2042.560723 418.889289 C2050.823907 403.559211 2060.278496 388.868171 2069.300713 373.951423 C2073.664239 366.737128 2078.080254 359.545173 2082.750176 352.527900 C2091.112969 339.961371 2099.602471 327.476996 2108.191094 315.063483 C2120.728203 296.943000 2134.504326 279.785041 2148.319512 262.619697 C2161.181328 246.638434 2174.320733 230.997992 2188.729668 216.391608 C2196.085625 208.934943 2202.731621 200.778815 2210.078545 193.312568 C2213.379326 189.958198 2210.617119 190.137580 2208.599053 189.724494 C2205.503106 189.090583 2202.380547 188.382392 2199.240410 188.199164 C2175.380303 186.806830 2152.913994 179.819892 2132.921563 167.394721 C2118.928399 158.698188 2109.106621 145.580207 2105.627129 128.059150 C2104.143242 120.586982 2101.368828 113.339667 2102.132989 105.635627 C2104.686944 79.884284 2114.061700 58.136725 2135.295586 41.349433 C2150.215508 29.554145 2166.950860 23.010810 2184.295342 16.916327 C2184.874444 16.712775 2185.405205 16.223578 2185.981377 16.181769 C2195.702325 15.476142 2205.530450 13.646003 2215.120537 14.492255 C2224.274346 15.299994 2233.225030 18.756293 2242.178155 21.347846 C2246.601494 22.628180 2250.862969 24.502265 2255.139825 26.248969 C2266.847100 31.030524 2275.941338 39.474067 2283.556328 49.033027 C2289.618828 56.643500 2291.057305 66.473823 2289.978203 76.243171 C2289.547051 80.146796 2284.772637 81.685859 2281.839043 78.756537 C2277.732110 74.654975 2273.833184 70.229865 2270.516778 65.474982 C2262.750909 54.340827 2249.411309 45.758063 2236.355401 41.946357 C2226.270684 39.002021 2216.390557 35.804877 2205.781670 36.182136 C2194.987237 36.565925 2185.048028 39.845832 2174.964043 43.823188 C2164.213311 48.063483 2155.159112 54.431159 2146.143487 61.140449 C2138.476739 66.845832 2134.400811 75.508430 2130.382500 83.612250 C2126.868584 90.699653 2124.564873 99.095283 2124.372735 106.977485 C2123.943535 124.593451 2128.261162 140.584968 2144.247246 151.515754 C2158.986748 161.593940 2174.842705 167.913337 2192.539971 170.269233 C2202.795830 171.634528 2212.897149 174.158881 2223.069756 176.152411 C2233.405694 178.178046 2236.659356 186.448188 2230.468926 194.769782 C2219.417657 209.625617 2207.198907 223.455512 2194.483819 236.905890 C2188.324639 243.421149 2182.987725 250.729255 2177.451836 257.813666 C2170.981133 266.094062 2164.620293 274.463386 2158.353936 282.899543 C2149.089532 295.371589 2139.520928 307.647651 2130.856866 320.528327 C2117.053887 341.048896 2103.748711 361.909675 2090.535088 382.817512 C2086.250176 389.597297 2082.952080 396.997016 2079.131524 404.074958 C2072.807061 415.792487 2066.155205 427.342170 2060.137383 439.214240 C2053.167168 452.965339 2046.747002 466.994880 2040.063897 480.891974 C2028.975030 503.950812 2019.354912 527.631110 2009.372735 551.173591 C2001.159112 570.545051 1994.009453 590.176398 1987.284356 610.022956 C1983.323418 621.711677 1978.466241 633.234138 1975.129815 644.910529 C1971.906914 656.190192 1968.460137 667.624274 1965.984063 679.220222 C1963.514092 690.787726 1960.230645 702.178962 1957.568047 713.708625 C1955.521905 722.569221 1953.882744 731.523932 1952.067559 740.437995 C1950.064385 750.275519 1946.898614 760.049201 1946.348321 769.967658 C1945.578057 783.849128 1942.481133 797.369513 1941.411553 811.244025 C1939.781670 832.384040 1939.167168 853.540534 1940.563164 874.431891 C1942.096856 897.381843 1946.058526 920.488044 1960.033623 940.203132 C1963.997002 945.794440 1973.113213 950.260016 1979.101250 947.925544 C1987.813653 944.528693 1996.373467 940.684455 2003.335625 933.962531 C2020.724541 917.173713 2034.995782 898.060676 2045.997246 876.604377 C2055.005059 859.036139 2064.021172 841.424323 2071.906182 823.340461 C2081.256768 801.895637 2089.325616 779.894294 2098.084649 758.188483 C2110.100518 728.412848 2119.903496 697.868415 2130.455987 667.573371 C2138.771416 643.700324 2146.809746 619.712775 2155.221612 595.864753 C2161.386162 578.387214 2166.164971 560.419074 2172.391534 542.965705 C2184.297539 509.593390 2195.093438 475.801032 2209.705742 443.427131 C2216.165215 429.116340 2221.564873 414.320441 2228.220879 400.107673 C2232.085625 391.855536 2236.712578 383.889411 2243.636162 377.438910 C2252.182061 369.477057 2261.006035 370.721930 2266.927666 378.180305 C2272.935967 385.747443 2278.201348 393.692939 2280.247002 403.665351 C2282.674492 415.499518 2286.573907 427.025519 2289.586602 438.749030 C2290.761407 443.320197 2291.535088 448.037482 2292.007500 452.736823 C2292.882012 461.439704 2293.310967 470.186286 2294.099785 478.899055 C2294.589287 484.305427 2295.478936 489.674567 2296.044121 495.075568 C2296.575616 500.153449 2294.809258 505.475959 2297.978936 510.302253 C2298.590752 511.233771 2298.037285 512.911994 2298.071465 514.244391 C2298.731866 539.967902 2299.386651 565.691779 2300.099541 591.413947 C2300.142510 592.964484 2300.661309 594.501960 2300.958428 596.045539 C2301.901055 594.508307 2303.549248 593.025886 2303.673516 591.425178 C2304.557061 580.053962 2309.016045 569.640021 2312.119073 558.879401 C2315.976250 545.504767 2319.991387 532.166144 2324.362237 518.952155 C2327.941582 508.130378 2331.741143 497.345832 2336.151055 486.842048 C2344.996270 465.774543 2353.376641 444.421515 2366.181573 425.311286 C2368.909844 421.239631 2372.769463 417.718513 2376.691094 414.701423 C2383.131524 409.746100 2395.792412 411.569343 2401.613457 419.047370 C2405.932793 424.596198 2409.725762 430.611457 2412.746026 437.353522 C2420.337334 454.301398 2423.015557 472.476081 2427.843926 490.078864 C2430.432305 499.515510 2430.464776 509.625495 2432.130791 519.349372 C2434.520684 533.298224 2437.524590 547.141730 2439.913994 561.090583 C2441.050713 567.727668 2441.317803 574.510749 2442.125664 581.210090 C2442.249932 582.240363 2443.165948 583.175055 2443.715752 584.153937 C2444.499444 583.408942 2445.492608 582.791144 2446.033623 581.899177 C2450.390801 574.715461 2454.797051 567.555915 2458.926934 560.241462 C2464.102959 551.073493 2469.345391 541.920539 2474.000909 532.485602 C2483.553399 513.126838 2492.023858 493.199836 2502.292412 474.239509 C2510.438653 459.198249 2517.694512 443.500373 2528.874932 430.185554 C2532.465752 425.909308 2535.400811 420.963630 2537.974541 415.982429 C2541.305352 409.535895 2545.785576 404.616462 2552.116387 400.945014 C2558.538018 397.221259 2565.197930 396.798408 2570.475762 401.693427 C2577.560967 408.264533 2584.507012 415.145026 2584.066826 426.021735 C2591.027520 432.979011 2587.065850 442.503547 2589.649834 450.667975 C2592.220147 458.789191 2590.902764 468.056403 2592.171075 476.691901 C2594.772149 494.402472 2595.970879 512.159919 2596.166436 530.048224 C2596.271905 539.673469 2597.406670 549.287116 2598.064141 558.906989 C2598.436455 564.353522 2597.357598 569.715827 2597.885186 575.266730 C2599.120293 588.269782 2599.381768 601.364509 2600.097832 614.418830 C2600.164971 615.641120 2600.663994 616.839728 2600.962334 618.049445 C2602.336114 617.411872 2604.302422 617.151740 2604.987725 616.075812 C2609.501153 608.986945 2613.851494 601.786628 2618.011407 594.483771 C2619.676934 591.559333 2620.791924 588.309821 2622.042901 585.162604 C2628.071953 569.993171 2633.857110 554.722785 2640.133965 539.656989 C2644.899590 528.218024 2648.392998 516.391364 2652.118584 504.616584 C2653.912530 498.947761 2658.876641 496.229621 2663.936211 494.267463 C2667.622735 492.838019 2672.572442 495.761359 2673.981133 499.937018 C2675.076104 503.182990 2675.801201 506.666022 2675.997246 510.083503 C2676.828057 524.578742 2676.630791 539.176887 2678.278252 553.569221 C2679.995782 568.573127 2682.026055 583.806891 2686.444512 598.162848 C2691.071465 613.195807 2700.608330 626.213263 2713.190362 635.896735 C2721.153496 642.025275 2730.787041 641.450812 2740.119561 637.177741 C2754.044854 630.802131 2763.981621 619.690314 2773.938164 608.766486 C2779.660088 602.488898 2783.544610 594.537848 2789.261651 588.254767 C2794.930352 582.025275 2797.053643 573.826056 2802.220635 567.610480 C2806.302910 562.699958 2805.497491 557.790900 2803.809991 553.067267 C2798.214776 537.407477 2794.146416 521.491340 2791.874932 504.965827 C2790.302422 493.525275 2789.787041 481.839362 2787.512383 470.710334 C2785.564141 461.179938 2788.732842 451.262336 2784.159844 442.207282 C2783.489190 440.879401 2783.853203 438.888312 2784.101739 437.259528 C2785.645440 427.134772 2785.035332 416.766364 2783.686211 406.963996 C2780.596123 384.516120 2782.481133 362.125983 2782.255791 339.739264 C2782.042657 318.576911 2782.551690 297.321662 2784.462578 276.263373 C2785.286797 267.177497 2785.173516 258.073920 2786.201104 249.071723 C2787.673516 236.173469 2790.084405 223.383002 2792.040215 210.538215 C2792.238701 209.235175 2792.074639 207.875617 2792.065606 206.542365 C2791.961114 190.765998 2795.345879 175.466193 2797.796807 159.985663 C2799.917412 146.590888 2804.210625 133.503608 2805.477471 120.286323 C2806.856866 105.894660 2813.945977 93.110358 2814.322442 78.663947 C2814.434502 74.352790 2818.331231 70.269172 2819.231377 65.825568 C2821.974297 52.282844 2828.965264 40.496772 2834.126885 27.967292 C2837.892022 18.827949 2844.539727 11.621406 2851.967217 5.415168 C2863.833672 -4.499810 2879.776299 -0.135125 2888.370049 13.105231 C2897.756524 27.566840 2902.612725 43.735175 2905.442559 59.933295 C2907.621758 72.405463 2909.811211 85.207709 2910.817315 98.108222 C2911.703301 109.469794 2909.565606 121.396552 2913.953789 132.553779 C2914.748467 134.574470 2914.066826 137.175849 2914.066826 139.509162 C2914.066826 146.509040 2914.066826 153.508979 2914.066826 160.508857 C2914.066826 167.508735 2913.865410 174.516059 2914.124444 181.506354 C2914.376153 188.297126 2913.905205 195.068305 2914.036553 201.851935 C2914.172051 208.849189 2914.066826 215.851081 2914.066826 222.850959 C2914.066826 229.850837 2914.298760 236.860175 2914.014825 243.848517 C2913.538262 255.579902 2913.188409 267.346320 2911.950127 279.009223 C2910.440117 293.232551 2908.225518 307.388923 2906.033623 321.530524 C2901.516045 350.680549 2895.499932 379.576606 2887.826836 408.013556 C2881.476739 431.546638 2873.264336 454.594611 2865.389092 477.691169 C2861.518487 489.043464 2856.160821 499.884162 2852.168877 511.200690 C2847.737969 523.760505 2842.743340 535.974982 2836.178399 547.599616 C2833.503350 552.335578 2832.430596 557.619758 2835.772393 563.021979 C2837.520196 565.848151 2837.565606 569.830939 2839.545830 572.388679 C2843.731866 577.795539 2851.588799 577.821418 2857.067071 571.924079 C2864.504815 563.917609 2871.514336 555.432136 2877.957940 546.604987 C2885.133233 536.775153 2889.361504 525.135749 2897.228203 515.515998 C2901.550713 510.230597 2902.879326 502.595832 2906.124444 496.312995 C2919.319512 470.764899 2932.164971 445.006232 2946.386407 420.035285 C2951.132256 411.702033 2953.727471 401.703498 2961.835381 395.385322 C2965.503350 382.001288 2976.479668 373.044562 2982.722344 361.078681 C2987.387627 352.136725 2995.899590 345.281928 3002.055840 337.018744 C3011.452569 324.406379 3021.777764 312.657905 3033.315850 302.038337 C3041.389092 294.607795 3049.764825 287.433417 3058.536309 280.851752 C3070.569756 271.822211 3087.552422 271.929633 3100.257500 280.132880 C3109.423516 286.051093 3112.980889 295.816291 3115.806328 305.195807 C3121.316826 323.487678 3122.556817 342.526862 3122.072442 361.631171 C3121.828789 371.243354 3121.210381 381.051520 3121.538994 390.414130 C3121.863213 399.658210 3118.543633 408.704230 3120.402032 417.416388 C3122.169366 425.703132 3116.746758 434.210456 3122.066826 442.002204 C3117.721123 459.587409 3120.736748 477.452399 3120.186944 495.176764 C3119.639336 512.826056 3120.090996 530.505744 3120.059746 548.172126 C3120.030694 564.515265 3122.465264 580.663215 3123.648614 596.888068 C3124.589532 609.793830 3128.118340 621.654670 3132.259698 633.475715 C3134.328545 639.380988 3136.043389 646.481940 3143.555596 648.543708 C3145.692559 649.130012 3148.481133 649.598273 3150.297295 648.722907 C3160.783867 643.668342 3169.690117 637.142219 3177.888116 628.162971 C3191.621026 613.120978 3202.310479 596.015998 3214.843438 580.221930 C3218.698907 575.363410 3221.602227 569.734748 3224.814141 564.382453 C3231.698418 552.910041 3238.407159 541.331672 3245.357354 529.899543 C3254.882989 514.231330 3262.674248 497.630256 3272.582940 482.099860 C3282.337578 466.810798 3289.520684 449.865485 3297.626153 433.544684 C3304.622735 419.456428 3312.058770 405.521857 3317.991875 390.985236 C3326.603936 369.885383 3337.377617 349.729865 3344.331475 327.870124 C3347.850762 316.807197 3354.981621 306.924079 3358.880791 295.940131 C3361.489922 288.590156 3363.898858 281.267035 3368.183770 274.805549 C3370.150323 271.839850 3372.979424 268.928168 3376.103448 267.351935 C3383.486016 263.627021 3388.575860 265.948066 3392.430352 273.453925 C3394.790703 278.050178 3396.121514 282.712470 3396.118096 287.951728 C3396.049737 393.949958 3396.125664 499.948371 3395.979180 605.946418 C3395.963799 617.004279 3394.713799 628.059455 3394.103203 639.119513 C3394.053887 640.010138 3394.521172 640.929450 3394.748223 641.835334 C3395.455254 641.340461 3396.222100 640.912848 3396.861016 640.341437 C3416.019463 623.200324 3437.370049 609.396857 3459.824639 596.899665 C3469.295586 591.628425 3478.953789 586.468146 3488.465752 581.326789 C3503.847588 573.012946 3520.741631 567.552009 3536.573662 559.998542 C3548.024834 554.535529 3560.106621 550.745734 3571.559014 545.470222 C3584.779717 539.379767 3598.507012 534.793220 3612.246758 530.234382 C3626.925225 525.363898 3641.768487 520.968879 3656.643731 516.730109 C3660.016778 515.768928 3663.978203 515.605597 3667.366387 516.386725 C3669.855645 516.960578 3672.989678 519.294929 3673.741387 521.544684 C3674.469170 523.722663 3673.355157 527.885016 3671.574151 529.250373 C3667.721123 532.204719 3663.144463 534.919929 3658.469659 535.957892 C3646.872979 538.533210 3636.306817 543.648078 3625.351983 547.832648 C3603.747735 556.084968 3582.406914 564.895881 3561.750420 575.365973 C3549.382256 581.634894 3536.637383 587.156501 3524.117852 593.131965 C3513.815362 598.048957 3503.258477 602.561652 3493.425225 608.300788 C3481.261895 615.400153 3469.403252 623.130988 3458.006280 631.406135 C3442.768975 642.469367 3426.277032 651.878791 3413.143731 665.816169 C3408.403741 670.846442 3401.997002 674.270637 3396.592705 678.721808 C3392.522393 682.074347 3390.079034 686.227912 3389.952569 691.981940 C3389.628838 706.713141 3389.291924 721.485114 3387.891778 736.138679 C3386.752862 748.058967 3383.819512 759.796760 3382.153252 771.681525 C3381.032647 779.675055 3380.426201 787.773078 3380.150567 795.843513 C3379.854912 804.500739 3377.497735 812.833259 3376.549004 821.237800 C3375.472344 830.780524 3373.542657 840.103278 3372.008721 849.516486 C3370.288262 860.073493 3367.974785 870.533210 3366.203545 881.083014 C3365.197442 887.076545 3364.860772 893.179328 3364.025078 899.205573 C3363.596367 902.295783 3362.776787 905.336066 3362.059258 908.381110 C3359.412041 919.614264 3356.758965 930.846320 3354.044121 942.063117 C3353.536797 944.158820 3352.638848 946.157722 3352.082207 948.244269 C3348.717950 960.854987 3345.860284 973.625373 3341.892022 986.041388 C3339.565362 993.320075 3334.595635 999.771491 3332.404961 1007.072272 C3328.491875 1020.112189 3319.968438 1030.207892 3312.150811 1040.617438 C3308.300957 1045.743537 3302.161553 1049.699836 3296.278985 1052.610602 C3288.949639 1056.236945 3280.688409 1056.411628 3272.743828 1053.783576 C3263.357354 1050.678840 3255.652520 1045.435187 3249.946709 1036.975104 C3245.031670 1029.687018 3241.474785 1021.851935 3238.041924 1013.875983 C3237.554131 1012.741828 3236.029717 1011.641242 3236.174981 1010.710578 C3237.719659 1000.805060 3233.256035 991.776618 3231.672539 982.417609 C3229.840020 971.585334 3228.955987 960.671638 3230.460869 950.236823 C3232.648369 935.071052 3229.609551 919.249763 3236.066826 904.666022 C3234.571709 895.455695 3238.916436 887.131232 3240.260918 878.353156 C3241.280450 871.698127 3244.017266 865.297980 3246.078789 858.812751 C3248.989922 849.653449 3251.621758 840.419196 3254.229912 831.169196 C3256.052910 824.702643 3259.297051 818.619269 3262.090508 812.447883 C3266.411553 802.901130 3270.774590 793.369513 3275.358819 783.947638 C3277.124200 780.319831 3279.922051 777.183845 3281.600518 773.526130 C3289.411065 756.506110 3301.465752 742.328620 3311.843682 726.997687 C3321.584649 712.607795 3334.661309 701.329841 3345.110039 687.768439 C3350.197198 681.165900 3357.954766 675.970954 3358.772149 666.485602 C3358.987969 663.982917 3359.951104 661.523566 3360.005547 659.031867 C3360.173028 651.369025 3359.214776 643.583625 3360.242852 636.057624 C3362.435235 620.009284 3361.118584 603.875617 3362.426934 587.892219 C3363.023369 580.604499 3364.350030 573.793097 3362.327080 566.448371 C3361.412530 563.128425 3363.330742 559.037971 3363.913262 555.289191 C3364.063164 554.324347 3364.427666 553.082282 3364.004571 552.386725 C3359.434258 544.878180 3364.662530 537.480720 3364.181573 529.998664 C3363.669854 522.031623 3364.780938 513.924445 3363.877373 506.028083 C3362.861504 497.152717 3364.158379 488.444953 3364.083916 479.663459 C3364.007500 470.664191 3364.066826 461.663947 3364.066826 452.664069 C3364.066826 443.330939 3364.066826 433.997687 3364.066826 424.664557 C3364.066826 415.664680 3363.057061 406.522834 3364.297784 397.697394 C3366.276299 383.622138 3365.823662 369.574409 3366.154473 355.496100 C3366.250176 351.425544 3367.458184 347.387885 3368.020440 343.316291 C3368.141534 342.441169 3367.675225 341.484992 3367.479180 340.566169 C3367.007744 341.429328 3366.485284 342.268928 3366.072930 343.159553 C3362.060235 351.830024 3357.908135 360.440558 3354.114434 369.206244 C3350.813653 376.834540 3348.222588 384.776496 3344.788262 392.339118 C3338.414239 406.374518 3331.758477 420.285163 3325.028741 434.154670 C3315.464043 453.866096 3307.074639 474.327521 3295.603936 492.873176 C3287.556573 505.884894 3281.404961 519.873908 3272.892022 532.599982 C3266.190606 542.618049 3260.987969 553.634040 3255.041924 564.162848 C3246.092461 580.009284 3235.971612 595.059821 3225.780205 610.153937 C3214.373711 627.047736 3201.078301 642.099982 3187.776299 657.252814 C3179.758233 666.386603 3169.095391 672.471198 3157.982842 676.897956 C3149.476739 680.286506 3140.413018 678.523566 3131.817315 674.973517 C3118.443047 669.449836 3111.293633 658.369880 3106.218682 645.881354 C3102.382256 636.441291 3098.208428 627.005012 3097.323662 616.529059 C3096.795586 610.277228 3095.758965 603.944465 3093.952080 597.948981 C3089.749932 584.003547 3091.343682 569.381476 3088.424248 555.290290 C3087.780694 552.183356 3090.225518 548.519538 3089.901543 545.245368 C3089.291436 539.074470 3089.790215 533.007209 3090.015069 526.884162 C3090.247246 520.559455 3090.066826 514.219733 3090.066826 507.886481 C3090.066826 501.219977 3089.910088 494.548957 3090.096123 487.887702 C3090.683770 466.828620 3090.209893 445.643317 3092.486992 424.761970 C3093.993828 410.944953 3092.506524 397.149787 3094.351983 383.584113 C3095.727227 373.473151 3095.911553 363.468513 3096.081963 353.374518 C3096.349541 337.569037 3093.589532 322.160163 3090.034844 306.867805 C3088.021172 298.205634 3078.236260 295.523993 3069.965752 301.269233 C3054.942071 311.705512 3042.057061 324.242011 3030.412285 338.457282 C3018.036797 353.564399 3005.363213 368.403510 2994.590752 384.708259 C2983.928399 400.846564 2973.376885 417.009040 2963.801446 433.901862 C2946.697930 464.075324 2932.099053 495.481452 2915.958672 526.111335 C2907.854668 541.490851 2899.944268 557.286506 2889.466729 570.999518 C2881.377617 581.585822 2872.602959 592.238532 2859.336846 598.489264 C2842.140801 606.591804 2832.063409 599.451911 2820.974053 589.865119 C2817.063653 586.484504 2816.281670 585.827033 2814.062676 589.339728 C2809.554375 596.475471 2804.952813 603.552985 2800.512871 610.730720 C2790.902520 626.267219 2777.921807 639.091804 2764.083428 650.349372 C2754.234063 658.361823 2741.811211 664.551154 2727.977715 664.092170 C2710.415459 663.509528 2695.803887 657.408210 2684.966729 642.463263 C2679.762383 635.286628 2673.080987 629.279426 2669.567559 620.768317 C2665.532403 610.994025 2660.005791 601.899665 2659.851739 590.707282 C2659.781426 585.575690 2657.536797 580.435065 2656.033135 575.371467 C2654.007500 568.550422 2656.853936 561.789313 2656.021172 555.024299 C2655.735284 552.700568 2654.919854 550.442145 2654.346123 548.153937 C2653.278252 550.128547 2652.011651 552.022590 2651.174248 554.090461 C2643.429619 573.216071 2636.036065 592.489875 2627.931573 611.460456 C2624.660821 619.116340 2620.455498 626.537971 2615.616631 633.309333 C2611.320244 639.322272 2604.438653 642.559699 2597.206719 644.039802 C2592.369317 645.029914 2588.135674 642.303840 2585.667412 638.520148 C2581.968438 632.849006 2577.663262 626.868781 2576.385674 620.467414 C2573.591973 606.468268 2571.243096 592.359870 2569.655450 578.062629 C2566.976250 553.936652 2570.166680 529.776862 2567.671807 505.887824 C2565.986016 489.743049 2567.508721 473.651130 2565.805108 457.703742 C2564.642022 446.817512 2564.056328 435.690925 2560.264336 425.090949 C2559.073174 421.761481 2558.432549 421.059699 2555.990655 423.312629 C2553.840996 425.296027 2551.856377 427.515265 2550.094903 429.853522 C2539.546075 443.858527 2531.395440 459.402228 2522.960137 474.637336 C2511.611748 495.133185 2501.976739 516.577765 2491.605889 537.614875 C2486.420586 548.133552 2481.213067 558.641364 2476.055840 569.173591 C2470.534600 580.448127 2463.636895 590.820441 2456.441826 601.102668 C2452.197686 607.167975 2445.355889 606.714972 2440.170098 610.064826 C2439.788994 610.311042 2438.559258 609.331794 2437.770928 608.846442 C2430.287041 604.239020 2423.915459 599.032355 2421.944024 589.554084 C2419.090752 575.835334 2415.077325 562.358039 2412.202813 548.642951 C2410.757744 541.748908 2411.107842 534.497931 2410.001397 527.510505 C2405.439629 498.701789 2403.851006 469.256476 2392.106866 441.940314 C2391.743828 441.095710 2392.367364 439.645026 2391.859795 439.075812 C2389.691094 436.645881 2387.197442 432.574347 2384.961358 432.661750 C2382.569024 432.755378 2379.776055 436.511481 2378.129815 439.252936 C2372.543633 448.555793 2366.889825 457.876472 2362.170830 467.630134 C2352.492852 487.633552 2345.060723 508.598151 2338.212090 529.684699 C2329.608819 556.174567 2321.969659 582.980597 2314.110039 609.707648 C2310.432061 622.214118 2307.336358 634.891120 2303.728692 647.419318 C2302.122735 652.997443 2296.900567 656.445319 2291.568291 656.154059 C2287.185723 655.914557 2282.640801 650.665168 2282.118584 644.550788 C2281.260918 634.510138 2280.552666 624.448859 2280.127129 614.381598 C2279.817803 607.061408 2280.192803 599.715217 2280.044854 592.385016 C2279.430596 561.993903 2279.054864 531.592536 2277.934746 501.219245 C2277.351494 485.410773 2275.554131 469.637702 2274.013848 453.877204 C2272.957696 443.069221 2272.263360 432.110114 2269.823174 421.585944 C2267.394463 411.109504 2266.009698 400.185981 2260.142998 390.625373 C2254.955254 382.170722 2249.211358 381.439033 2244.109551 389.520209 C2234.344170 404.988471 2226.455254 421.365851 2219.954522 438.508674 C2213.296563 456.066169 2205.266534 473.106208 2198.710381 490.698371 C2192.568047 507.180427 2187.474785 524.058356 2182.090752 540.816901 C2175.472100 561.417609 2168.733330 581.987555 2162.605645 602.735847 C2157.612481 619.641608 2151.454766 636.206183 2146.621270 653.077643 C2139.286065 678.681037 2130.471612 703.748054 2121.902276 728.896979 C2113.757256 752.799933 2104.474785 776.326789 2095.268487 799.853156 C2087.863213 818.777228 2080.513848 837.778205 2071.865166 856.145026 C2063.832451 873.204230 2053.901299 889.359382 2045.197686 906.115851 C2036.919121 922.053718 2026.317559 936.688972 2013.598076 948.746345 C2002.252862 959.500861 1988.557549 968.870734 1970.872491 968.333381 C1961.640557 968.052863 1954.170342 964.469123 1947.840996 958.718268 C1935.383477 947.399299 1928.174492 933.181159 1923.591485 916.768073 C1920.828545 906.873664 1918.279473 896.860236 1916.409844 886.885261 C1914.264336 875.438849 1914.931817 863.486335 1913.992852 851.784553 C1913.426446 844.723762 1916.226983 837.334479 1912.066826 830.607429 C1915.282891 825.180549 1913.537285 819.177985 1914.124688 813.441901 C1914.475030 810.019050 1915.886162 806.668952 1915.983086 803.262214 C1916.412041 788.191901 1917.477715 773.357429 1921.800469 758.672370 C1924.556328 749.310187 1924.360772 739.119758 1926.158867 729.425178 C1928.555352 716.503058 1931.261651 703.615607 1934.476983 690.875373 C1937.200127 680.085700 1940.891289 669.542975 1944.052666 658.860969 C1948.184502 644.899299 1951.747735 630.749396 1956.407403 616.968757 C1962.526055 598.872809 1969.492608 581.064094 1976.035088 563.110114 C1976.606866 561.541022 1976.733575 559.809821 1977.566826 557.653937 M2810.066826 363.153937 C2810.733330 381.537299 2811.414727 399.920234 2812.052178 418.304572 C2812.155938 421.299689 2811.807305 424.330573 2812.138848 427.292121 C2812.484795 430.383796 2814.414239 433.605964 2813.873223 436.430427 C2812.362725 444.314582 2813.899346 452.114509 2814.381035 459.780158 C2815.296075 474.346686 2818.161065 488.784553 2820.026055 503.300178 C2820.928643 510.323981 2821.356866 517.407844 2822.141289 524.448859 C2822.210869 525.076789 2823.307793 526.010749 2823.959405 526.037971 C2824.641778 526.066657 2825.869317 525.274177 2825.991143 524.666633 C2828.038018 514.467414 2834.383721 506.103644 2837.930840 496.615485 C2846.241631 474.385261 2854.486504 452.089240 2861.530205 429.438117 C2867.889580 408.988044 2872.894463 388.098212 2877.968926 367.273627 C2881.315362 353.541755 2884.838067 339.876044 2886.332696 325.658393 C2887.770928 311.973395 2891.794366 298.581061 2893.948662 284.944343 C2895.847344 272.924750 2897.030938 260.768500 2897.986260 248.629767 C2899.011162 235.606513 2900.111748 222.522773 2899.921319 209.483832 C2899.500664 180.656562 2901.827325 151.786689 2898.198418 122.988471 C2896.734551 111.370246 2896.731866 99.567756 2896.071465 87.848701 C2896.034112 87.184394 2896.189385 86.489020 2896.048760 85.853766 C2892.738701 70.902961 2889.877129 55.828498 2885.852471 41.071296 C2884.018242 34.346137 2880.323907 27.969733 2876.578057 21.996467 C2874.908867 19.334662 2870.890069 16.385138 2868.191582 16.610297 C2865.317071 16.850104 2862.185723 19.011176 2859.728936 22.770270 C2849.854424 37.881293 2843.965264 54.310615 2840.051201 71.678779 C2839.093682 75.926398 2837.808526 80.101386 2836.891778 84.356635 C2833.649834 99.406684 2829.109307 114.198127 2828.037041 129.682746 C2827.547539 136.749091 2828.201836 144.371589 2825.706231 150.704841 C2822.367608 159.176520 2822.115166 167.531867 2822.067315 176.178534 C2822.058037 177.842292 2822.584405 179.742988 2821.962334 181.130012 C2818.700860 188.402656 2818.604668 196.298652 2818.295586 203.860908 C2817.674248 219.067878 2816.143731 234.110175 2814.253838 249.198005 C2812.675225 261.802070 2812.602471 274.606147 2812.117608 287.331428 C2811.838555 294.651008 2811.691094 302.014716 2812.173760 309.312995 C2812.646416 316.456550 2808.957451 323.524909 2812.007256 330.678718 C2812.332207 331.441108 2811.832451 332.555305 2811.714776 333.506171 C2811.165703 337.943366 2808.792657 343.311347 2810.476006 346.608771 C2813.304864 352.150275 2809.719170 356.375190 2810.066826 363.153937 M3282.066826 849.153937 C3280.066826 853.987189 3276.865655 858.707038 3276.395196 863.684821 C3275.896416 868.963752 3274.147881 873.344855 3272.213311 878.042487 C3270.221123 882.880378 3269.187676 888.156501 3268.118096 893.320319 C3266.585625 900.719245 3266.236504 908.475837 3263.821221 915.546760 C3261.602471 922.043097 3263.204278 928.516486 3261.910576 934.751472 C3260.030205 943.813972 3257.763848 952.793342 3258.148614 962.096686 C3258.358575 967.167853 3260.237969 972.261847 3259.898125 977.245490 C3259.115655 988.721564 3262.790215 999.166877 3266.120293 1009.722541 C3268.159112 1016.185431 3271.879571 1021.666022 3277.040215 1026.198981 C3280.258965 1029.026130 3283.636895 1029.251105 3286.517510 1026.529426 C3290.026055 1023.215217 3293.211358 1019.454108 3296.010430 1015.513068 C3304.329034 1003.801276 3308.869561 990.223029 3313.914483 976.993293 C3317.322930 968.055060 3319.384453 958.592292 3321.876641 949.318000 C3326.830742 930.882453 3331.910332 912.502814 3334.223565 893.439582 C3335.308037 884.499152 3339.102959 875.842536 3339.797539 866.911628 C3340.618584 856.351325 3345.295098 846.541999 3344.333184 835.596442 C3343.730401 828.738776 3345.262871 821.557624 3346.681817 814.696296 C3348.092461 807.875007 3350.314141 801.241828 3350.089532 794.145148 C3349.963311 790.152839 3348.828301 785.583625 3350.345391 782.284919 C3352.874200 776.786872 3351.483819 771.397101 3352.075371 766.001960 C3352.703057 760.279426 3353.881768 754.569831 3353.946953 748.844733 C3354.031670 741.418586 3354.626397 734.250129 3357.714043 727.374885 C3358.290215 726.092780 3357.684746 724.279914 3357.624688 722.711799 C3356.447198 723.517219 3355.027032 724.118171 3354.141778 725.169562 C3352.103692 727.589606 3350.581719 730.475959 3348.399102 732.737067 C3336.859551 744.691413 3329.371026 759.485236 3320.203789 773.069709 C3309.116631 789.499640 3300.771660 807.547858 3291.991387 825.292121 C3288.443780 832.460944 3285.361016 839.859748 3282.066826 849.153937 z"/><path class="selected"  fill="#000000" opacity="1.000000" stroke="none" 
 	d="
M146.066826 694.153937 C145.302849 688.465339 147.833153 683.338263 144.187585 679.033210 C149.618554 674.189826 142.776757 669.683234 143.659966 664.570563 C144.370751 660.456305 140.743157 655.782844 140.334740 651.241218 C139.681573 643.978034 140.121606 636.618171 140.040703 629.299811 C140.030541 628.381232 139.664178 627.466437 139.462823 626.549933 C138.991479 627.423957 138.622399 628.374640 138.033196 629.160285 C130.894921 638.680182 124.495232 648.556037 119.424615 659.443122 C116.557152 665.599982 111.125725 670.528693 107.085488 676.179694 C95.698495 692.106330 85.226372 708.763801 72.912972 723.931281 C58.668694 741.477180 44.304467 759.150031 27.002114 773.872077 C21.825020 778.277106 15.303765 782.490851 7.364968 778.509406 C-1.232063 774.197883 -2.483940 762.802863 4.567055 756.482429 C11.959405 749.856086 18.962380 742.743537 25.649712 735.401008 C30.124688 730.487433 33.752099 724.802009 37.758782 719.462043 C45.772179 708.781989 54.553551 698.583747 61.624093 687.312263 C73.072243 669.062140 85.517953 651.467658 96.247780 632.723395 C107.038613 613.872565 117.759514 594.980109 128.583642 576.175788 C134.260766 566.312995 134.073022 558.306647 132.398705 548.138923 C130.341271 535.644782 130.499718 522.753791 130.141747 510.021979 C129.861596 500.057502 128.812371 490.282599 126.140893 480.661994 C125.625329 478.805182 126.066826 476.682746 126.066826 474.682868 C126.066826 462.683478 126.210930 450.681281 125.975121 438.686530 C125.908227 435.284308 124.032555 431.854377 124.268426 428.527961 C124.493981 425.347297 127.989159 422.507941 124.270348 418.965339 C123.591241 418.318366 126.054284 415.020759 125.946709 413.006476 C125.604516 406.599006 124.698998 400.222968 124.076745 393.828437 C123.483056 387.726813 122.975335 381.616767 122.412011 375.512092 C122.385033 375.219550 121.999108 374.824225 122.093468 374.675788 C128.126061 365.184943 118.179497 354.712531 123.921105 345.059211 C124.946190 343.335700 124.066826 340.479438 124.066826 338.146247 C124.066826 321.147101 123.947899 304.146735 124.132958 287.149604 C124.195580 281.399787 122.712212 275.431708 125.983544 269.928779 C126.569176 268.943671 126.332238 267.246711 126.024163 265.988898 C123.868523 257.188605 125.016259 248.095771 126.467065 239.706000 C129.200921 223.896613 127.128075 207.810309 131.536187 191.976996 C134.262902 182.182929 135.664666 171.717658 137.916985 161.578437 C140.331597 150.708503 144.804772 140.359626 151.520074 132.330939 C165.799767 115.258368 188.571099 111.630744 207.150048 128.376410 C212.152245 132.885138 217.136498 137.243293 220.848565 143.424140 C226.171471 152.287116 230.088830 161.702277 233.841424 171.096808 C239.291955 184.741950 240.676171 199.639960 244.443688 213.761664 C249.096764 231.202826 248.859612 248.748115 250.414940 266.343268 C251.910760 283.265693 248.279717 299.934333 250.066826 316.714484 C245.282403 327.038276 250.759667 338.916144 244.436608 349.449347 C241.587273 354.195991 243.174462 361.429877 241.976098 367.379706 C239.385308 380.243110 236.913445 393.184882 233.270348 405.769599 C227.342095 426.248054 220.600640 446.494025 214.022607 466.779914 C211.552239 474.398322 208.969292 482.025031 205.750664 489.345954 C200.169243 502.041144 193.983544 514.469245 188.188195 527.072394 C184.972161 534.066169 181.302270 540.977912 179.198235 548.316901 C177.482018 554.303229 175.792565 560.725348 178.010003 567.238776 C179.011864 570.181769 180.002953 573.340827 179.965996 576.389289 C179.770287 592.533698 182.252892 608.285041 185.982384 623.922858 C186.584099 626.445807 186.085961 629.235847 186.063531 631.902228 C185.968957 643.134650 187.371972 654.108527 191.506890 664.646247 C191.958977 665.798224 192.047051 667.154304 192.042870 668.414802 C192.002862 680.468146 192.557946 692.442878 195.984154 704.123420 C196.166619 704.745490 194.725670 705.759162 194.797265 706.519294 C194.889947 707.502936 195.744164 708.414802 196.270501 709.357551 C196.869286 708.803229 197.697472 708.361701 198.033318 707.678107 C206.742394 689.956550 215.257073 672.137824 224.134362 654.501472 C227.897790 647.024543 232.488488 639.968635 236.550835 632.636970 C241.802636 623.158454 246.364312 613.251716 252.186089 604.145026 C262.263573 588.381232 270.213372 571.378791 280.990410 556.016242 C285.401208 549.728888 288.358880 542.430793 292.080010 535.648810 C298.043481 524.779792 302.634026 512.715705 310.512993 503.462653 C318.487267 494.097907 320.132867 481.143805 329.902825 473.317878 C336.277520 455.682502 347.288232 440.514655 356.030602 424.139289 C361.557915 413.785895 366.919366 403.333014 371.949151 392.732123 C373.384698 389.706611 373.579278 386.030524 374.023369 382.611335 C374.638177 377.878425 373.232659 373.076179 375.816888 368.310615 C376.912713 366.289863 375.149895 362.789924 374.893609 359.943610 C374.672417 357.487067 374.582146 354.994575 374.725396 352.534980 C374.952141 348.641364 375.807427 344.749946 375.687981 340.879523 C375.550835 336.437446 373.199761 331.597419 374.348321 327.673041 C377.302971 317.577521 375.473138 307.480903 376.037102 297.419074 C376.886834 282.257697 378.043755 267.126960 378.294427 251.912238 C378.488824 240.113105 380.520257 228.318671 382.116082 216.573981 C384.596306 198.320930 386.601494 179.945807 390.342217 161.941230 C392.918511 149.541755 396.514092 137.189399 399.476311 124.886115 C402.475701 112.428351 406.901482 100.505500 410.178460 88.202277 C414.012383 73.808295 422.137261 61.372931 431.445428 50.104560 C441.203484 38.291511 461.051812 43.591254 465.810418 59.467170 C469.139336 70.573127 470.565972 82.341559 471.893731 93.922919 C472.798943 101.818732 472.616021 109.947638 471.959832 117.893012 C470.252862 138.563483 469.686883 159.271369 464.521111 179.699592 C461.856377 190.237861 460.584283 201.335456 458.179742 212.122809 C453.713494 232.159430 448.146599 251.876227 441.767327 271.349494 C434.853387 292.454413 427.509820 313.424567 419.990594 334.322883 C416.136223 345.035346 411.546258 355.486396 407.182305 366.011420 C404.100945 373.443061 400.118706 380.275763 403.713921 389.204841 C405.371941 393.322822 402.924798 398.965522 402.920708 403.917365 C402.916741 408.746100 403.759087 413.569098 404.046807 418.405524 C404.830681 431.577399 405.057488 444.797980 408.012444 457.757697 C408.281975 458.939948 408.106438 460.444709 407.593377 461.546149 C405.432610 466.184943 404.959466 470.609992 407.933343 475.163337 C408.545464 476.100593 408.078423 477.760749 408.062615 479.087165 C407.900750 492.683112 408.214471 506.207648 411.908929 519.472053 C412.392693 521.208747 409.640069 523.961310 410.242119 525.532233 C414.531304 536.722785 409.465142 548.804816 413.895562 560.008430 C415.035393 562.890754 414.352715 566.639289 413.979729 569.930182 C413.659173 572.758674 414.681634 575.379767 414.534112 578.306281 C414.137993 586.167243 416.000603 594.144050 416.992547 602.071662 C417.308159 604.594489 418.019463 607.107795 418.012749 609.624030 C417.983330 620.588996 419.826836 631.265021 421.911431 641.995734 C423.381463 649.563117 422.907036 657.494513 424.175347 665.117805 C426.417412 678.593146 426.701592 692.305793 429.883843 705.691779 C431.582268 712.836677 431.216180 720.450934 432.109429 727.813605 C433.497430 739.255134 437.455987 750.389777 436.143792 762.168464 C436.077141 762.766608 437.127923 763.489264 437.658379 764.153937 C438.461175 763.428107 439.854729 762.791022 439.978814 761.963508 C442.101372 747.811042 443.770745 733.584479 446.182305 719.484138 C447.541497 711.536750 450.139336 703.806281 452.050957 695.947028 C455.441155 682.009162 458.247002 667.908454 462.182671 654.128669 C467.871453 634.210944 473.838555 614.340949 480.647088 594.784919 C486.412774 578.224372 493.529656 562.133552 500.076836 545.846198 C501.340020 542.703742 502.511284 539.494880 504.102837 536.518805 C514.335076 517.385383 523.148614 497.581428 535.215142 479.300910 C542.375054 468.453864 548.473809 456.695319 556.179742 446.126960 C564.666802 434.487189 573.732476 423.230964 583.117669 412.298347 C589.358513 405.028449 596.369866 398.365485 603.454156 391.887885 C612.558159 383.563544 622.635857 376.576850 633.869256 371.252997 C640.884942 367.928046 648.344903 367.123969 655.544854 368.399482 C663.161248 369.748908 668.982171 375.535346 671.194451 382.624152 C674.641289 393.668891 675.961053 405.189643 672.541009 416.814582 C671.122674 421.635627 670.676140 426.775031 670.100823 431.805427 C668.421807 446.487922 663.051690 460.295173 660.107598 474.665168 C655.946831 494.974372 651.842766 515.300422 648.160332 535.699714 C646.291985 546.050300 646.642510 556.939338 643.730767 566.926276 C640.580498 577.731208 644.632134 588.909919 640.287346 599.456428 C639.424859 601.550300 642.028496 604.832526 641.944695 607.532966 C641.725152 614.609015 642.640496 621.625617 640.445122 628.822516 C639.200616 632.902595 638.521844 638.348639 641.679619 643.086799 C642.917718 644.944587 642.076043 648.238532 642.054375 650.877448 C641.935357 665.351203 645.869988 679.261481 647.730279 693.434089 C650.704278 716.090705 663.247124 734.415534 672.066826 754.445075 C682.386712 762.404670 690.006035 774.586799 705.487725 774.243537 C723.577080 773.842414 729.454339 772.676642 743.682366 761.670417 C749.598687 757.093879 755.370904 752.668342 760.597710 747.099738 C769.246453 737.885627 772.473015 726.527717 775.563470 715.220099 C776.970757 710.070930 774.453484 703.922980 774.152154 698.205085 C773.972527 694.796760 775.256951 691.895881 778.736687 690.093513 C784.904900 686.898810 792.592278 689.411384 793.922417 696.154548 C795.961785 706.493293 797.031975 716.672248 794.488091 727.565925 C791.968133 738.357062 789.535271 748.937385 783.126824 757.900153 C773.419427 771.476813 763.389825 784.777961 748.211785 793.240241 C739.728264 797.969855 731.617669 803.036384 721.717705 804.196296 C718.296258 804.597175 714.937432 805.516364 711.540215 806.145637 C708.127068 806.777961 704.713982 807.433722 701.276909 807.903815 C699.333245 808.169684 697.174126 808.620490 695.397576 808.068610 C681.424004 803.728522 667.559441 800.375861 655.885857 789.610724 C638.419854 773.504035 629.451531 752.785651 621.475335 731.851447 C616.210076 718.032477 614.260979 702.694709 611.475091 687.844977 C606.681023 662.290900 608.200738 636.847419 608.457085 611.398810 C608.581536 599.041511 608.925286 586.365729 611.892571 574.011970 C613.531548 567.188727 614.272393 559.888434 613.857537 552.895881 C613.270623 543.004401 617.150445 534.130012 618.593255 524.735480 C620.020989 515.438849 622.197930 506.256843 624.071282 497.029548 C625.381280 490.577521 626.469842 484.065314 628.129326 477.703010 C630.552910 468.411262 633.595269 459.280890 636.010369 449.987311 C638.288323 441.221198 641.293328 432.705817 642.369683 423.524299 C643.192803 416.503669 645.505303 409.515021 647.131035 402.523627 C648.281060 397.577826 646.672295 396.655829 643.119012 396.266059 C641.378960 396.075263 639.249749 396.651801 637.743951 397.595099 C631.627862 401.427009 625.119805 404.901618 619.783196 409.659797 C603.016839 424.608771 588.848138 441.936164 576.642632 460.734992 C566.978326 475.619880 557.612725 490.755866 549.118706 506.328010 C539.516106 523.932868 530.638543 541.965827 522.209221 560.166144 C516.783745 571.880988 512.474602 584.140754 508.143365 596.326301 C504.212395 607.385383 500.471367 618.553962 497.487237 629.895514 C494.485284 641.304816 488.136590 652.016242 486.680352 663.261847 C484.799981 677.783088 479.419671 691.333381 477.794488 705.835822 C476.698540 715.616218 472.586968 725.019782 470.613152 734.751838 C468.596184 744.697028 467.566949 754.841193 466.059441 764.891364 C464.742791 773.669440 464.443719 782.796393 461.689141 791.104133 C459.207757 798.587775 459.708001 806.362678 456.454583 813.914557 C449.746148 829.486335 437.182183 832.898078 424.583123 822.140021 C417.992669 816.512824 417.097039 808.895759 414.431512 802.188483 C409.458367 789.673957 406.902398 776.227180 406.130059 762.645881 C405.802239 756.881110 401.595696 752.562995 401.712945 746.300544 C401.858025 738.547492 399.451714 730.736701 398.054436 722.967536 C396.103753 712.121100 393.771905 701.333137 392.179619 690.435920 C391.253594 684.098639 391.857354 677.714972 390.391289 671.208747 C388.416924 662.446784 388.809930 653.161994 388.049615 644.113288 C386.779229 628.994513 386.309991 613.723517 383.674065 598.840705 C382.400994 591.653083 382.474724 584.675178 382.100518 577.598884 C381.322320 562.881843 382.500420 547.781257 379.494256 533.552497 C377.189385 522.643073 381.388055 511.398810 376.111931 501.108771 C380.215630 494.713386 378.582696 487.436774 377.770257 480.956916 C375.921563 466.212043 376.221978 451.497077 376.025506 436.750983 C376.013970 435.883796 375.405327 435.024543 375.074517 434.161628 C374.367425 434.863532 373.415948 435.445441 373.000786 436.290778 C371.916924 438.497443 370.928460 440.772834 370.147881 443.103156 C365.181054 457.931159 355.680016 470.468757 349.211815 484.444953 C342.636651 498.652106 332.122094 510.811896 326.883294 525.149909 C322.428002 537.343635 312.270135 546.265998 310.026299 559.194465 C293.406731 579.722053 284.981164 605.019294 270.637719 626.924445 C264.610467 636.129035 261.109002 646.953376 255.994652 656.799933 C250.993188 666.429206 244.394097 675.338019 240.299767 685.303962 C233.969536 700.712409 224.743188 714.671271 219.601922 730.772712 C216.683007 739.914191 211.738488 748.872321 207.195611 757.554328 C201.597985 768.252326 203.684899 778.811164 204.747704 789.458747 C204.965569 791.641486 204.539727 793.261359 204.534630 795.029181 C204.516503 801.302497 205.867425 807.586310 206.799554 813.851203 C207.025445 815.369513 208.426934 817.189094 207.941888 818.261481 C203.925378 827.141852 207.561852 836.137336 208.491936 844.613044 C211.757592 874.372565 208.910210 904.116096 210.134301 933.823737 C210.261773 936.916755 211.616143 939.947272 211.871514 943.050300 C212.107659 945.919806 211.762932 948.863288 211.423546 951.744636 C211.207360 953.580207 210.288567 955.337775 210.105919 957.172248 C208.701440 971.278815 208.425500 985.592658 205.761254 999.450446 C203.380761 1011.832160 199.199547 1024.093390 190.922814 1034.215949 C188.034997 1037.747809 184.387871 1040.226691 179.412713 1040.204719 C175.535027 1040.187507 171.576501 1041.241340 167.790398 1040.755500 C152.738824 1038.823859 147.149834 1026.246222 142.487115 1014.857551 C137.933343 1003.735236 136.823784 991.202765 134.202263 979.289313 C139.188286 973.818854 132.397088 968.684211 133.789849 962.936164 C135.086693 957.583991 133.861230 951.661017 134.122643 946.006721 C134.403893 939.923224 133.527886 933.930182 135.749840 927.720222 C137.496758 922.837775 134.714501 917.119269 135.881615 911.453132 C138.204278 900.177375 139.170617 888.646735 140.514672 877.202765 C141.624077 867.756232 145.457604 858.527350 146.495415 848.795173 C147.624718 838.205207 151.350396 827.888068 154.784417 818.207038 C158.981255 806.375495 158.268853 795.005866 157.715172 783.628303 C157.010155 769.142219 155.473229 754.511970 151.323479 740.407233 C150.885827 738.919562 149.639550 736.766242 150.205834 736.035285 C153.561425 731.703010 151.039117 727.837897 150.214104 723.556769 C148.405419 714.171393 147.400170 704.630988 146.066826 694.153937 M158.066826 371.153937 C158.733483 374.210822 159.830620 377.246161 159.984948 380.328681 C160.422753 389.074103 161.135308 397.830085 161.625909 406.514655 C162.614434 424.014045 162.891289 441.464972 165.858727 458.855720 C167.655205 469.384162 167.371270 480.264655 168.115136 490.980597 C168.183434 491.964606 168.929070 492.901740 169.360161 493.860602 C170.067101 493.153693 171.095910 492.573249 171.431481 491.720222 C175.039513 482.548957 178.664025 473.380500 182.037377 464.121345 C187.102807 450.217658 191.192040 435.900031 197.126977 422.386603 C204.051507 406.620002 207.157128 389.856635 211.920220 373.540107 C214.723015 363.938727 216.014245 353.900336 218.086693 344.079963 C219.311242 338.277472 221.141503 332.574103 221.965600 326.722785 C223.045006 319.058967 222.626946 311.121894 224.288567 303.620307 C225.886681 296.405402 221.408654 288.860663 226.066826 282.062140 C225.400170 264.894782 225.790154 247.601203 223.758172 230.596992 C221.871544 214.808906 218.114495 199.131904 213.862939 183.770820 C209.733880 168.852180 203.664269 154.579352 191.156304 144.200324 C185.226617 139.279975 178.446862 138.191718 174.270318 143.315803 C170.025262 148.523810 166.881219 154.827826 164.184136 161.054328 C159.733086 171.329902 160.872521 182.815314 158.123620 193.524543 C157.105614 197.490485 156.387169 201.600348 156.128777 205.682319 C155.176873 220.720344 157.605645 235.843268 154.315880 250.893561 C153.361046 255.261786 155.852929 260.271247 155.991753 265.009345 C156.764641 291.390265 154.680535 317.818610 157.910241 344.179023 C158.915917 352.387214 158.066826 360.822577 158.066826 371.153937 M402.066826 273.153937 C403.991265 287.585639 398.075555 302.005622 402.002679 316.466437 C402.411919 317.973395 402.556145 320.214484 401.734856 321.258857 C399.887993 323.607245 399.037163 325.608344 401.094048 328.126716 C402.506219 326.047858 403.936516 323.980964 405.317620 321.881598 C405.650872 321.375068 405.967888 320.780890 406.045220 320.194343 C407.647149 308.051276 413.926079 297.461738 417.475396 285.948249 C421.734490 272.132148 427.654412 258.829108 431.942803 245.020576 C437.637749 226.682929 443.075066 208.218696 447.483697 189.539924 C452.878167 166.684272 458.005913 143.703437 458.159234 119.975287 C458.191949 114.919745 461.071099 109.353156 459.699639 104.934272 C457.261712 97.079291 459.291985 89.288947 457.903191 81.704474 C456.687249 75.063910 454.478326 68.513923 451.937859 62.235602 C449.869256 57.123359 446.874688 56.559516 443.219414 60.147468 C440.272820 63.039741 437.511895 66.323371 435.460198 69.888923 C427.835015 83.140388 424.249200 97.943854 420.196831 112.483283 C417.511101 122.118903 416.159112 132.120673 414.029229 141.919196 C412.908806 147.073737 410.885064 152.073127 410.170464 157.266547 C408.511651 169.322516 406.678216 181.428534 406.252923 193.561164 C405.742852 208.113959 404.530266 222.483466 402.504754 236.910895 C401.794915 241.966926 401.371697 247.681037 401.930657 253.187079 C402.532891 259.119513 402.066826 265.160407 402.066826 273.153937 M170.066826 985.153937 C170.889123 977.743537 166.865319 970.333259 170.066826 962.922858 C166.137810 953.810187 168.590813 944.235114 168.152581 934.882697 C167.749261 926.275397 168.066826 917.634406 168.066826 909.008185 C168.066826 907.349250 168.132592 905.686408 168.030694 904.033698 C167.995629 903.464728 167.542138 902.921760 167.279717 902.366828 C166.875420 903.052741 166.190545 903.707526 166.110528 904.429450 C165.369866 911.112311 164.758874 917.809577 164.059289 924.497321 C163.428307 930.528571 161.519280 936.728888 162.359124 942.538703 C163.538659 950.698615 164.041741 958.783576 164.082177 966.969489 C164.117150 974.045783 163.333733 981.189094 166.009026 988.060920 C166.620965 989.632819 165.171654 992.643439 168.460839 991.931037 C169.301598 991.749030 169.547600 988.820563 170.066826 985.153937 z"/><path class="selected"  fill="#000000" opacity="1.000000" stroke="none" 
 	d="
M1416.566826 532.653937 C1415.831231 534.722907 1416.122979 536.710456 1415.267998 537.787848 C1411.694268 542.291144 1410.485528 548.083381 1407.694146 552.609138 C1400.985039 563.486701 1398.484429 576.578010 1389.320855 586.138312 C1386.176934 589.418586 1384.135064 593.903449 1382.126031 598.094977 C1376.575738 609.674445 1368.207085 619.215583 1360.139214 628.952521 C1357.103692 632.615973 1356.661309 635.622565 1357.783135 640.530646 C1361.138604 655.210456 1368.857476 668.025641 1374.430352 681.687629 C1380.132622 695.666266 1387.057427 709.469367 1396.602837 721.446906 C1399.958062 725.656989 1404.548638 729.140388 1409.156182 732.028937 C1414.784478 735.557502 1414.888848 735.047248 1418.104424 729.236945 C1422.893487 720.583625 1424.635308 711.004523 1425.899468 701.509162 C1427.831841 686.992560 1429.213067 672.420539 1431.943413 657.995734 C1433.316826 650.739264 1433.625542 643.250861 1434.020440 635.846198 C1434.873223 619.853034 1436.697930 604.059211 1439.692681 588.265632 C1441.274224 579.924689 1441.956475 571.331916 1444.025811 562.984626 C1445.906548 555.398566 1447.437554 547.725837 1449.128960 540.092658 C1452.105645 526.660285 1455.122735 513.236823 1458.051690 499.794074 C1459.573540 492.810065 1462.195855 485.951667 1464.595391 479.479743 C1470.360894 463.929694 1476.575249 448.288703 1486.544610 434.579841 C1498.878960 417.618659 1521.284722 422.701667 1530.107598 435.765632 C1539.783257 450.092536 1545.754815 465.961555 1550.001397 482.522712 C1553.271660 495.276496 1556.620904 507.965461 1558.427666 521.140754 C1559.814873 531.256965 1562.673638 541.157233 1562.115899 551.534308 C1562.070489 552.379889 1562.716241 553.262580 1563.040948 554.128058 C1563.748101 553.438239 1564.593926 552.839118 1565.121758 552.032111 C1565.612847 551.281135 1566.079888 550.286628 1566.020562 549.436652 C1564.842950 532.562629 1571.477471 516.958625 1574.539971 500.839728 C1576.326226 491.438117 1580.011651 481.972907 1583.635552 472.724738 C1587.638848 462.508063 1592.340752 452.930915 1598.040093 443.677985 C1602.425957 436.557502 1609.537530 433.324592 1617.002129 432.434821 C1624.872491 431.496467 1630.962334 436.899055 1635.500786 442.769416 C1645.577202 455.802741 1649.774590 471.443732 1654.148980 487.016608 C1658.089043 501.042365 1661.294610 515.126838 1662.130791 529.719977 C1662.383721 534.133918 1663.346245 538.513679 1664.103936 542.888068 C1664.299492 544.017219 1664.950860 545.067512 1665.392998 546.153937 C1666.734917 545.370002 1668.960869 544.848639 1669.283501 543.761970 C1672.973931 531.332526 1682.412163 522.035529 1687.226861 510.179572 C1691.048638 500.768561 1695.497124 491.509650 1700.661431 482.770637 C1707.984307 470.378913 1716.039239 458.403815 1724.133843 446.489997 C1729.112725 439.161994 1733.544366 431.259284 1742.098321 427.045295 C1751.304375 422.509894 1761.058892 425.164191 1766.032159 434.281379 C1772.014336 445.248298 1775.385552 456.993049 1778.600030 469.148932 C1782.888726 485.367194 1782.416192 502.270637 1787.830010 518.225348 C1789.944756 524.457526 1789.290581 531.605353 1790.115533 538.309455 C1790.496026 541.401618 1791.754815 544.400519 1792.007744 547.491462 C1793.374810 564.194221 1798.521783 580.099372 1802.034478 596.348639 C1803.143975 601.480475 1800.520074 606.819098 1796.607842 608.153937 C1793.401787 609.247687 1785.771783 606.362189 1784.153741 602.728034 C1779.896538 593.166633 1775.580132 583.581183 1772.205376 573.691901 C1768.902764 564.013923 1766.444512 554.016120 1764.139092 544.037726 C1761.175469 531.211677 1758.723565 518.267097 1756.070122 505.369758 C1753.984063 495.230964 1751.907036 485.090339 1749.864312 474.942756 C1748.562432 468.474250 1747.354302 461.986701 1746.043999 455.519904 C1745.820977 454.419196 1745.294366 453.380134 1744.908257 452.312507 C1744.201226 453.019538 1743.364678 453.637702 1742.807305 454.447638 C1738.529839 460.665290 1733.904595 466.689826 1730.165093 473.219855 C1725.102959 482.059821 1720.484063 491.178962 1716.140801 500.397834 C1712.206963 508.747931 1709.239068 517.557746 1705.214898 525.859382 C1701.434136 533.658698 1696.033501 540.735236 1692.790215 548.716681 C1688.841363 558.434577 1683.195244 566.711921 1675.530083 573.505256 C1669.202325 579.113288 1661.677056 583.112800 1653.249322 578.007087 C1649.040703 575.457526 1644.530327 572.014167 1642.343438 567.831550 C1638.666070 560.798347 1636.186211 552.993781 1634.195000 545.258307 C1631.202325 533.631965 1631.887993 521.410895 1628.349908 509.693000 C1626.157159 502.430427 1627.479058 494.171882 1625.868218 486.650763 C1624.066582 478.237189 1620.859673 470.106574 1617.954766 461.963263 C1617.407159 460.427985 1615.410943 458.432502 1614.078423 458.428840 C1612.744317 458.425544 1610.744195 460.402839 1610.168755 461.936896 C1604.314019 477.544440 1595.516534 492.035407 1593.841363 509.246467 C1592.975030 518.147712 1589.650323 526.794074 1587.656670 535.605475 C1585.651055 544.469733 1583.702935 553.357673 1582.118951 562.304206 C1579.911919 574.771735 1578.043755 587.299689 1576.078789 599.809455 C1575.338555 604.521613 1574.438286 609.236091 1574.137627 613.982917 C1573.712212 620.700568 1569.838799 623.703376 1563.866509 625.520637 C1560.972466 626.401130 1559.279595 626.046027 1556.922539 624.184211 C1551.091851 619.578620 1547.734185 613.342780 1546.247491 606.576545 C1543.604302 594.547004 1542.190484 582.252326 1540.023492 570.111335 C1538.592217 562.092170 1536.680840 554.159919 1535.116387 546.162971 C1534.565117 543.344977 1534.137627 540.452643 1534.112237 537.590217 C1533.989434 523.793952 1530.196343 510.537971 1528.454034 497.028205 C1526.866509 484.717414 1523.895562 473.012092 1519.999688 461.416388 C1518.337701 456.469977 1516.353203 451.532844 1513.764214 447.022712 C1510.760186 441.789680 1506.187798 442.451301 1501.975762 447.029548 C1493.645562 456.084357 1489.868218 467.262702 1486.094414 478.493171 C1482.355401 489.620246 1478.312554 500.685431 1475.363335 512.027595 C1471.743706 525.948005 1469.038506 540.110602 1466.099663 554.202155 C1464.492730 561.907111 1463.260796 569.689704 1461.782769 577.422492 C1460.604668 583.586310 1458.897027 589.678229 1458.151787 595.889411 C1456.542412 609.303351 1455.629326 622.800910 1454.004449 636.212653 C1452.283379 650.417243 1449.997735 664.552619 1448.098321 678.736823 C1447.246026 685.102180 1446.493706 691.499030 1446.117608 697.906135 C1445.373467 710.580939 1443.033745 722.747687 1438.286919 734.675055 C1435.091851 742.703254 1430.528618 749.357917 1424.246636 754.802741 C1417.987237 760.228034 1409.889825 759.012214 1402.851861 757.582160 C1395.223443 756.032111 1388.762749 751.195197 1382.695611 745.946662 C1368.359551 733.544562 1358.938164 717.426154 1349.020928 701.800178 C1342.598931 691.681647 1337.872613 680.469123 1332.617242 669.635138 C1329.694146 663.609138 1329.074517 661.924201 1323.429742 667.651374 C1310.585015 680.683967 1294.207696 688.351691 1277.220879 693.490363 C1263.643975 697.597541 1249.442437 694.764777 1235.716363 690.312995 C1224.477959 686.668097 1216.183282 678.818366 1207.472954 671.845099 C1202.395318 667.780036 1199.238091 660.906989 1196.177300 654.814704 C1189.089165 640.706794 1182.686700 626.398200 1179.842095 610.540656 C1177.542901 597.723517 1175.558892 584.919562 1173.671685 572.045661 C1171.010430 553.891730 1173.071343 535.862678 1172.066826 517.818976 C1176.409478 509.145392 1174.361382 499.440925 1175.365533 490.399421 C1176.568413 479.565314 1178.001763 468.652595 1180.473809 458.232429 C1183.227715 446.624763 1185.746758 434.853400 1190.891289 423.599982 C1195.198662 414.177741 1199.626031 405.508979 1206.936822 398.263373 C1217.023125 388.266547 1228.544121 387.130683 1240.340142 395.524604 C1246.849053 400.156318 1253.074639 405.214240 1259.186211 410.366706 C1263.670464 414.147223 1263.425835 417.669929 1259.286553 422.008918 C1257.706353 423.665290 1256.752007 422.711921 1254.939019 422.480842 C1246.883599 421.454230 1241.487237 415.853766 1235.205742 412.032844 C1225.585137 406.180793 1221.240655 406.543342 1216.156914 416.584601 C1210.943169 426.882453 1208.188775 437.980720 1205.764947 449.330573 C1203.519585 459.844123 1205.932427 471.103644 1200.352471 481.042731 C1199.495049 482.569831 1200.075860 484.931769 1200.074395 486.907722 C1200.061455 504.906745 1199.595391 522.923224 1200.257378 540.897956 C1200.610528 550.485847 1200.366143 560.255256 1203.880425 569.659186 C1205.620171 574.315070 1205.990166 579.708137 1205.949029 584.759284 C1205.851494 596.734015 1210.355279 607.914924 1214.654595 618.198981 C1221.012139 633.406379 1229.045708 648.797126 1244.580254 657.596808 C1252.946953 662.336188 1262.604180 664.198249 1271.406914 661.412116 C1288.076104 656.136115 1302.634453 646.676520 1315.151055 634.215095 C1317.937310 631.441169 1318.114556 629.480964 1316.212701 626.126227 C1314.578911 623.243903 1314.311944 619.612067 1313.258233 616.371100 C1310.012139 606.387702 1306.444634 596.502570 1303.441704 586.448005 C1300.066826 575.148566 1297.754937 563.505256 1293.927666 552.373664 C1288.413994 536.337409 1288.342339 519.192389 1282.537041 503.124030 C1279.151543 493.753425 1279.263970 483.076667 1278.116387 472.952155 C1277.040703 463.462165 1277.057427 453.831428 1274.092095 444.607917 C1273.897881 444.003791 1274.096123 443.281379 1274.062554 442.616462 C1273.401665 429.559577 1272.823418 416.497687 1272.033745 403.448737 C1271.545586 395.381171 1270.486382 387.343574 1270.147393 379.273078 C1269.891534 373.183539 1272.037408 366.507209 1271.260430 361.233710 C1270.403374 355.417121 1269.640923 349.437751 1270.341363 343.970344 C1272.314141 328.570563 1271.194024 313.127326 1272.273369 297.780585 C1273.321465 282.876166 1276.122613 268.098395 1278.040703 253.250373 C1278.863579 246.880317 1279.512139 240.482612 1280.042534 234.081183 C1281.036675 222.084784 1283.445244 210.380744 1286.377007 198.715583 C1288.509453 190.230659 1291.595879 182.032294 1292.350640 173.081061 C1292.881402 166.785956 1295.831475 160.625922 1298.119805 154.563483 C1301.925347 144.480903 1304.989556 133.897162 1310.358697 124.686042 C1316.153252 114.744880 1320.418145 104.030524 1327.765923 94.689460 C1333.981988 86.787116 1340.260430 79.088141 1347.281548 71.932258 C1355.843316 63.206428 1366.262017 57.236579 1377.715386 53.704352 C1396.636895 47.869086 1414.314751 49.384833 1432.077325 60.464301 C1446.709283 69.591010 1455.628106 82.672797 1463.693169 96.407294 C1469.516778 106.324714 1472.885674 117.851996 1476.542046 129.060309 C1479.556817 138.301887 1479.801934 148.044318 1483.629326 157.083564 C1485.785943 162.176826 1485.655083 168.352729 1486.004326 174.074470 C1486.861748 188.119330 1486.908013 202.231330 1488.264092 216.220954 C1488.996514 223.775641 1487.941582 231.133430 1488.042290 238.582221 C1488.150445 246.580329 1488.310357 254.591132 1487.981988 262.577216 C1487.759820 267.985724 1486.710992 273.358466 1486.073662 278.752204 C1485.475030 283.818488 1486.162530 288.773261 1484.426201 294.040595 C1482.262627 300.603950 1483.261040 308.135200 1481.953911 315.071296 C1479.451592 328.348517 1477.540948 341.722358 1474.777032 354.979621 C1472.026421 368.172675 1469.420708 381.401618 1466.026299 394.450202 C1462.910088 406.429816 1460.293389 418.542121 1455.373711 430.031379 C1453.195611 435.118049 1452.835869 440.957404 1450.922173 446.188605 C1445.737115 460.361823 1439.546197 474.193488 1434.910332 488.534308 C1430.049492 503.571174 1423.723321 517.905402 1416.566826 532.653937 M1310.066826 433.153937 C1310.067071 436.487555 1309.238091 440.091926 1310.221856 443.104377 C1313.268853 452.434455 1314.390313 462.310554 1315.519341 471.724860 C1317.413384 487.516730 1319.366265 503.112067 1324.017632 518.343024 C1325.021416 521.629279 1325.342461 525.119025 1326.078057 528.493293 C1328.008599 537.350348 1329.762871 546.254645 1332.009942 555.031989 C1335.859429 570.068854 1340.029351 585.023688 1344.072198 600.010871 C1344.232598 600.604865 1344.471123 601.177741 1344.673394 601.760627 C1345.380303 601.316047 1346.331231 601.035651 1346.757134 600.402106 C1353.234063 590.769660 1359.030572 580.607184 1366.204644 571.531867 C1378.139702 556.433722 1384.114068 538.167731 1393.881402 521.930427 C1399.566338 512.480109 1403.420830 501.925788 1408.054131 491.847785 C1409.468194 488.771735 1410.815484 485.659553 1412.053155 482.508918 C1418.357476 466.459357 1424.685967 450.418830 1430.864434 434.320685 C1434.728081 424.254279 1439.649956 414.347053 1441.688531 403.898566 C1443.621270 393.992988 1447.478203 384.864753 1449.923882 375.244697 C1452.153741 366.473639 1453.694756 357.517219 1456.168023 348.821357 C1458.354424 341.134772 1460.837334 333.596930 1460.066826 325.458137 C1466.609551 316.183967 1463.919976 305.094245 1465.932671 294.928290 C1467.301812 288.012763 1466.554375 280.632758 1468.263726 273.840583 C1470.874322 263.466681 1471.403863 252.878791 1471.804742 242.449286 C1472.587578 222.082160 1473.051079 201.603766 1470.020440 181.316352 C1468.436333 170.712470 1466.325982 160.188239 1464.541314 149.613166 C1462.567437 137.916816 1458.141045 127.031501 1454.354424 115.864326 C1448.811455 99.517768 1437.860161 87.633552 1425.420586 77.026435 C1420.810967 73.095893 1413.606988 70.981452 1407.373101 70.424933 C1392.053643 69.057380 1378.159478 73.648383 1367.844536 85.542548 C1356.903252 98.158942 1346.413506 110.790839 1339.579278 126.769233 C1332.345147 143.682868 1326.674004 160.841865 1322.083794 178.505805 C1321.297661 181.530768 1320.733452 184.613471 1320.066826 187.669501 C1318.066826 196.837592 1315.960259 205.984138 1314.100274 215.180549 C1312.601250 222.591987 1310.131524 230.113349 1310.421197 237.494636 C1310.714898 244.980659 1306.801201 252.199042 1309.579400 259.641425 C1305.645196 276.291633 1306.244439 293.242133 1305.916070 310.165473 C1305.790581 316.628730 1305.283867 323.045112 1306.005669 329.511054 C1306.294854 332.101447 1306.048760 334.782294 1305.789361 337.396491 C1305.316216 342.163642 1303.122979 347.386786 1304.419243 351.558234 C1306.445733 358.079169 1305.608941 364.422919 1306.062798 370.832709 C1306.586724 378.233710 1306.400201 385.559333 1307.672417 393.062812 C1309.787408 405.536567 1309.400201 418.434577 1310.066826 433.153937 z"/><path class="selected"  fill="#000000" opacity="1.000000" stroke="none" 
 	d="
M975.566826 803.653937 C969.138238 811.484626 964.190240 819.625983 956.169243 825.165290 C950.253228 829.250983 943.656182 828.652228 937.468804 827.767341 C934.981133 827.411628 932.823907 822.923957 931.024102 820.003913 C928.264947 815.527595 929.775201 805.402717 934.192559 803.286139 C942.532525 799.289680 943.557061 791.778449 943.880181 784.429938 C944.343560 773.891852 945.361260 763.137702 940.223443 753.056281 C939.146050 750.942023 940.265191 747.791999 940.032281 745.149177 C939.038750 733.871345 937.123711 722.924445 932.229546 712.428962 C927.560845 702.416999 923.715752 691.932990 920.559258 681.343390 C919.103692 676.460700 919.595269 670.763923 920.222954 665.559089 C920.856743 660.303718 925.984307 656.508674 931.761895 656.193488 C942.159478 655.625739 950.528496 659.655646 956.842583 667.932258 C964.632378 678.143439 972.267876 688.413093 974.517632 701.567145 C975.520562 707.430671 976.983208 713.214728 978.031914 719.071662 C978.871148 723.758430 979.346367 728.509040 980.081109 733.216071 C980.931573 738.665656 982.363579 743.591804 980.568047 749.686652 C978.891045 755.378303 981.947930 762.303840 981.942803 768.685431 C981.934380 779.145514 980.984185 789.560065 976.139092 799.195441 C975.604668 800.258307 976.066826 801.822272 975.566826 803.653937 z"/><path class="selected"  fill="#000000" opacity="1.000000" stroke="none" 
 	d="
M1601.566826 268.653937 C1603.848076 281.312079 1598.734429 292.315925 1595.932549 303.622443 C1591.082940 323.192206 1585.468438 342.574714 1580.027398 361.994513 C1578.279229 368.234138 1575.666924 374.250800 1574.203423 380.544623 C1573.180962 384.942145 1570.968560 388.172858 1566.798272 387.911689 C1562.823174 387.662787 1561.101861 384.323981 1559.806328 380.024055 C1556.969292 370.607917 1561.892998 362.335456 1562.395928 353.459662 C1562.920220 344.207892 1565.829034 335.044867 1568.124077 325.951240 C1571.352227 313.159308 1571.100274 299.738166 1575.798882 287.161872 C1577.646905 282.215766 1577.836114 276.487372 1577.954278 271.097114 C1578.115410 263.747687 1583.971367 261.835517 1588.619927 258.684577 C1589.277520 258.238837 1590.787408 258.037238 1591.229180 258.447638 C1594.602593 261.581733 1597.808648 264.895820 1601.566826 268.653937 z"/><path class="selected"  fill="#000000" opacity="1.000000" stroke="none" 
 	d="
M725.566826 251.653937 C711.912713 257.014716 700.998467 251.116279 697.985161 237.723884 C697.529839 235.700263 696.090569 233.853583 694.925042 232.041755 C689.295525 223.291205 692.217888 212.567145 701.705681 207.528510 C706.350701 205.061652 710.565850 201.785285 716.407647 202.078681 C728.460076 202.684028 736.282403 208.527350 740.696831 219.697150 C744.490166 229.295356 740.983819 237.027472 735.004082 244.037726 C732.578179 246.881659 729.078118 248.809394 725.566826 251.653937 z"/><path class="selected"  fill="#000000" opacity="1.000000" stroke="none" 
 	d="
M3506.066826 732.153937 C3508.548028 717.621222 3514.567559 712.746345 3526.333184 711.946540 C3537.524102 711.185798 3544.943780 726.280646 3539.473321 735.421638 C3536.694268 740.065314 3532.138604 743.890876 3527.759453 747.275519 C3520.900811 752.576667 3511.873223 751.405402 3507.662041 744.392219 C3505.868096 741.404059 3506.524102 736.944709 3506.066826 732.153937 z"/><path class="selected"  fill="#000000" opacity="1.000000" stroke="none" 
 	d="
M2650.066826 300.153937 C2646.764336 297.851447 2643.388604 295.915778 2642.443291 293.149421 C2641.372002 290.015265 2641.668877 285.841315 2642.830742 282.651435 C2644.534112 277.975959 2649.049248 277.451362 2655.889825 280.153876 C2663.530450 283.172370 2666.485284 290.884284 2661.989678 297.073493 C2659.375176 300.673163 2655.598809 302.292975 2650.066826 300.153937 z"/><path class="selected"  fill="#000000" opacity="1.000000" stroke="none" 
 	d="
M1911.566826 453.653937 C1910.125176 454.153937 1909.151055 454.302497 1908.251885 454.106940 C1907.532159 453.950446 1906.903008 453.375983 1906.233819 452.986945 C1906.746758 452.709235 1907.296319 452.146247 1907.765557 452.206916 C1909.215752 452.394904 1910.635430 452.820563 1911.566826 453.653937 z"/></svg>