<?xml version="1.0" encoding="UTF-8" standalone="no"?>
<!DOCTYPE svg PUBLIC "-//W3C//DTD SVG 1.1//EN" "http://www.w3.org/Graphics/SVG/1.1/DTD/svg11.dtd">
<svg width="100%" height="100%" viewBox="0 0 3475 3475" version="1.1" xmlns="http://www.w3.org/2000/svg" xmlns:xlink="http://www.w3.org/1999/xlink" xml:space="preserve" xmlns:serif="http://www.serif.com/" style="fill-rule:evenodd;clip-rule:evenodd;stroke-linejoin:round;stroke-miterlimit:2;">
    <path d="M919.534,2007.74C926.034,1989.72 931.797,1972.12 938.104,1954.72C943.771,1939.09 950.035,1923.67 956.034,1908.15C962.701,1890.91 969.337,1873.66 976.05,1856.44C978.622,1849.85 981.441,1843.34 984.019,1836.75C989.402,1822.98 994.793,1809.21 1000.01,1795.37C1004.35,1783.83 1008.42,1772.19 1012.67,1760.62C1017.76,1746.73 1024.16,1733.16 1027.62,1718.88C1030.2,1708.28 1033.12,1697.79 1035.89,1687.25C1037.18,1682.36 1037.43,1677.18 1037.98,1672.12C1038.1,1670.93 1037.51,1669.67 1037.25,1668.45C1036.3,1669.25 1035.39,1670.1 1034.41,1670.85C1023.27,1679.34 1012.01,1687.69 1001.02,1696.38C997.168,1699.43 994.104,1703.45 990.454,1706.77C976.923,1719.09 963.516,1731.56 949.65,1743.5C934.514,1756.52 918.847,1768.93 903.552,1781.78C893.361,1790.34 883.841,1799.75 873.267,1807.78C856.268,1820.7 840.482,1835.12 822.624,1847.03C810.68,1854.99 800.375,1865.37 788.956,1874.17C778.955,1881.89 768.535,1889.08 758.098,1896.2C743.059,1906.47 728.249,1917.17 712.526,1926.29C704.271,1931.08 696.406,1936.6 687.634,1940.82C679.142,1944.91 670.981,1950.42 662.41,1954.86C656.372,1957.99 650.4,1961.25 644.27,1964.19C640.391,1966.05 636.364,1967.7 632.25,1968.94C624.925,1971.14 622.752,1977.03 622.138,1983.43C620.599,1999.47 614.884,2014.34 609.791,2029.36C606.333,2039.55 602.028,2049.47 598.004,2059.47C596.97,2062.04 595.576,2064.46 594.327,2066.94C584.671,2086.13 574.673,2105.15 561.947,2122.5C553.613,2133.86 545.184,2145.33 535.454,2155.45C523.028,2168.39 510.168,2181.06 493.887,2189.58C487.087,2193.13 480.314,2196.13 472.634,2196.17C466.439,2196.2 459.923,2196.69 454.108,2195.03C440.333,2191.09 432.699,2180.41 428.09,2167.52C422.37,2151.52 420.992,2134.85 422.143,2118.03C422.748,2109.19 423.188,2100.29 424.265,2091.54C425.914,2078.14 429.069,2064.93 431.634,2051.66C432.345,2047.97 433.789,2044.34 433.929,2040.65C434.354,2029.45 439.861,2019.69 442.497,2009.12C445.01,1999.03 450.24,1989.66 453.437,1979.7C459.484,1960.88 468.961,1943.79 480.292,1927.89C485.461,1920.64 492.549,1913.83 500.278,1909.54C513.036,1902.45 525.011,1910.07 524.02,1923.34C523.739,1927.1 525.237,1931.17 521.197,1934.22C517.895,1936.72 514.859,1936.33 514.1,1932.44C513.723,1930.51 514.205,1928.43 513.977,1926.46C513.811,1925.02 513.468,1922.82 512.576,1922.44C511.392,1921.94 509.116,1922.38 508.15,1923.3C504.59,1926.69 500.923,1930.12 498.121,1934.12C490.267,1945.32 483.617,1957.19 479.023,1970.18C474.916,1981.8 469.909,1993.11 466.159,2004.84C461.888,2018.19 458.694,2031.86 455.421,2045.51C452.568,2057.41 452.37,2069.82 448.062,2081.35C447.844,2081.93 448.057,2082.67 448.031,2083.34C447.369,2100.4 445.934,2117.47 446.349,2134.5C446.565,2143.38 449.391,2152.4 452.235,2160.96C454.575,2168 466.202,2171.02 474.294,2166.76C482.018,2162.7 489.8,2158.26 496.382,2152.62C515.275,2136.41 532.319,2118.57 546.299,2097.63C556.219,2082.77 566.685,2068.26 574.727,2052.32C581.797,2038.32 588.101,2023.86 593.769,2009.23C596.893,2001.16 598.078,1992.33 599.987,1983.81C600.454,1981.72 600.135,1979.81 597.025,1980.19C595.055,1980.44 592.627,1979.51 591.1,1980.36C584.161,1984.23 577.208,1980.54 570.755,1979.72C562.773,1978.7 554.659,1976.47 547.908,1969.66C536.359,1958.01 534.017,1945.61 538.589,1930.5C541.319,1921.47 544.44,1912.95 552.197,1907.14C565.531,1897.16 579.604,1889.95 597.021,1896.21C609.771,1900.79 618.15,1909.37 622.021,1922.35C622.378,1923.54 622.435,1924.84 622.839,1926.01C623.791,1928.78 624.936,1933.85 625.884,1933.82C629.439,1933.72 633.067,1932.22 636.444,1930.74C641.807,1928.38 646.905,1925.42 652.264,1923.06C675.302,1912.88 697.404,1901.08 718.378,1887.06C730.538,1878.94 743.693,1872.29 755.813,1864.11C769.99,1854.55 783.479,1843.97 797.356,1833.95C811.193,1823.96 825.291,1814.33 838.973,1804.14C845.221,1799.49 850.571,1793.65 856.638,1788.73C865.31,1781.69 874.289,1775.04 883.081,1768.14C884.643,1766.92 885.851,1765.25 887.357,1763.94C902.3,1750.96 917.282,1738.02 932.229,1725.03C937.88,1720.12 943.513,1715.19 949.074,1710.18C963.162,1697.48 977.042,1684.55 991.317,1672.07C1002.97,1661.88 1014.6,1651.56 1027.13,1642.55C1034.99,1636.9 1044.94,1632.86 1054.49,1638.46C1062.75,1643.3 1067.52,1651.39 1068.04,1661.44C1068.9,1677.95 1064.97,1693.82 1061.48,1709.73C1059.95,1716.71 1058.12,1723.64 1055.98,1730.45C1052.36,1741.93 1048.34,1753.28 1044.58,1764.72C1043.04,1769.42 1042.21,1774.42 1040.22,1778.91C1035.22,1790.18 1034.55,1803.23 1026.17,1813.1C1025.2,1828.1 1016.51,1840.44 1012.01,1854.23C1009.15,1863.03 1006.46,1871.84 1002.17,1880.17C998.812,1886.71 996.701,1893.89 994.034,1900.78C990.034,1911.12 985.99,1921.45 982.046,1931.82C977.992,1942.47 973.589,1953.02 970.161,1963.88C966.806,1974.5 962.812,1984.79 958.502,1995.06C952.905,2008.41 948.911,2022.41 944.004,2036.06C937.329,2054.62 930.269,2073.04 923.713,2091.65C919.504,2103.59 915.883,2115.74 912.041,2127.81C909.042,2137.24 906.093,2146.68 903.149,2156.13C900.756,2163.81 898.75,2171.63 895.958,2179.15C891.096,2192.26 889.779,2206.24 884.509,2219.4C879.691,2231.43 878.742,2245.01 876.022,2257.89C874.083,2267.08 871.973,2276.23 870.063,2285.42C869.227,2289.44 868.693,2293.52 868.036,2297.58C866.771,2305.39 865.452,2313.2 864.296,2321.02C863.962,2323.29 864.05,2325.62 864.044,2327.93C864.021,2337.92 863.806,2347.93 864.122,2357.92C864.304,2363.66 864.904,2369.47 866.146,2375.07C867.894,2382.95 874.945,2386.13 882.097,2382.12C887.846,2378.9 893.571,2375.23 898.337,2370.73C914.381,2355.58 928.046,2338.47 941.26,2320.7C954.112,2303.43 965.659,2285.35 977.97,2267.76C988.05,2253.36 997.905,2238.78 1007.23,2223.88C1015.29,2210.99 1022.52,2197.58 1030.02,2184.34C1035.51,2174.63 1040.58,2164.67 1046.3,2155.1C1050.46,2148.15 1055.75,2141.95 1059.05,2134.37C1063.38,2124.46 1070.03,2115.81 1074.36,2105.71C1078.97,2094.94 1086.39,2085.39 1092.12,2075.06C1100.84,2059.35 1111.48,2044.86 1118.42,2027.96C1124.16,2014.01 1133.38,2001.51 1140.93,1988.28C1143.07,1984.54 1144.63,1980.47 1146.65,1976.66C1152,1966.54 1157.1,1956.25 1162.99,1946.45C1168.76,1936.87 1173.7,1926.93 1178.59,1916.9C1183.34,1907.15 1189.42,1898.06 1194.68,1888.55C1204.56,1870.66 1214.41,1852.75 1223.97,1834.68C1229.16,1824.87 1233.73,1814.73 1238.52,1804.72C1239.18,1803.33 1239.95,1801.81 1239.97,1800.34C1240.19,1786.56 1243.42,1773.26 1245.91,1759.81C1247.88,1749.14 1248.39,1738.22 1250.12,1727.5C1251.77,1717.29 1253.86,1707.12 1256.29,1697.07C1259.96,1681.97 1264.1,1666.98 1268.03,1651.94C1271.41,1639.01 1274.4,1625.96 1278.26,1613.17C1281.46,1602.56 1286.48,1592.46 1289.26,1581.77C1293.17,1566.75 1299.45,1552.58 1303.81,1537.79C1307.95,1523.77 1314.53,1510.87 1319.96,1497.45C1322.37,1491.47 1321.5,1484.04 1327.58,1479.56C1328.03,1479.23 1328.06,1477.53 1327.63,1477.01C1327.15,1476.43 1325.82,1476.1 1325.03,1476.31C1304.89,1481.57 1284.93,1487.69 1264.57,1491.92C1253.82,1494.16 1243.63,1497.96 1232.99,1500.39C1222.44,1502.79 1212.23,1506.62 1201.77,1509.44C1185.25,1513.88 1168.58,1517.75 1152.09,1522.31C1138.98,1525.94 1126.01,1530.11 1113.05,1534.27C1095.12,1540.03 1077.3,1546.17 1059.32,1551.78C1055.99,1552.82 1051.99,1552.72 1048.55,1552C1046.77,1551.62 1045.03,1548.92 1044.15,1546.89C1042.88,1543.94 1044.73,1542.48 1047.63,1541.54C1052.31,1540.03 1056.82,1537.99 1061.43,1536.25C1080.46,1529.06 1099.4,1521.65 1118.55,1514.82C1138.61,1507.66 1158.55,1499.82 1179.13,1494.65C1194.84,1490.71 1210.11,1485.5 1225.69,1481.27C1243,1476.57 1260.25,1471.28 1277.56,1466.73C1294.1,1462.39 1310.7,1457.59 1327.54,1454.7C1335.82,1453.29 1339.89,1452.2 1342.81,1443.16C1346.55,1431.58 1353.67,1420.95 1360.15,1410.41C1368.16,1397.4 1375.46,1383.94 1383.36,1370.88C1392.39,1355.94 1402.68,1341.88 1413.56,1328.75C1423.62,1316.61 1435.2,1304.48 1451.78,1299.16C1464.14,1295.19 1474.75,1304.41 1475.99,1316.03C1477.46,1329.68 1473.36,1342.54 1469.82,1355.45C1464.91,1373.33 1458.25,1390.64 1451.96,1408.05C1449.87,1413.83 1446.81,1419.25 1444.45,1424.94C1443.9,1426.27 1444.39,1428.04 1444.41,1429.61C1445.78,1429.32 1447.15,1429.04 1448.53,1428.75C1455.57,1427.25 1462.58,1425.57 1469.67,1424.28C1482.31,1421.98 1494.98,1420.01 1507.4,1416.44C1513.79,1414.61 1520.8,1415.01 1527.51,1414.2C1531.26,1413.75 1534.94,1412.74 1538.69,1412.27C1554.2,1410.3 1569.48,1406.82 1585.19,1406.08C1595.68,1405.59 1606.09,1403.49 1616.55,1402.26C1628.65,1400.84 1640.84,1400 1652.87,1398.13C1666.93,1395.94 1681.13,1395.45 1695.18,1393.82C1706.65,1392.5 1718,1392.83 1729.4,1392.18C1734.81,1391.87 1740.53,1391.83 1745.46,1389.95C1749.45,1388.42 1752.72,1384.58 1755.84,1381.32C1760.55,1376.39 1764.46,1370.65 1769.44,1366.05C1775.34,1360.6 1790.19,1364.47 1794.51,1371.54C1796.94,1375.54 1798.74,1379.44 1798,1384.1C1797.37,1387.98 1799.26,1388.73 1802.49,1388.24C1808.85,1387.29 1815.52,1390.16 1821.74,1386.38C1823.1,1385.56 1825.56,1386.38 1827.46,1386.73C1828.64,1386.95 1829.87,1388.37 1830.8,1388.14C1840.62,1385.76 1850.36,1388.7 1860.18,1388.46C1879.97,1387.99 1899.5,1390.49 1918.06,1398.17C1919.64,1398.83 1922.8,1397.52 1921.89,1400.78C1921.14,1403.45 1919.62,1407.26 1917.59,1407.91C1913.97,1409.08 1909.44,1409.14 1905.75,1408.07C1895.43,1405.08 1885.02,1404.08 1874.36,1404.19C1858.03,1404.37 1841.69,1404 1825.36,1404.33C1815.29,1404.52 1805.2,1405.23 1795.22,1406.5C1792.9,1406.79 1790.06,1409.96 1789.08,1412.44C1786.24,1419.61 1783.53,1426.77 1780.27,1433.81C1776.26,1442.48 1773.24,1451.5 1768.26,1459.87C1763.11,1468.55 1759.94,1478.38 1755.61,1487.58C1753.36,1492.34 1750.42,1496.76 1747.9,1501.39C1736.8,1521.79 1725.89,1542.29 1714.6,1562.59C1707.35,1575.62 1699.52,1588.34 1692.05,1601.25C1686.77,1610.38 1681.8,1619.7 1676.43,1628.78C1671.2,1637.64 1665.58,1646.27 1660.22,1655.07C1647.75,1675.57 1633.54,1695.09 1623.06,1716.69C1619.37,1724.29 1612.33,1731.16 1614.03,1740.93C1606.21,1748.67 1606.99,1759.94 1602.58,1769.21C1597.06,1780.83 1593.69,1793.56 1590.19,1806.03C1588.09,1813.5 1583.75,1820.12 1583.61,1828.5C1583.54,1833.2 1579.02,1837.76 1576.88,1842.54C1576.2,1844.06 1576.73,1846.11 1576.71,1847.91C1578.32,1847.19 1579.95,1846.51 1581.53,1845.73C1584.3,1844.35 1587.06,1842.96 1589.77,1841.49C1597.13,1837.51 1604.34,1833.25 1611.83,1829.53C1624.53,1823.21 1637.47,1817.38 1650.16,1811.04C1660.95,1805.66 1671.46,1799.73 1682.22,1794.27C1703.42,1783.51 1724.77,1773.05 1745.91,1762.16C1753.64,1758.18 1760.86,1753.23 1768.42,1748.9C1774.87,1745.21 1781.58,1741.96 1787.98,1738.19C1796.04,1733.44 1803.74,1728.05 1811.91,1723.51C1818.69,1719.75 1825.2,1715.22 1834.12,1718.05C1841.86,1720.5 1847.27,1727.68 1846.09,1735.89C1844.61,1746.18 1841.7,1755.8 1836.59,1765C1833.81,1770.02 1832.57,1776.09 1831.55,1781.85C1829.7,1792.36 1824.16,1801.54 1821.54,1811.73C1820.38,1816.25 1819.21,1820.77 1818.03,1825.28C1815.91,1833.4 1813.72,1841.5 1811.66,1849.64C1810.36,1854.78 1809.24,1859.97 1808.03,1865.14C1805.71,1875.12 1803.17,1885.03 1803.89,1895.49C1804.12,1898.82 1802.42,1902.24 1802.11,1905.66C1801.78,1909.29 1802.28,1913.01 1801.96,1916.64C1801.7,1919.52 1800.11,1922.37 1800.22,1925.18C1800.44,1931.25 1800.89,1937.39 1802.14,1943.31C1804.39,1953.97 1805.87,1964.74 1809.86,1975.09C1816.1,1991.25 1836.44,1999.86 1851.54,1991.68C1856.73,1988.86 1861.49,1985.18 1866.79,1982.6C1881.97,1975.21 1891.34,1962.22 1899.96,1948.61C1907.58,1936.58 1912.98,1923.47 1918.29,1910.21C1924.58,1894.5 1929.36,1878.66 1932.31,1861.96C1935.16,1845.83 1938.25,1829.87 1938.16,1813.4C1938.13,1807.39 1936.36,1803.59 1930.51,1801.64C1923.21,1799.22 1917.93,1793.83 1913.11,1788.21C1902.32,1775.66 1905.35,1762.78 1916.03,1753.34C1920.82,1749.1 1927.45,1748.86 1932.6,1750.6C1939.01,1752.77 1945.63,1756 1949.47,1762.59C1951.81,1766.62 1953.87,1772.35 1957.45,1773.76C1962.36,1775.68 1968.82,1775.24 1974.22,1774.04C1986.31,1771.35 1998.39,1768.2 2010.06,1764.06C2020.76,1760.25 2031.13,1755.32 2041.26,1750.11C2049.82,1745.71 2057.94,1740.37 2066.06,1735.14C2074.51,1729.7 2082.79,1723.97 2091.05,1718.21C2096.25,1714.58 2101.29,1710.71 2106.35,1706.87C2107.07,1706.33 2107.85,1705.42 2107.98,1704.59C2109.4,1695.49 2110.57,1686.35 2112.07,1677.26C2113.55,1668.25 2115.27,1659.27 2117,1650.3C2117.88,1645.7 2119.57,1641.18 2119.9,1636.56C2120.37,1629.86 2119.42,1622.99 2124.03,1617.22C2120.21,1602.44 2131.06,1590 2130.51,1575.35C2130.13,1565.31 2133.89,1555.02 2136.39,1544.99C2139.87,1531.05 2144.06,1517.28 2146.07,1503C2146.5,1499.91 2147.03,1496.76 2148.09,1493.85C2152.33,1482.28 2154.8,1470.36 2156.1,1458.15C2156.26,1456.7 2157.26,1455.29 2158.05,1453.98C2163.4,1445.15 2161.33,1434.49 2165.74,1425.14C2171.67,1412.57 2173.76,1398.47 2177.43,1385.09C2179.4,1377.89 2182.24,1370.98 2184.1,1363.76C2189.68,1342.19 2197.32,1321.25 2204.09,1300.04C2206.43,1292.71 2209.54,1285.63 2212,1278.33C2216.52,1264.87 2221.5,1251.65 2227.87,1238.88C2233.21,1228.17 2236.91,1216.64 2241.72,1205.64C2247.14,1193.21 2252.71,1180.84 2258.69,1168.67C2271.1,1143.4 2285.94,1119.51 2302.63,1096.92C2315.92,1078.93 2331.52,1063.11 2352.14,1053C2364.68,1046.85 2377.52,1046.42 2390.28,1050.47C2398.07,1052.94 2403.82,1059.37 2407.93,1066.41C2414.39,1077.49 2417.14,1089.91 2420.43,1102.27C2422.87,1111.46 2419.42,1121.08 2424.03,1129.71C2418.55,1141.37 2425.49,1154.39 2420.08,1166.08C2419.7,1166.9 2420.12,1168.06 2420.02,1169.06C2418.71,1183.17 2417.58,1197.31 2415.91,1211.38C2415.41,1215.6 2412.94,1219.54 2412.11,1223.76C2409.27,1238.18 2407.57,1252.78 2402.7,1266.86C2398.84,1278 2397.54,1290.01 2393.89,1301.24C2385.61,1326.77 2377.22,1352.3 2367.53,1377.31C2363.54,1387.61 2359.62,1398.08 2354.89,1408.05C2349.85,1418.66 2344.97,1429.23 2340.75,1440.21C2337.66,1448.24 2331.33,1455.06 2328.55,1463.13C2325.44,1472.18 2319.33,1479.26 2315.33,1487.67C2310.28,1498.29 2303.94,1508.31 2298.01,1518.5C2291.44,1529.8 2285.08,1541.24 2277.93,1552.16C2269.64,1564.83 2260.58,1577 2251.88,1589.4C2245.91,1597.91 2240.27,1606.69 2233.95,1614.94C2227.3,1623.64 2220.16,1631.99 2212.94,1640.24C2207.21,1646.78 2202.78,1654.37 2196.09,1660.15C2190.06,1665.35 2184.36,1670.95 2178.76,1676.62C2176.09,1679.33 2174.31,1682.95 2171.57,1685.57C2164.01,1692.83 2156.2,1699.83 2148.41,1706.83C2143.79,1710.98 2141.45,1715.84 2141.9,1722.21C2142.06,1724.55 2140.48,1726.95 2140.08,1729.38C2139.26,1734.41 2138.75,1739.5 2138.02,1744.55C2137.43,1748.61 2136.59,1752.65 2136.06,1756.72C2134.66,1767.49 2133.44,1778.29 2132.01,1789.06C2130.09,1803.57 2127.02,1818.03 2126.5,1832.59C2126.28,1838.94 2121.63,1845.3 2125.81,1852.06C2126.69,1853.49 2124.53,1856.66 2124.06,1859.09C2119.54,1882.35 2121.43,1906.02 2119.63,1929.4C2117.64,1955.18 2118.37,1980.88 2118.17,2006.6C2118.06,2020.77 2118.82,2035 2120.17,2049.1C2121.82,2066.33 2125.3,2083.33 2130.23,2099.91C2132.22,2106.62 2135.08,2113.36 2139.75,2118.95C2146.25,2126.72 2151.41,2127.56 2162.36,2122.94C2173.55,2118.21 2183.22,2111.09 2192.05,2103.02C2202.13,2093.81 2212.15,2084.37 2220.97,2073.99C2231.74,2061.31 2243.66,2049.62 2252.52,2035.19C2259.18,2024.34 2268.49,2015.15 2276.24,2004.94C2285.43,1992.83 2294.39,1980.53 2303.09,1968.06C2307.53,1961.69 2311.23,1954.8 2315.16,1948.08C2317.44,1944.18 2319.68,1940.6 2323.32,1937.46C2327.16,1934.15 2329.18,1928.72 2332.04,1924.25C2337.44,1915.81 2343.19,1907.58 2348.23,1898.94C2358.31,1881.67 2371,1866.11 2380.3,1848.26C2385.51,1838.27 2393.72,1829.88 2399.95,1820.36C2409.75,1805.4 2418.84,1790.01 2429.49,1775.58C2439.44,1762.13 2447.62,1747.43 2458.48,1734.57C2461.61,1730.87 2462.92,1725.68 2465.75,1721.66C2471.61,1713.34 2477.94,1705.36 2484.05,1697.22C2492.06,1686.54 2500.15,1675.92 2508.01,1665.13C2516.07,1654.06 2523,1642.16 2532.79,1632.38C2535.25,1629.92 2537.68,1627.12 2539.1,1624.02C2543.74,1613.82 2552.48,1606.91 2559.18,1598.41C2570.93,1583.51 2584.27,1569.95 2595.29,1554.36C2600.86,1546.49 2608.74,1540.35 2615.02,1532.76C2624.52,1521.31 2636.1,1511.61 2646.36,1500.76C2653.08,1493.65 2661.01,1488.54 2669.59,1484.27C2680.1,1479.04 2693.15,1486.71 2694.05,1498.39C2695,1510.75 2691.43,1522.24 2687.58,1533.71C2684.34,1543.38 2681.33,1553.12 2677.99,1562.75C2675.98,1568.56 2673.53,1574.23 2671.31,1579.97C2664.87,1596.64 2658.46,1613.32 2652.03,1629.99C2648.71,1638.61 2645.38,1647.23 2642.02,1655.84C2641.46,1657.27 2639.99,1658.72 2640.15,1660C2641.26,1668.72 2636.24,1675.74 2634.08,1683.54C2630.59,1696.12 2627.41,1708.78 2624.02,1721.38C2620.77,1733.49 2617.79,1745.6 2615.37,1757.94C2613.57,1767.16 2612.04,1776.13 2612.06,1785.42C2612.1,1797.95 2618.07,1801.69 2629.1,1796.14C2638.76,1791.29 2648.38,1786.33 2657.95,1781.29C2666.54,1776.77 2674.44,1777.06 2683.23,1781.87C2687.28,1784.09 2689.91,1787.58 2689.67,1790.12C2688.76,1799.66 2695.8,1809.06 2690.03,1818.5C2691.93,1834.96 2688,1851.51 2691.79,1868.07C2694.41,1879.56 2694.19,1891.66 2696.2,1903.33C2697.77,1912.48 2699.58,1921.97 2703.5,1930.25C2708.35,1940.47 2716.03,1949.45 2725.41,1955.85C2728.72,1958.11 2731.39,1961.64 2736.54,1962.76C2744.66,1964.53 2752.29,1964.8 2760.52,1964.61C2773.23,1964.32 2784.48,1959.51 2796.15,1956.07C2810.53,1951.84 2823.62,1945.02 2835.9,1935.94C2844.17,1929.83 2853.29,1924.74 2861.54,1918.35C2873.86,1908.79 2885.71,1899.03 2895.23,1886.39C2901.15,1878.54 2909.64,1872.65 2915.88,1864.99C2923.22,1855.96 2929.8,1846.24 2935.93,1836.34C2944.1,1823.14 2951.12,1809.23 2959.41,1796.12C2963.76,1789.26 2965.13,1780.6 2971.98,1775.29C2972.52,1765.59 2978.72,1758.08 2982.12,1749.49C2985.4,1741.19 2987.02,1732.25 2991.92,1724.53C2993.34,1722.28 2993.14,1719.07 2994.07,1716.44C2999.4,1701.48 3002.41,1685.9 3006.73,1670.67C3009.41,1661.2 3009.8,1651.29 3012.34,1641.97C3015.65,1629.87 3011.45,1617.33 3015.9,1605.49C3016.43,1604.09 3015.49,1600.69 3014.69,1600.5C3012.67,1600.02 3009.78,1600.1 3008.22,1601.26C2996.43,1610 2984.89,1619.07 2973.26,1628.01C2961.88,1636.75 2950.56,1645.56 2939.07,1654.14C2929.69,1661.14 2920.26,1668.09 2910.53,1674.6C2904.1,1678.9 2897.09,1682.35 2890.38,1686.25C2879.63,1692.5 2869.19,1699.35 2858.11,1704.93C2847.33,1710.36 2835.7,1713.83 2823.81,1716.25C2817.68,1717.5 2811.62,1719.19 2805.45,1720.17C2795.67,1721.74 2786.37,1718.89 2777.12,1716.23C2755.47,1709.99 2745.98,1692.84 2740.27,1673.27C2737.03,1662.2 2736,1650.51 2739.89,1638.95C2740.71,1636.51 2739,1633.91 2739.56,1630.57C2742.61,1612.6 2748.19,1595.63 2756.03,1579.28C2764.17,1562.29 2774.61,1546.9 2787.84,1533.46C2796.21,1524.95 2804.49,1516.32 2813.25,1508.21C2818.11,1503.71 2823.48,1499.44 2829.31,1496.38C2848.16,1486.49 2866.68,1475.71 2887.92,1471.31C2894.93,1469.86 2901.85,1467.94 2908.81,1466.25C2909.12,1466.17 2909.51,1466.14 2909.8,1466.25C2919.88,1470.23 2930.08,1464.84 2940.65,1467.18C2950.43,1469.34 2960.63,1470.56 2969.72,1474.5C2982.01,1479.82 2994.19,1485.27 3004.35,1495.06C3017.74,1507.98 3027.71,1522.69 3034.39,1539.76C3036.43,1544.96 3038.76,1544.63 3042.66,1542.27C3052.78,1536.17 3063,1530.24 3073.18,1524.24C3079.61,1520.44 3086.01,1516.61 3092.47,1512.85C3093.24,1512.4 3094.3,1512.45 3095.15,1512.1C3101.99,1509.3 3108.79,1506.39 3115.65,1503.64C3131.09,1497.47 3146.49,1491.17 3162.07,1485.35C3168.15,1483.07 3174.64,1481.89 3180.95,1480.24C3189.98,1477.89 3199.01,1475.53 3208.05,1473.24C3212.28,1472.16 3216.51,1470.67 3220.82,1470.34C3235.62,1469.2 3250.38,1467.29 3265.1,1465.75C3286.25,1463.54 3307.27,1464.71 3328.33,1464.4C3342.37,1464.2 3356.51,1464.88 3370.47,1466.43C3384.91,1468.03 3399.35,1469.27 3413.81,1470.52C3430.48,1471.97 3446.97,1475.5 3463.51,1478.29C3468.36,1479.1 3474.68,1485.77 3474.03,1488.83C3473.3,1492.33 3463.68,1497.13 3459.34,1496.26C3455.64,1495.51 3451.92,1494.74 3448.17,1494.28C3442.12,1493.54 3435.79,1495.71 3429.95,1492.34C3429.13,1491.87 3427.53,1492.68 3426.31,1492.98C3424.81,1493.35 3423.24,1494.37 3421.85,1494.16C3396.74,1490.38 3371.49,1492.97 3346.32,1492.28C3336.99,1492.02 3327.65,1491.99 3318.32,1492.3C3306.59,1492.7 3294.85,1493.3 3283.16,1494.32C3272.01,1495.29 3260.89,1496.71 3249.82,1498.31C3243.31,1499.25 3236.89,1500.79 3230.47,1502.27C3222.27,1504.15 3214.22,1506.92 3205.93,1508.09C3190.07,1510.35 3175.44,1516.62 3160.27,1521.09C3155.86,1522.39 3151.56,1524.24 3147.43,1526.29C3132.51,1533.7 3115.81,1537.17 3101.75,1546.33C3085.84,1556.69 3067.35,1562.31 3052.15,1574.05C3048.14,1577.15 3045.32,1579.64 3046.01,1584.91C3046.84,1591.28 3044.26,1598.01 3048.03,1604.08C3044.58,1609.13 3046.15,1614.84 3046.1,1620.25C3045.88,1644.93 3041.03,1668.76 3035.08,1692.65C3031.39,1707.47 3027.33,1722.07 3021.92,1736.27C3016.45,1750.65 3014.04,1766.34 3004.31,1778.96C3003.29,1791.89 2994.76,1801.77 2989.58,1812.84C2981.44,1830.22 2970.57,1846.37 2960.37,1862.74C2954.54,1872.11 2947.77,1880.88 2941.35,1889.87C2940.39,1891.21 2939.11,1892.36 2937.83,1893.41C2925.85,1903.19 2916.23,1914.98 2907.39,1927.6C2904.73,1931.41 2900.11,1933.85 2896.37,1936.9C2885.65,1945.63 2875.46,1955.15 2864.03,1962.82C2854.79,1969.02 2847.09,1977.46 2835.43,1980.65C2827.01,1982.95 2819.74,1989.24 2811.78,1993.43C2800.05,1999.6 2787.53,2003.24 2774.26,2004.27C2767.86,2004.77 2761.49,2005.69 2755.09,2006.22C2734.9,2007.88 2717.49,1999.98 2700.9,1989.87C2697.38,1987.73 2694.9,1983.83 2692.05,1980.63C2689.47,1977.74 2687.6,1973.31 2684.43,1972.05C2678.15,1969.55 2676.97,1963.78 2674.21,1959.18C2670.9,1953.67 2668.39,1947.6 2666.12,1941.56C2663.73,1935.2 2660.85,1928.68 2660.31,1922.06C2659.44,1911.54 2656.29,1901.65 2654.28,1891.47C2654.09,1890.52 2653.91,1889.5 2654.06,1888.57C2656.01,1876.45 2652.77,1864.32 2654.08,1852.23C2655.18,1842.09 2656.78,1832 2657.96,1821.87C2658.17,1820.07 2657.81,1816.8 2656.99,1816.55C2655.01,1815.93 2652.28,1816.07 2650.43,1817.03C2645.19,1819.75 2640.49,1823.6 2635.13,1825.99C2620.24,1832.61 2609.82,1835.76 2594.02,1823.94C2585.05,1817.23 2582.08,1809.03 2580.19,1799.59C2578.74,1792.36 2578.86,1784.82 2578,1777.45C2576.63,1765.66 2581.19,1754.64 2582.34,1743.17C2583.24,1734.21 2586.46,1725.51 2587.86,1716.57C2588.52,1712.35 2590.93,1708.79 2591.66,1705.17C2595.58,1685.92 2603.78,1667.99 2608.16,1648.91C2609.32,1643.88 2612.07,1639.22 2614.03,1634.36C2620.71,1617.8 2627.06,1601.09 2634.11,1584.68C2642.88,1564.31 2652.24,1544.19 2661.26,1523.93C2661.69,1522.98 2661.33,1521.68 2661.34,1520.54C2660.63,1521.05 2659.64,1521.4 2659.26,1522.08C2652.5,1533.98 2639.57,1540.59 2633.39,1553.33C2630.39,1559.52 2623.24,1563.6 2618.42,1569.03C2615.99,1571.77 2615.21,1576.12 2612.56,1578.48C2598.42,1591.09 2589.69,1607.96 2577.64,1622.24C2562.38,1640.33 2550.08,1660.89 2535.43,1679.55C2520.94,1698.01 2508.07,1717.56 2494.61,1736.71C2485.74,1749.33 2477.08,1762.09 2468.44,1774.86C2460.35,1786.82 2452.28,1798.81 2444.41,1810.91C2434.18,1826.64 2424.19,1842.54 2414,1858.3C2412.26,1860.98 2409.65,1863.12 2408.1,1865.87C2397.14,1885.24 2383.59,1902.93 2371.94,1921.87C2361.61,1938.67 2351.35,1955.65 2339.43,1971.31C2331.54,1981.7 2324.43,1992.61 2316.55,2002.99C2302.13,2022 2288.96,2041.94 2273.36,2060.09C2268.26,2066.03 2264.31,2072.97 2259.82,2079.44C2259.64,2079.71 2259.38,2079.94 2259.12,2080.15C2243.65,2092.46 2233.14,2109.93 2216.42,2121.01C2211.33,2124.39 2206.74,2128.66 2202.39,2132.99C2193.67,2141.68 2182.83,2146.44 2171.49,2150.19C2146.96,2158.3 2129.11,2150.64 2115.88,2127.98C2108.76,2115.78 2104.1,2102.57 2100.81,2089.3C2098.73,2080.92 2097.06,2071.98 2096.1,2063.17C2095.12,2054.15 2095.7,2044.85 2093.82,2036.05C2090.26,2019.35 2090.7,2002.51 2089.63,1985.69C2089.09,1977.1 2088.37,1968.9 2089.73,1960.27C2090.65,1954.47 2088.34,1948.22 2088.17,1942.15C2088.06,1938.43 2087.73,1934.78 2089.65,1930.79C2091.24,1927.49 2089.5,1922.55 2089.12,1918.35C2088.86,1915.49 2087.71,1912.54 2088.14,1909.83C2091.39,1889.48 2091.51,1868.98 2092.46,1848.49C2092.85,1840.18 2092.43,1831.3 2095.88,1823.06C2097.29,1819.68 2094.56,1816.06 2095.59,1811.68C2097.72,1802.63 2096.63,1792.87 2098.22,1783.64C2100.2,1772.13 2098.48,1760.01 2103.92,1749.04C2104.49,1747.9 2103.49,1745.99 2103.22,1744.43C2101.85,1745.01 2100.34,1745.38 2099.13,1746.2C2092.6,1750.61 2086.29,1755.35 2079.64,1759.55C2069.63,1765.88 2059.76,1772.56 2049.2,1777.81C2035.43,1784.66 2022.26,1792.99 2006.87,1796.36C2001.51,1797.53 1996.56,1800.56 1991.22,1801.92C1983.91,1803.77 1976.46,1805.34 1968.97,1806.06C1964.07,1806.53 1962.11,1808.02 1961.93,1813.04C1961.62,1822.44 1961.48,1831.96 1959.85,1841.18C1957.52,1854.37 1953.39,1867.25 1950.99,1880.43C1947.67,1898.59 1940.71,1915.45 1934,1932.43C1927.14,1949.8 1918.44,1966.17 1907.82,1981.61C1897.67,1996.38 1883.47,2006.74 1869.58,2017.2C1862.31,2022.67 1852.97,2025.54 1843.42,2026.3C1839.67,2026.6 1835.88,2028.43 1832.26,2028.06C1825.1,2027.31 1817.39,2026.88 1811.07,2023.88C1794.99,2016.24 1781.17,2005.85 1775.91,1987.33C1774.66,1982.96 1771.9,1978.99 1769.68,1974.92C1767.21,1970.39 1766.16,1965.65 1765.91,1960.44C1765.52,1952.56 1763.49,1944.81 1762.4,1937.04C1761.26,1928.81 1763.05,1920.18 1763.55,1911.72C1763.71,1909.12 1764.03,1906.52 1764.01,1903.92C1763.9,1893.28 1765.32,1882.89 1767.91,1872.55C1769.22,1867.33 1768.54,1861.84 1769.59,1856.32C1771.75,1844.9 1776.1,1834.19 1778.56,1822.91C1782.79,1803.51 1791.67,1785.73 1799.54,1767.63C1799.92,1766.74 1799.23,1765.38 1799.04,1764.25C1798.14,1764.48 1796.95,1764.42 1796.38,1764.98C1787.22,1773.96 1774.79,1777.43 1764.21,1784.04C1750.57,1792.56 1736.17,1799.88 1721.88,1807.3C1705.45,1815.85 1688.73,1823.84 1672.25,1832.3C1666.44,1835.27 1661.15,1839.25 1655.32,1842.15C1647.88,1845.85 1640.05,1848.75 1632.53,1852.29C1627.49,1854.67 1622.74,1857.62 1617.81,1860.23C1611.8,1863.4 1605.73,1866.46 1599.69,1869.59C1588.98,1875.13 1578.27,1880.66 1567.59,1886.25C1563.35,1888.48 1561.5,1892.56 1560.08,1896.8C1559.19,1899.45 1558.81,1902.27 1558.02,1904.95C1554.35,1917.43 1550.61,1929.88 1546.94,1942.36C1546.63,1943.44 1546.34,1944.72 1546.62,1945.75C1549.69,1957.13 1554.35,1968.32 1555.66,1979.89C1557.28,1994.15 1560.39,2008.21 1562.76,2022.24C1565.15,2036.44 1566.03,2050.78 1567.46,2064.93C1568.95,2079.71 1569.52,2094.97 1566.36,2110.11C1564.56,2118.74 1566.86,2128.14 1565.83,2137.02C1564.45,2148.96 1564.87,2161.16 1560.7,2172.82C1558.81,2178.1 1559.17,2184.14 1557.97,2189.71C1555.22,2202.54 1552.69,2215.45 1549.04,2228.02C1545.79,2239.27 1544.5,2251.24 1538.03,2261.44C1536.85,2279.47 1525.59,2293.62 1519.5,2309.76C1518.41,2312.64 1517.46,2315.62 1515.99,2318.3C1507.68,2333.46 1499.79,2348.93 1487.63,2361.53C1484.3,2364.98 1480.27,2367.77 1476.48,2370.76C1472.69,2373.75 1460.15,2372.46 1455.54,2368.76C1449.44,2363.85 1446.85,2357.05 1446.15,2349.68C1445.41,2341.97 1447.06,2334.04 1444.03,2326.52C1442.51,2322.73 1446.85,2318.98 1444.08,2315.2C1448.13,2310.21 1445.69,2304.39 1445.9,2299C1446.29,2288.72 1447.04,2278.56 1450.01,2268.66C1450.19,2268.05 1449.98,2267.33 1450.04,2266.66C1450.7,2259.61 1451.21,2252.53 1452.07,2245.5C1453.96,2229.98 1455.06,2214.28 1458.28,2199.03C1462.47,2179.18 1465.49,2159.09 1471.25,2139.5C1473.59,2131.55 1473.83,2122.71 1475.99,2114.42C1477.56,2108.37 1478.6,2102.18 1480.05,2096.1C1484.11,2079.1 1487.29,2061.93 1491.55,2044.94C1496.02,2027.1 1500.66,2009.2 1504.2,1991.07C1506.4,1979.85 1510.77,1969.06 1513.2,1957.87C1514.92,1949.92 1516.76,1942.13 1519.92,1934.62C1520.59,1933.01 1520.4,1930.42 1519.53,1928.89C1513.04,1917.51 1516.9,1905.77 1518.17,1894.17C1518.35,1892.55 1520.47,1891.17 1521.62,1889.64C1525.65,1884.31 1529.49,1878.83 1533.7,1873.66C1536.75,1869.94 1539.02,1866.55 1540.54,1861.42C1545.09,1846.08 1548.28,1830.17 1555.56,1815.69C1555.83,1815.15 1556.07,1814.47 1556,1813.9C1555.78,1812.02 1555.4,1810.16 1555.08,1808.29C1554.07,1809.5 1553.01,1810.68 1552.04,1811.93C1545.97,1819.75 1539.94,1827.59 1533.87,1835.4C1521.79,1850.95 1507.17,1864.29 1494.62,1879.29C1480.87,1895.74 1464.74,1909.29 1448.24,1922.32C1440.35,1928.55 1433,1935.24 1425.36,1941.69C1420.13,1946.1 1414.07,1949.6 1408.12,1953.07C1396.87,1959.63 1385.92,1967.07 1373.94,1971.92C1360.21,1977.48 1346.31,1982.55 1331.11,1984.73C1309.71,1987.82 1291.72,1980.99 1276.3,1968.71C1263.85,1958.8 1254.68,1944.75 1250.15,1928.86C1246.62,1916.52 1242.8,1904.34 1241.51,1891.26C1240.67,1882.82 1240.68,1874.42 1240.01,1866.03C1239.91,1864.8 1239.46,1863.6 1239.18,1862.38C1238.24,1863.23 1236.69,1863.93 1236.45,1864.94C1234.27,1873.91 1227.83,1880.76 1224.54,1889.03C1220.51,1899.16 1215.44,1908.61 1210.15,1918.09C1204.29,1928.58 1199.59,1939.72 1193.98,1950.36C1185.9,1965.7 1176.23,1980.34 1169.51,1996.23C1161.84,2014.35 1150.2,2030.09 1141.78,2047.73C1133.12,2065.88 1121.01,2082.45 1113.05,2100.85C1106.58,2115.84 1094.1,2127.26 1089.99,2143.29C1078.66,2157.18 1072.35,2174.11 1062.51,2188.93C1053.9,2201.91 1046.38,2215.61 1037.98,2228.73C1028.19,2244.01 1019.88,2260.15 1008.89,2274.77C998.206,2289 989.745,2304.88 979.546,2319.5C972.225,2329.99 963.778,2339.72 955.604,2349.6C947.756,2359.09 940.614,2369.5 931.357,2377.39C918.416,2388.41 907.238,2401.91 889.958,2407.55C866.975,2415.04 847.703,2400.85 843.896,2380.02C842.604,2372.95 839.409,2366.27 839.525,2358.82C839.569,2356.05 838.043,2353.25 838.118,2350.48C838.624,2331.75 838.884,2313 840.244,2294.32C840.898,2285.34 843.991,2276.56 845.57,2267.62C846.735,2261.01 846.751,2254.19 848.124,2247.64C852.55,2226.53 857.049,2205.41 862.161,2184.45C864.941,2173.06 869.152,2162.02 872.461,2150.75C874.563,2143.59 875.323,2135.92 878.213,2129.13C884.527,2114.29 885.053,2097.58 893.567,2083.46C895.4,2080.42 896.043,2076.15 895.844,2072.52C895.574,2067.6 898.593,2064.24 900.049,2060.17C905.345,2045.37 910.689,2030.58 916.045,2015.8C916.968,2013.25 918.034,2010.76 919.534,2007.74M1414.03,1497.24C1410.03,1506.25 1406.16,1515.32 1402.01,1524.26C1393.43,1542.71 1385.1,1561.29 1375.92,1579.43C1366.87,1597.34 1359.91,1616.19 1350.18,1633.79C1344.08,1644.82 1339.44,1656.65 1333.99,1668.05C1332.26,1671.68 1329.77,1674.96 1328.08,1678.61C1322.92,1689.79 1318.16,1701.17 1312.89,1712.3C1307.49,1723.74 1301.7,1735 1296.03,1746.31C1287.58,1763.14 1280.86,1780.78 1270.88,1796.95C1267.54,1802.38 1264.68,1809.31 1265.85,1816.9C1266.76,1822.76 1268.16,1830.09 1265.57,1834.6C1260.99,1842.57 1270.02,1850.29 1264.13,1857.34C1267.33,1865.16 1266,1873.72 1268.08,1881.7C1270.35,1890.43 1270.02,1899.76 1274.62,1908C1276.39,1911.16 1276.97,1915.01 1278.03,1918.57C1282.59,1933.9 1294.61,1947.79 1310.84,1950.12C1330.89,1953 1348.96,1946.1 1366.3,1936.94C1373.97,1932.88 1380.46,1927.04 1388.9,1923.88C1394.61,1921.75 1398.95,1916.1 1404.08,1912.27C1412.41,1906.06 1421.84,1901 1429.11,1893.76C1442.4,1880.5 1458.37,1870.16 1470.16,1855.27C1476.25,1847.6 1483.29,1840.69 1489.86,1833.4C1501.89,1820.07 1514.04,1806.82 1525.87,1793.31C1532.85,1785.33 1539.61,1777.12 1545.97,1768.64C1556.23,1754.98 1566.34,1741.18 1576.03,1727.1C1583.1,1716.82 1589.18,1705.86 1596.1,1695.46C1602.9,1685.23 1603.98,1672.86 1609.65,1662.03C1616.74,1648.48 1621.68,1633.72 1627.48,1619.47C1636.91,1596.33 1647.19,1573.62 1658.07,1551.15C1666.4,1533.93 1674.91,1516.79 1683.6,1499.75C1689.51,1488.17 1695.42,1476.55 1702.23,1465.51C1705.54,1460.14 1707.31,1453.64 1710.82,1449.18C1719.26,1438.43 1723.12,1425.03 1732.27,1414.89C1733.14,1413.92 1733.19,1412.2 1733.62,1410.83C1732.05,1410.67 1730.44,1410.22 1728.92,1410.42C1725.82,1410.84 1722.79,1411.95 1719.69,1412.16C1715.04,1412.47 1710.31,1411.78 1705.71,1412.34C1697.88,1413.3 1690.17,1415.21 1682.35,1416.15C1675.32,1417 1668.31,1416.44 1661.12,1417.9C1648.59,1420.45 1635.63,1420.87 1622.86,1422.26C1616.83,1422.91 1610.8,1423.61 1604.8,1424.51C1597.3,1425.64 1589.84,1427.05 1582.35,1428.2C1579.78,1428.6 1577.1,1428.29 1574.56,1428.77C1561.58,1431.17 1548.71,1434.29 1535.65,1436.08C1522.45,1437.9 1509.22,1438.95 1496.12,1442.01C1478.04,1446.24 1459.51,1448.4 1441.22,1451.65C1432.85,1453.13 1430.74,1457.74 1428.15,1463.1C1423.08,1473.64 1418.7,1484.51 1414.03,1497.24M2398.03,1117.24C2397.37,1113.51 2395.95,1109.74 2396.18,1106.07C2396.8,1096.06 2393.25,1087.59 2388.22,1079.31C2384.08,1072.5 2379.16,1069.67 2372.58,1072.93C2364.47,1076.96 2355.5,1079.9 2349.65,1087.6C2339.82,1100.54 2329.79,1113.32 2320.06,1126.33C2307.34,1143.35 2300.66,1163.66 2290.21,1181.94C2285.82,1189.62 2283.56,1198.49 2279.99,1206.66C2273.47,1221.62 2266.03,1236.22 2260.19,1251.43C2251.58,1273.86 2242.53,1296.32 2236.58,1319.52C2232.78,1334.29 2226.56,1348.17 2223.35,1363.21C2220.03,1378.77 2213.91,1393.89 2209.76,1409.44C2208.89,1412.69 2206.8,1415.64 2206.12,1418.9C2203.42,1432.02 2201.24,1445.25 2196.05,1457.73C2192.22,1466.94 2190.42,1477.05 2188.78,1486.51C2186.9,1497.41 2184.35,1508.39 2181.42,1518.7C2175.64,1539.08 2172.11,1559.95 2166.61,1580.37C2163.39,1592.32 2162.5,1605.29 2159.99,1617.69C2158.25,1626.25 2155.91,1634.68 2154.11,1643.22C2152.55,1650.61 2151.34,1658.08 2150.09,1665.54C2149.96,1666.34 2150.64,1667.28 2150.95,1668.15C2151.97,1667.69 2153.37,1667.52 2153.97,1666.74C2157.27,1662.48 2160.02,1657.77 2163.61,1653.79C2173.31,1643.05 2183.33,1632.61 2193.23,1622.05C2194.14,1621.08 2195.24,1620.26 2196.01,1619.2C2203.12,1609.5 2210.19,1599.77 2217.24,1590.03C2224.85,1579.52 2232.73,1569.2 2239.95,1558.44C2247.78,1546.78 2255.15,1534.8 2262.42,1522.78C2269.81,1510.56 2277.14,1498.28 2283.95,1485.73C2290.57,1473.53 2296.41,1460.91 2302.76,1448.56C2308.4,1437.56 2314.51,1426.79 2319.95,1415.69C2324.01,1407.41 2327.41,1398.8 2330.97,1390.28C2336.06,1378.06 2341.46,1365.95 2345.93,1353.51C2352.81,1334.35 2360.09,1315.33 2365.63,1295.7C2370.51,1278.39 2376.7,1261.45 2380.1,1243.71C2381.5,1236.38 2384.03,1229.26 2385.25,1221.9C2387.2,1210.11 2392.53,1199.04 2392.18,1186.71C2392,1180.35 2392.72,1173.79 2394.19,1167.59C2396.32,1158.54 2397.72,1149.47 2397.99,1140.23C2398.2,1133.24 2398.03,1126.24 2398.03,1117.24M2904.03,1643.24C2906.12,1641.82 2908.3,1640.54 2910.26,1638.97C2923.8,1628.17 2937.17,1617.16 2950.83,1606.52C2967.83,1593.27 2984.5,1579.55 3002.88,1568.13C3006.18,1566.08 3009.69,1563.06 3011.07,1559.66C3011.97,1557.46 3009.19,1553.75 3008.03,1550.72C3006.71,1547.27 3004.96,1543.92 3004.11,1540.36C3000.56,1525.61 2990.37,1515.06 2979.09,1507.02C2966.2,1497.84 2950.61,1492.88 2934.35,1492.39C2929.33,1492.23 2923.82,1490.36 2919.14,1494.13C2913.52,1489.35 2909.25,1493.79 2904.65,1496.2C2904.13,1496.48 2903.33,1496.2 2902.67,1496.25C2892.88,1496.96 2883.52,1499.81 2875.09,1504.43C2861.18,1512.07 2847.48,1520.24 2834.41,1529.23C2827.71,1533.84 2822.53,1540.68 2816.72,1546.57C2803.24,1560.23 2792.25,1575.7 2784.28,1593.12C2777.42,1608.12 2770.58,1622.85 2769.39,1640.16C2768.7,1650.18 2767.38,1660.07 2770.32,1669.45C2773,1677.96 2777.57,1685.2 2787.81,1688.65C2798.87,1692.37 2809.29,1689.77 2819.1,1687.58C2837.82,1683.41 2855.11,1674.73 2871.28,1664.08C2881.69,1657.22 2892.44,1650.84 2904.03,1643.24M1548.03,2077.24C1550.08,2059.43 1544.55,2042.2 1543.89,2024.57C1543.71,2019.66 1541.13,2014.85 1540.9,2009.93C1540.54,2002.33 1535.61,1995.48 1537.57,1987.55C1537.75,1986.83 1536.26,1985.7 1535.55,1984.75C1535.04,1985.53 1534.48,1986.28 1534.05,1987.1C1533.33,1988.47 1532.43,1989.81 1532.08,1991.28C1528.47,2006.12 1525.06,2021.02 1521.39,2035.85C1517.73,2050.64 1513.68,2065.33 1510.08,2080.13C1506.38,2095.3 1504.06,2110.89 1499.18,2125.64C1495.47,2136.86 1494.55,2148.35 1492.07,2159.65C1490.53,2166.71 1489.52,2173.9 1488,2180.97C1486.16,2189.5 1483.63,2197.91 1482.13,2206.5C1479.78,2219.94 1478.01,2233.48 1476.05,2246.99C1475.31,2252.03 1474.65,2257.09 1474.05,2262.15C1473.33,2268.2 1473.13,2274.35 1471.94,2280.3C1469.6,2291.99 1467.95,2303.71 1468.03,2315.65C1468.07,2323.64 1467.97,2331.64 1468.12,2339.64C1468.14,2340.52 1469.36,2341.37 1470.02,2342.24C1470.69,2341.72 1471.61,2341.33 1472,2340.65C1478.78,2328.8 1485.66,2317.01 1492.16,2305.01C1495.38,2299.06 1497.25,2292.33 1500.84,2286.65C1508.68,2274.2 1513.05,2260.38 1518.07,2246.77C1519.87,2241.86 1522.47,2237.21 1523.95,2232.22C1527.29,2220.91 1530.13,2209.45 1533.22,2198.06C1534.77,2192.38 1536.9,2186.81 1537.93,2181.05C1539.65,2171.34 1539.77,2161.26 1542.25,2151.79C1546.18,2136.77 1547.78,2121.62 1548.01,2106.23C1548.14,2097.24 1548.03,2088.24 1548.03,2077.24M1323.03,1638.24C1326.03,1633.16 1329.36,1628.24 1331.97,1622.96C1339.49,1607.79 1346.66,1592.43 1354.11,1577.22C1357.23,1570.84 1361.01,1564.78 1363.97,1558.33C1370.26,1544.64 1375.42,1530.36 1382.55,1517.13C1387.55,1507.85 1391.22,1498.05 1395.99,1488.71C1400.33,1480.21 1404.29,1471.52 1408.35,1462.88C1408.95,1461.6 1409.18,1460.15 1409.57,1458.78C1408.01,1458.65 1406.35,1458.14 1404.89,1458.46C1393.63,1460.96 1382.35,1463.39 1371.2,1466.35C1366.51,1467.59 1360.91,1467.89 1359.81,1474.97C1359.28,1478.41 1356.16,1481.38 1354.6,1484.74C1350.3,1493.94 1345.87,1503.09 1342.12,1512.52C1337.92,1523.1 1334.52,1534 1330.55,1544.68C1325.84,1557.36 1320.46,1569.82 1316.15,1582.63C1311.63,1596.11 1307.89,1609.87 1304.07,1623.57C1299.91,1638.51 1296.09,1653.54 1292.01,1668.51C1290.14,1675.37 1288.19,1682.22 1286,1688.99C1282.64,1699.36 1282.88,1710.63 1278.07,1720.65C1277.81,1721.19 1277.95,1721.98 1278.05,1722.63C1278.33,1724.5 1278.68,1726.35 1279.01,1728.22C1280.02,1726.65 1281.34,1725.2 1281.98,1723.5C1284.46,1716.84 1286.17,1709.95 1290.87,1704.16C1293.31,1701.15 1294.34,1697 1296.04,1693.38C1300.23,1684.46 1303.96,1675.28 1308.77,1666.71C1313.77,1657.8 1319.35,1649.24 1323.03,1638.24M1388.03,1415.24C1384.03,1423.23 1380.03,1431.22 1376.04,1439.21C1375.37,1440.57 1374.77,1441.96 1374.13,1443.34C1375.93,1443.47 1377.83,1444.03 1379.52,1443.67C1390.49,1441.3 1401.35,1438.32 1412.39,1436.4C1418.52,1435.34 1422.42,1431.99 1423.89,1426.8C1430.12,1404.82 1441.15,1384.64 1447.17,1362.52C1450.36,1350.83 1453.24,1339.09 1455.92,1327.29C1456.26,1325.79 1455.03,1323.93 1454.53,1322.24C1453.7,1322.6 1452.54,1322.72 1452.08,1323.35C1444,1334.44 1432.26,1342.45 1425.91,1355.06C1423.39,1360.07 1419.36,1364.3 1416.27,1369.05C1409.85,1378.97 1402.12,1388 1397.69,1399.28C1395.68,1404.41 1391.33,1408.61 1388.03,1415.24M597.034,1944.24C598.596,1944.01 601.159,1944.28 601.558,1943.47C604.308,1937.93 597.767,1921.89 592.381,1920.24C580.947,1916.74 566.379,1929.1 568.207,1941.07C568.497,1942.97 571.04,1945.96 572.603,1946C580.402,1946.19 588.222,1945.57 597.034,1944.24Z" style="fill:#fff;fill-rule:nonzero;"/>
    <path d="M495.534,1777.74C479.717,1791.05 464.831,1804.34 449.259,1816.9C434.804,1828.56 418.84,1838.03 404.785,1850.17C398.248,1855.81 390.171,1859.7 382.688,1864.22C366.434,1874.02 350.311,1884.07 333.743,1893.32C324.359,1898.55 314.157,1902.31 304.402,1906.9C289.061,1914.12 273.943,1921.84 258.444,1928.7C238.459,1937.55 218.307,1946.05 198.005,1954.14C184.269,1959.61 170.155,1964.14 156.199,1969.06C152.996,1970.19 149.71,1972.18 146.525,1972.06C135.001,1971.64 131.406,1980.03 128.145,1988.23C122.115,2003.4 116.574,2018.78 111.174,2034.19C107.802,2043.81 105.745,2053.93 101.869,2063.33C96.44,2076.48 95.473,2090.22 93.838,2104.05C92.211,2117.81 91.642,2131.75 89.563,2145.33C86.986,2162.16 85.395,2178.97 83.59,2195.85C82.074,2210.01 81.716,2224.38 78.323,2238.47C75.569,2249.9 75.607,2261.99 73.968,2273.72C72.264,2285.93 69.847,2298.04 68.09,2310.24C66.495,2321.32 65.664,2332.5 63.946,2343.55C62.404,2353.47 59.152,2363.2 58.414,2373.14C57.631,2383.69 55.186,2393.73 51.847,2403.51C49.072,2411.64 45.639,2419.93 37.071,2424.2C28.554,2428.44 17.176,2425.93 11.198,2418.37C6.806,2412.82 4.936,2406.26 4.016,2399.35C3.684,2396.86 2.572,2394.33 2.796,2391.91C3.945,2379.51 -3.331,2367.34 1.936,2354.81C2.65,2353.11 2.061,2350.85 2.03,2348.85C1.796,2333.6 2.501,2318.5 5.832,2303.48C7.635,2295.34 7.008,2286.7 8.133,2278.37C9.311,2269.65 11.254,2261.03 12.904,2252.38C13.55,2249 14.343,2245.64 15.006,2242.26C16.701,2233.62 18.12,2224.93 20.101,2216.36C22.129,2207.59 24.622,2198.93 27.037,2190.26C31.796,2173.16 37.279,2156.26 40.091,2138.67C40.526,2135.95 41.303,2133.12 42.661,2130.76C44.778,2127.1 46.619,2123.58 46.125,2119.14C46.007,2118.08 46.786,2116.69 47.548,2115.79C52.815,2109.57 52.498,2101.24 55.677,2094.14C58.676,2087.44 58.093,2079.23 60.173,2072C63.529,2060.34 60.654,2047.81 65.826,2036.37C67.202,2033.32 66.067,2029.13 66.028,2025.46C65.926,2015.81 68.72,2006.46 69.461,1997.08C70.057,1989.55 71.346,1982.12 72.013,1974.62C73.415,1958.85 74.018,1942.97 76.241,1927.32C78.166,1913.78 79.133,1900.23 80.323,1886.64C81.529,1872.87 83.147,1859.12 84.385,1845.32C85.441,1833.55 86.275,1821.63 88.269,1810C90.567,1796.58 91.295,1783.15 92.403,1769.66C93.425,1757.22 95.242,1744.82 96.326,1732.32C97.491,1718.88 99.665,1705.54 100.216,1691.97C100.628,1681.82 102.551,1671.72 104.135,1661.65C104.552,1658.99 105.752,1656.18 107.394,1654.06C110.039,1650.65 116.369,1651.63 117.963,1655.56C119.007,1658.12 119.828,1660.95 119.959,1663.7C120.775,1680.74 122.753,1697.9 121.566,1714.82C120.719,1726.9 119.696,1738.97 120.238,1751C120.754,1762.49 119.977,1773.9 119.898,1785.34C119.798,1799.73 118.98,1814.14 117.904,1828.49C117.439,1834.7 115.337,1840.78 114.447,1846.98C114.174,1848.87 116.046,1851.03 115.922,1853C115.581,1858.41 114.631,1863.78 114.054,1869.18C113.505,1874.31 113.142,1879.47 112.653,1884.61C112.534,1885.86 112.11,1887.09 112.055,1888.34C111.357,1904.06 110.962,1919.8 109.879,1935.49C109.544,1940.34 107.21,1945.02 106.138,1949.86C105.847,1951.18 106.824,1952.77 107.218,1954.24C108.157,1953.32 109.451,1952.56 109.972,1951.44C112.184,1946.7 113.992,1941.77 116.262,1937.06C124.428,1920.11 132.43,1903.07 141.062,1886.36C147.605,1873.69 155.257,1861.6 161.916,1848.98C164.647,1843.81 166.191,1838.24 169.67,1833.14C176.274,1823.47 181.125,1812.61 186.944,1802.39C192.481,1792.66 198.201,1783.03 204.066,1773.49C211.266,1761.78 218.486,1750.08 226.097,1738.64C233.261,1727.87 241.047,1717.52 248.369,1706.85C254.402,1698.06 260.008,1688.98 266.092,1680.23C269.557,1675.24 273.596,1670.65 277.381,1665.89C282.563,1659.37 288.385,1653.26 292.779,1646.25C299.051,1636.24 307.497,1628.32 315.345,1619.77C320.735,1613.89 325.1,1607.08 330.344,1601.06C334.673,1596.09 339.528,1591.56 344.308,1587C356.427,1575.44 367.985,1563.17 380.961,1552.66C399.845,1537.36 418.884,1522.24 440.076,1509.87C450.011,1504.07 460.275,1498.89 470.28,1493.27C483.829,1485.66 498.593,1480.64 514.026,1478.33C526.067,1476.53 538.242,1474.45 550.342,1474.54C563.795,1474.64 577.084,1477.85 589.157,1484.3C600.405,1490.3 608.824,1499.35 616.143,1509.78C624.916,1522.28 629.364,1535.8 630.271,1551.03C630.697,1558.19 628.611,1564.88 628.494,1571.56C628.279,1583.94 622.681,1594.99 621.986,1607.05C621.919,1608.23 621.265,1609.41 620.739,1610.52C615.187,1622.21 609.686,1633.94 603.984,1645.56C602.344,1648.9 599.886,1651.84 598.171,1655.16C588.001,1674.82 573.191,1691.34 561.194,1709.77C557.489,1715.46 551.441,1719.59 546.702,1724.66C543.638,1727.93 541.262,1731.86 538.129,1735.05C526.308,1747.1 514.302,1758.97 502.366,1770.91C500.256,1773.02 498.145,1775.13 495.534,1777.74M213.034,1818.24C205.491,1831.78 197.803,1845.25 190.462,1858.9C186.375,1866.5 182.971,1874.46 179.069,1882.17C173.482,1893.19 167.758,1904.15 162.023,1915.1C157.153,1924.4 154.959,1934.97 148.171,1943.41C146.58,1945.39 146.469,1948.72 146.099,1951.48C145.731,1954.23 147.126,1954.96 149.617,1953.67C153.18,1951.82 156.602,1949.42 160.393,1948.35C178.606,1943.18 195.093,1933.92 212.415,1926.66C222.354,1922.5 232.201,1918.2 241.645,1912.59C255.624,1904.29 271.371,1899.03 285.729,1891.29C303.78,1881.57 321.416,1871.01 338.806,1860.13C353.996,1850.63 367.627,1838.76 383.312,1829.94C385.217,1828.87 387.136,1827.75 388.835,1826.39C402.613,1815.36 416.453,1804.4 430.05,1793.15C443.508,1782.02 456.833,1770.71 469.959,1759.19C475.914,1753.96 481.247,1748.03 486.863,1742.41C487.57,1741.7 488.217,1740.92 488.994,1740.3C491.991,1737.91 495.358,1735.89 497.986,1733.15C503.626,1727.28 508.783,1720.94 514.338,1714.98C524.01,1704.6 533.524,1694.3 541.509,1682.32C550.761,1668.42 562.311,1656.08 570.239,1641.15C573.309,1635.37 577.915,1630.35 580.611,1624.43C584.947,1614.92 588.438,1605.01 591.988,1595.16C595.287,1586.01 596.666,1576.36 598.848,1566.93C601.775,1554.29 600.154,1542.13 595.38,1531.45C591.66,1523.13 583.247,1516.31 575.654,1510.47C566.368,1503.33 553.843,1502.68 543.173,1502.97C531.387,1503.3 519.226,1506.64 507.323,1509.65C490.646,1513.86 476.161,1521.82 461.671,1529.93C447.382,1537.93 433.575,1546.81 421.09,1557.79C411.25,1566.45 399.7,1573.14 390.508,1582.72C385.012,1588.45 379.416,1594.1 373.642,1599.55C369.898,1603.08 365.445,1605.89 361.858,1609.56C356.4,1615.14 351.4,1621.17 346.238,1627.05C341.736,1632.17 337.068,1637.16 332.844,1642.51C323.748,1654.02 314.955,1665.77 305.917,1677.32C298.093,1687.32 289.363,1696.59 283.184,1707.89C280.166,1713.4 275.612,1718.06 272.036,1723.29C264.602,1734.18 257.167,1745.08 250.084,1756.19C241.876,1769.08 233.924,1782.13 226.101,1795.25C221.822,1802.43 218.04,1809.9 213.034,1818.24Z" style="fill:#fff;fill-rule:nonzero;"/>
    <path d="M2797.53,1339.74C2791.73,1340.24 2786.42,1340.01 2781.13,1340.29C2771.57,1340.79 2764.92,1335.02 2760.68,1325.78C2758.41,1320.85 2762.66,1311.24 2768.22,1308.29C2772.27,1306.14 2776.48,1304.19 2780.79,1302.66C2782.3,1302.12 2784.39,1302.89 2786.12,1303.38C2789.08,1304.2 2791.9,1305.57 2794.89,1306.17C2799.17,1307.03 2802.51,1308.48 2802.41,1313.61C2811.58,1314.33 2807.01,1321.38 2808.03,1325.84C2809.92,1334.18 2803.12,1336.08 2797.53,1339.74Z" style="fill:#fff;fill-rule:nonzero;"/>
</svg>
