<?xml version="1.0" encoding="UTF-8" standalone="no"?>
<!DOCTYPE svg PUBLIC "-//W3C//DTD SVG 1.1//EN" "http://www.w3.org/Graphics/SVG/1.1/DTD/svg11.dtd">
<svg width="100%" height="100%" viewBox="0 0 3674 3674" version="1.1" xmlns="http://www.w3.org/2000/svg" xmlns:xlink="http://www.w3.org/1999/xlink" xml:space="preserve" xmlns:serif="http://www.serif.com/" style="fill-rule:evenodd;clip-rule:evenodd;stroke-linejoin:round;stroke-miterlimit:2;">
    <path d="M1977.57,1866.85C1978.07,1865.02 1977.49,1863.11 1978.16,1862.44C1984.45,1856.12 1985.95,1847.71 1988.78,1839.78C1992.61,1829.02 1997.94,1818.9 2003.39,1808.83C2006.3,1803.46 2007.58,1797.23 2010.16,1791.65C2012.37,1786.88 2015.67,1782.62 2018.02,1777.9C2026.26,1761.32 2033.78,1744.37 2042.56,1728.09C2050.82,1712.76 2060.28,1698.07 2069.3,1683.15C2073.66,1675.94 2078.08,1668.74 2082.75,1661.73C2091.11,1649.16 2099.6,1636.68 2108.19,1624.26C2120.73,1606.14 2134.5,1588.98 2148.32,1571.82C2161.18,1555.84 2174.32,1540.2 2188.73,1525.59C2196.09,1518.13 2202.73,1509.98 2210.08,1502.51C2213.38,1499.16 2210.62,1499.34 2208.6,1498.92C2205.5,1498.29 2202.38,1497.58 2199.24,1497.4C2175.38,1496.01 2152.91,1489.02 2132.92,1476.59C2118.93,1467.9 2109.11,1454.78 2105.63,1437.26C2104.14,1429.79 2101.37,1422.54 2102.13,1414.83C2104.69,1389.08 2114.06,1367.34 2135.3,1350.55C2150.22,1338.75 2166.95,1332.21 2184.3,1326.12C2184.87,1325.91 2185.41,1325.42 2185.98,1325.38C2195.7,1324.67 2205.53,1322.85 2215.12,1323.69C2224.27,1324.5 2233.22,1327.95 2242.18,1330.55C2246.6,1331.83 2250.86,1333.7 2255.14,1335.45C2266.85,1340.23 2275.94,1348.67 2283.56,1358.23C2289.62,1365.84 2291.06,1375.67 2289.98,1385.44C2289.55,1389.35 2284.77,1390.88 2281.84,1387.95C2277.73,1383.85 2273.83,1379.43 2270.52,1374.67C2262.75,1363.54 2249.41,1354.96 2236.36,1351.14C2226.27,1348.2 2216.39,1345 2205.78,1345.38C2194.99,1345.77 2185.05,1349.04 2174.96,1353.02C2164.21,1357.26 2155.16,1363.63 2146.14,1370.34C2138.48,1376.04 2134.4,1384.71 2130.38,1392.81C2126.87,1399.9 2124.57,1408.29 2124.37,1416.18C2123.94,1433.79 2128.26,1449.78 2144.25,1460.71C2158.99,1470.79 2174.84,1477.11 2192.54,1479.47C2202.8,1480.83 2212.9,1483.36 2223.07,1485.35C2233.41,1487.38 2236.66,1495.65 2230.47,1503.97C2219.42,1518.82 2207.2,1532.65 2194.48,1546.11C2188.33,1552.62 2182.99,1559.93 2177.45,1567.01C2170.98,1575.29 2164.62,1583.66 2158.35,1592.1C2149.09,1604.57 2139.52,1616.85 2130.86,1629.73C2117.05,1650.25 2103.75,1671.11 2090.53,1692.02C2086.25,1698.8 2082.95,1706.2 2079.13,1713.27C2072.81,1724.99 2066.16,1736.54 2060.14,1748.41C2053.17,1762.16 2046.75,1776.19 2040.06,1790.09C2028.98,1813.15 2019.36,1836.83 2009.37,1860.37C2001.16,1879.74 1994.01,1899.38 1987.28,1919.22C1983.32,1930.91 1978.47,1942.43 1975.13,1954.11C1971.91,1965.39 1968.46,1976.82 1965.98,1988.42C1963.51,1999.99 1960.23,2011.38 1957.57,2022.91C1955.52,2031.77 1953.88,2040.72 1952.07,2049.64C1950.06,2059.47 1946.9,2069.25 1946.35,2079.17C1945.58,2093.05 1942.48,2106.57 1941.41,2120.44C1939.78,2141.58 1939.17,2162.74 1940.56,2183.63C1942.1,2206.58 1946.06,2229.69 1960.03,2249.4C1964,2254.99 1973.11,2259.46 1979.1,2257.12C1987.81,2253.73 1996.37,2249.88 2003.34,2243.16C2020.73,2226.37 2035,2207.26 2046,2185.8C2055.01,2168.24 2064.02,2150.62 2071.91,2132.54C2081.26,2111.09 2089.33,2089.09 2098.09,2067.39C2110.1,2037.61 2119.9,2007.07 2130.46,1976.77C2138.77,1952.9 2146.81,1928.91 2155.22,1905.06C2161.39,1887.59 2166.16,1869.62 2172.39,1852.16C2184.3,1818.79 2195.09,1785 2209.71,1752.63C2216.16,1738.32 2221.57,1723.52 2228.22,1709.31C2232.09,1701.05 2236.71,1693.09 2243.64,1686.64C2252.18,1678.68 2261.01,1679.92 2266.93,1687.38C2272.94,1694.95 2278.2,1702.89 2280.25,1712.86C2282.67,1724.7 2286.57,1736.22 2289.59,1747.95C2290.76,1752.52 2291.53,1757.24 2292.01,1761.93C2292.88,1770.64 2293.31,1779.38 2294.1,1788.1C2294.59,1793.5 2295.48,1798.87 2296.04,1804.27C2296.58,1809.35 2294.81,1814.67 2297.98,1819.5C2298.59,1820.43 2298.04,1822.11 2298.07,1823.44C2298.73,1849.17 2299.39,1874.89 2300.1,1900.61C2300.14,1902.16 2300.66,1903.7 2300.96,1905.24C2301.9,1903.71 2303.55,1902.23 2303.67,1900.62C2304.56,1889.25 2309.02,1878.84 2312.12,1868.08C2315.98,1854.7 2319.99,1841.37 2324.36,1828.15C2327.94,1817.33 2331.74,1806.54 2336.15,1796.04C2345,1774.97 2353.38,1753.62 2366.18,1734.51C2368.91,1730.44 2372.77,1726.92 2376.69,1723.9C2383.13,1718.94 2395.79,1720.77 2401.61,1728.25C2405.93,1733.8 2409.73,1739.81 2412.75,1746.55C2420.34,1763.5 2423.02,1781.67 2427.84,1799.28C2430.43,1808.71 2430.47,1818.82 2432.13,1828.55C2434.52,1842.5 2437.53,1856.34 2439.91,1870.29C2441.05,1876.93 2441.32,1883.71 2442.13,1890.41C2442.25,1891.44 2443.17,1892.37 2443.72,1893.35C2444.5,1892.61 2445.49,1891.99 2446.03,1891.1C2450.39,1883.91 2454.8,1876.76 2458.93,1869.44C2464.1,1860.27 2469.35,1851.12 2474,1841.68C2483.55,1822.33 2492.02,1802.4 2502.29,1783.44C2510.44,1768.4 2517.7,1752.7 2528.88,1739.38C2532.47,1735.11 2535.4,1730.16 2537.97,1725.18C2541.3,1718.74 2545.79,1713.82 2552.12,1710.14C2558.54,1706.42 2565.2,1706 2570.48,1710.89C2577.56,1717.46 2584.51,1724.34 2584.07,1735.22C2591.03,1742.18 2587.07,1751.7 2589.65,1759.87C2592.22,1767.99 2590.9,1777.26 2592.17,1785.89C2594.77,1803.6 2595.97,1821.36 2596.17,1839.25C2596.27,1848.87 2597.41,1858.49 2598.06,1868.11C2598.44,1873.55 2597.36,1878.91 2597.89,1884.47C2599.12,1897.47 2599.38,1910.56 2600.1,1923.62C2600.16,1924.84 2600.66,1926.04 2600.96,1927.25C2602.34,1926.61 2604.3,1926.35 2604.99,1925.27C2609.5,1918.19 2613.85,1910.99 2618.01,1903.68C2619.68,1900.76 2620.79,1897.51 2622.04,1894.36C2628.07,1879.19 2633.86,1863.92 2640.13,1848.86C2644.9,1837.42 2648.39,1825.59 2652.12,1813.82C2653.91,1808.15 2658.88,1805.43 2663.94,1803.47C2667.62,1802.04 2672.57,1804.96 2673.98,1809.14C2675.08,1812.38 2675.8,1815.87 2676,1819.28C2676.83,1833.78 2676.63,1848.38 2678.28,1862.77C2680,1877.77 2682.03,1893.01 2686.45,1907.36C2691.07,1922.39 2700.61,1935.41 2713.19,1945.1C2721.15,1951.22 2730.79,1950.65 2740.12,1946.38C2754.05,1940 2763.98,1928.89 2773.94,1917.97C2779.66,1911.69 2783.55,1903.74 2789.26,1897.45C2794.93,1891.22 2797.05,1883.03 2802.22,1876.81C2806.3,1871.9 2805.5,1866.99 2803.81,1862.27C2798.22,1846.61 2794.15,1830.69 2791.88,1814.16C2790.3,1802.72 2789.79,1791.04 2787.51,1779.91C2785.56,1770.38 2788.73,1760.46 2784.16,1751.41C2783.49,1750.08 2783.85,1748.09 2784.1,1746.46C2785.64,1736.33 2785.03,1725.97 2783.69,1716.16C2780.6,1693.72 2782.48,1671.33 2782.26,1648.94C2782.04,1627.78 2782.55,1606.52 2784.46,1585.46C2785.29,1576.38 2785.17,1567.27 2786.2,1558.27C2787.67,1545.37 2790.08,1532.58 2792.04,1519.74C2792.24,1518.43 2792.08,1517.07 2792.07,1515.74C2791.96,1499.96 2795.35,1484.66 2797.8,1469.18C2799.92,1455.79 2804.21,1442.7 2805.48,1429.49C2806.86,1415.09 2813.95,1402.31 2814.32,1387.86C2814.43,1383.55 2818.33,1379.47 2819.23,1375.02C2821.97,1361.48 2828.97,1349.69 2834.13,1337.17C2837.89,1328.03 2844.54,1320.82 2851.97,1314.61C2863.83,1304.7 2879.78,1309.06 2888.37,1322.3C2897.76,1336.77 2902.61,1352.93 2905.44,1369.13C2907.62,1381.6 2909.81,1394.41 2910.82,1407.31C2911.7,1418.67 2909.57,1430.6 2913.95,1441.75C2914.75,1443.77 2914.07,1446.37 2914.07,1448.71L2914.07,1469.71C2914.07,1476.71 2913.87,1483.71 2914.12,1490.7C2914.38,1497.5 2913.91,1504.27 2914.04,1511.05C2914.17,1518.05 2914.07,1525.05 2914.07,1532.05C2914.07,1539.05 2914.3,1546.06 2914.01,1553.05C2913.54,1564.78 2913.19,1576.55 2911.95,1588.21C2910.44,1602.43 2908.23,1616.59 2906.03,1630.73C2901.52,1659.88 2895.5,1688.78 2887.83,1717.21C2881.48,1740.75 2873.26,1763.79 2865.39,1786.89C2861.52,1798.24 2856.16,1809.08 2852.17,1820.4C2847.74,1832.96 2842.74,1845.17 2836.18,1856.8C2833.5,1861.53 2832.43,1866.82 2835.77,1872.22C2837.52,1875.05 2837.57,1879.03 2839.55,1881.59C2843.73,1886.99 2851.59,1887.02 2857.07,1881.12C2864.51,1873.12 2871.51,1864.63 2877.96,1855.8C2885.13,1845.97 2889.36,1834.33 2897.23,1824.72C2901.55,1819.43 2902.88,1811.79 2906.12,1805.51C2919.32,1779.96 2932.16,1754.2 2946.39,1729.23C2951.13,1720.9 2953.73,1710.9 2961.84,1704.58C2965.5,1691.2 2976.48,1682.24 2982.72,1670.28C2987.39,1661.34 2995.9,1654.48 3002.06,1646.22C3011.45,1633.61 3021.78,1621.86 3033.32,1611.24C3041.39,1603.81 3049.76,1596.63 3058.54,1590.05C3070.57,1581.02 3087.55,1581.13 3100.26,1589.33C3109.42,1595.25 3112.98,1605.02 3115.81,1614.39C3121.32,1632.69 3122.56,1651.73 3122.07,1670.83C3121.83,1680.44 3121.21,1690.25 3121.54,1699.61C3121.86,1708.86 3118.54,1717.9 3120.4,1726.62C3122.17,1734.9 3116.75,1743.41 3122.07,1751.2C3117.72,1768.79 3120.74,1786.65 3120.19,1804.38C3119.64,1822.03 3120.09,1839.7 3120.06,1857.37C3120.03,1873.71 3122.47,1889.86 3123.65,1906.09C3124.59,1918.99 3128.12,1930.85 3132.26,1942.67C3134.33,1948.58 3136.04,1955.68 3143.56,1957.74C3145.69,1958.33 3148.48,1958.8 3150.3,1957.92C3160.78,1952.87 3169.69,1946.34 3177.89,1937.36C3191.62,1922.32 3202.31,1905.22 3214.84,1889.42C3218.7,1884.56 3221.6,1878.93 3224.81,1873.58C3231.7,1862.11 3238.41,1850.53 3245.36,1839.1C3254.88,1823.43 3262.67,1806.83 3272.58,1791.3C3282.34,1776.01 3289.52,1759.06 3297.63,1742.74C3304.62,1728.65 3312.06,1714.72 3317.99,1700.18C3326.6,1679.08 3337.38,1658.93 3344.33,1637.07C3347.85,1626.01 3354.98,1616.12 3358.88,1605.14C3361.49,1597.79 3363.9,1590.47 3368.18,1584C3370.15,1581.04 3372.98,1578.13 3376.1,1576.55C3383.49,1572.83 3388.58,1575.15 3392.43,1582.65C3394.79,1587.25 3396.12,1591.91 3396.12,1597.15C3396.05,1703.15 3396.13,1809.15 3395.98,1915.14C3395.96,1926.2 3394.71,1937.26 3394.1,1948.32C3394.05,1949.21 3394.52,1950.13 3394.75,1951.03C3395.45,1950.54 3396.22,1950.11 3396.86,1949.54C3416.02,1932.4 3437.37,1918.6 3459.83,1906.1C3469.3,1900.83 3478.95,1895.67 3488.47,1890.53C3503.85,1882.21 3520.74,1876.75 3536.57,1869.2C3548.03,1863.73 3560.11,1859.94 3571.56,1854.67C3584.78,1848.58 3598.51,1843.99 3612.25,1839.43C3626.93,1834.56 3641.77,1830.17 3656.64,1825.93C3660.02,1824.97 3663.98,1824.8 3667.37,1825.59C3669.86,1826.16 3672.99,1828.49 3673.74,1830.74C3674.47,1832.92 3673.36,1837.08 3671.57,1838.45C3667.72,1841.4 3663.14,1844.12 3658.47,1845.16C3646.87,1847.73 3636.31,1852.85 3625.35,1857.03C3603.75,1865.28 3582.41,1874.09 3561.75,1884.57C3549.38,1890.83 3536.64,1896.36 3524.12,1902.33C3513.82,1907.25 3503.26,1911.76 3493.43,1917.5C3481.26,1924.6 3469.4,1932.33 3458.01,1940.61C3442.77,1951.67 3426.28,1961.08 3413.14,1975.02C3408.4,1980.05 3402,1983.47 3396.59,1987.92C3392.52,1991.27 3390.08,1995.43 3389.95,2001.18C3389.63,2015.91 3389.29,2030.68 3387.89,2045.34C3386.75,2057.26 3383.82,2068.99 3382.15,2080.88C3381.03,2088.87 3380.43,2096.97 3380.15,2105.04C3379.86,2113.7 3377.5,2122.03 3376.55,2130.44C3375.47,2139.98 3373.54,2149.3 3372.01,2158.72C3370.29,2169.27 3367.97,2179.73 3366.2,2190.28C3365.2,2196.28 3364.86,2202.38 3364.03,2208.4C3363.6,2211.49 3362.78,2214.53 3362.06,2217.58C3359.41,2228.81 3356.76,2240.05 3354.04,2251.26C3353.54,2253.36 3352.64,2255.36 3352.08,2257.44C3348.72,2270.05 3345.86,2282.82 3341.89,2295.24C3339.57,2302.52 3334.6,2308.97 3332.41,2316.27C3328.49,2329.31 3319.97,2339.41 3312.15,2349.82C3308.3,2354.94 3302.16,2358.9 3296.28,2361.81C3288.95,2365.44 3280.69,2365.61 3272.74,2362.98C3263.36,2359.88 3255.65,2354.63 3249.95,2346.17C3245.03,2338.89 3241.47,2331.05 3238.04,2323.08C3237.55,2321.94 3236.03,2320.84 3236.18,2319.91C3237.72,2310 3233.26,2300.97 3231.67,2291.62C3229.84,2280.78 3228.96,2269.87 3230.46,2259.43C3232.65,2244.27 3229.61,2228.45 3236.07,2213.87C3234.57,2204.65 3238.92,2196.33 3240.26,2187.55C3241.28,2180.9 3244.02,2174.5 3246.08,2168.01C3248.99,2158.85 3251.62,2149.62 3254.23,2140.37C3256.05,2133.9 3259.3,2127.82 3262.09,2121.65C3266.41,2112.1 3270.78,2102.57 3275.36,2093.15C3277.12,2089.52 3279.92,2086.38 3281.6,2082.72C3289.41,2065.7 3301.47,2051.53 3311.84,2036.2C3321.59,2021.81 3334.66,2010.53 3345.11,1996.97C3350.2,1990.37 3357.95,1985.17 3358.77,1975.68C3358.99,1973.18 3359.95,1970.72 3360.01,1968.23C3360.17,1960.57 3359.22,1952.78 3360.24,1945.26C3362.43,1929.21 3361.12,1913.07 3362.43,1897.09C3363.02,1889.8 3364.35,1882.99 3362.33,1875.65C3361.41,1872.33 3363.33,1868.24 3363.91,1864.49C3364.06,1863.52 3364.43,1862.28 3364.01,1861.59C3359.43,1854.08 3364.66,1846.68 3364.18,1839.2C3363.67,1831.23 3364.78,1823.12 3363.88,1815.23C3362.86,1806.35 3364.16,1797.64 3364.08,1788.86C3364.01,1779.86 3364.07,1770.86 3364.07,1761.86L3364.07,1733.86C3364.07,1724.86 3363.06,1715.72 3364.3,1706.9C3366.28,1692.82 3365.82,1678.77 3366.15,1664.69C3366.25,1660.62 3367.46,1656.59 3368.02,1652.52C3368.14,1651.64 3367.68,1650.68 3367.48,1649.77C3367.01,1650.63 3366.49,1651.47 3366.07,1652.36C3362.06,1661.03 3357.91,1669.64 3354.11,1678.4C3350.81,1686.03 3348.22,1693.98 3344.79,1701.54C3338.41,1715.57 3331.76,1729.48 3325.03,1743.35C3315.46,1763.07 3307.08,1783.53 3295.6,1802.07C3287.56,1815.08 3281.41,1829.07 3272.89,1841.8C3266.19,1851.82 3260.99,1862.83 3255.04,1873.36C3246.09,1889.21 3235.97,1904.26 3225.78,1919.35C3214.37,1936.25 3201.08,1951.3 3187.78,1966.45C3179.76,1975.59 3169.1,1981.67 3157.98,1986.1C3149.48,1989.49 3140.41,1987.72 3131.82,1984.17C3118.44,1978.65 3111.29,1967.57 3106.22,1955.08C3102.38,1945.64 3098.21,1936.2 3097.32,1925.73C3096.8,1919.48 3095.76,1913.14 3093.95,1907.15C3089.75,1893.2 3091.34,1878.58 3088.42,1864.49C3087.78,1861.38 3090.23,1857.72 3089.9,1854.44C3089.29,1848.27 3089.79,1842.21 3090.01,1836.08C3090.25,1829.76 3090.07,1823.42 3090.07,1817.09C3090.07,1810.42 3089.91,1803.75 3090.1,1797.09C3090.68,1776.03 3090.21,1754.84 3092.49,1733.96C3093.99,1720.14 3092.51,1706.35 3094.35,1692.78C3095.73,1682.67 3095.91,1672.67 3096.08,1662.57C3096.35,1646.77 3093.59,1631.36 3090.03,1616.07C3088.02,1607.4 3078.24,1604.72 3069.97,1610.47C3054.94,1620.9 3042.06,1633.44 3030.41,1647.66C3018.04,1662.76 3005.36,1677.6 2994.59,1693.91C2983.93,1710.05 2973.38,1726.21 2963.8,1743.1C2946.7,1773.27 2932.1,1804.68 2915.96,1835.31C2907.86,1850.69 2899.94,1866.49 2889.47,1880.2C2881.38,1890.78 2872.6,1901.44 2859.34,1907.69C2842.14,1915.79 2832.06,1908.65 2820.97,1899.06C2817.06,1895.68 2816.28,1895.03 2814.06,1898.54C2809.55,1905.67 2804.95,1912.75 2800.51,1919.93C2790.9,1935.47 2777.92,1948.29 2764.08,1959.55C2754.23,1967.56 2741.81,1973.75 2727.98,1973.29C2710.41,1972.71 2695.8,1966.61 2684.97,1951.66C2679.76,1944.49 2673.08,1938.48 2669.57,1929.97C2665.53,1920.19 2660.01,1911.1 2659.85,1899.91C2659.78,1894.77 2657.54,1889.63 2656.03,1884.57C2654.01,1877.75 2656.85,1870.99 2656.02,1864.22C2655.74,1861.9 2654.92,1859.64 2654.35,1857.35C2653.28,1859.33 2652.01,1861.22 2651.17,1863.29C2643.43,1882.41 2636.04,1901.69 2627.93,1920.66C2624.66,1928.32 2620.45,1935.74 2615.62,1942.51C2611.32,1948.52 2604.44,1951.76 2597.21,1953.24C2592.37,1954.23 2588.14,1951.5 2585.67,1947.72C2581.97,1942.05 2577.66,1936.07 2576.39,1929.67C2573.59,1915.67 2571.24,1901.56 2569.66,1887.26C2566.98,1863.13 2570.17,1838.98 2567.67,1815.09C2565.99,1798.94 2567.51,1782.85 2565.8,1766.9C2564.64,1756.02 2564.06,1744.89 2560.26,1734.29C2559.07,1730.96 2558.43,1730.26 2555.99,1732.51C2553.84,1734.5 2551.86,1736.71 2550.1,1739.05C2539.55,1753.06 2531.39,1768.6 2522.96,1783.84C2511.61,1804.33 2501.98,1825.78 2491.61,1846.81C2486.42,1857.33 2481.21,1867.84 2476.06,1878.37C2470.53,1889.65 2463.64,1900.02 2456.44,1910.3C2452.2,1916.37 2445.36,1915.91 2440.17,1919.26C2439.79,1919.51 2438.56,1918.53 2437.77,1918.05C2430.29,1913.44 2423.91,1908.23 2421.94,1898.75C2419.09,1885.03 2415.08,1871.56 2412.2,1857.84C2410.76,1850.95 2411.11,1843.7 2410,1836.71C2405.44,1807.9 2403.85,1778.45 2392.11,1751.14C2391.74,1750.29 2392.37,1748.84 2391.86,1748.27C2389.69,1745.84 2387.2,1741.77 2384.96,1741.86C2382.57,1741.95 2379.78,1745.71 2378.13,1748.45C2372.54,1757.75 2366.89,1767.08 2362.17,1776.83C2352.49,1796.83 2345.06,1817.8 2338.21,1838.88C2329.61,1865.37 2321.97,1892.18 2314.11,1918.91C2310.43,1931.41 2307.34,1944.09 2303.73,1956.62C2302.12,1962.2 2296.9,1965.64 2291.57,1965.35C2287.19,1965.11 2282.64,1959.86 2282.12,1953.75C2281.26,1943.71 2280.55,1933.65 2280.13,1923.58C2279.82,1916.26 2280.19,1908.91 2280.05,1901.58C2279.43,1871.19 2279.05,1840.79 2277.93,1810.42C2277.35,1794.61 2275.55,1778.84 2274.01,1763.08C2272.96,1752.27 2272.26,1741.31 2269.82,1730.79C2267.39,1720.31 2266.01,1709.38 2260.14,1699.82C2254.95,1691.37 2249.21,1690.64 2244.11,1698.72C2234.34,1714.19 2226.45,1730.56 2219.95,1747.71C2213.3,1765.27 2205.27,1782.31 2198.71,1799.9C2192.57,1816.38 2187.47,1833.26 2182.09,1850.02C2175.47,1870.62 2168.73,1891.19 2162.61,1911.93C2157.61,1928.84 2151.45,1945.4 2146.62,1962.28C2139.29,1987.88 2130.47,2012.95 2121.9,2038.1C2113.76,2062 2104.47,2085.53 2095.27,2109.05C2087.86,2127.98 2080.51,2146.98 2071.87,2165.34C2063.83,2182.4 2053.9,2198.56 2045.2,2215.31C2036.92,2231.25 2026.32,2245.89 2013.6,2257.95C2002.25,2268.7 1988.56,2278.07 1970.87,2277.53C1961.64,2277.25 1954.17,2273.67 1947.84,2267.92C1935.38,2256.6 1928.17,2242.38 1923.59,2225.97C1920.83,2216.07 1918.28,2206.06 1916.41,2196.08C1914.26,2184.64 1914.93,2172.68 1913.99,2160.98C1913.43,2153.92 1916.23,2146.53 1912.07,2139.81C1915.28,2134.38 1913.54,2128.38 1914.12,2122.64C1914.48,2119.22 1915.89,2115.87 1915.98,2112.46C1916.41,2097.39 1917.48,2082.56 1921.8,2067.87C1924.56,2058.51 1924.36,2048.32 1926.16,2038.62C1928.56,2025.7 1931.26,2012.81 1934.48,2000.07C1937.2,1989.28 1940.89,1978.74 1944.05,1968.06C1948.18,1954.1 1951.75,1939.95 1956.41,1926.17C1962.53,1908.07 1969.49,1890.26 1976.04,1872.31C1976.61,1870.74 1976.73,1869.01 1977.57,1866.85M2810.07,1672.35C2810.73,1690.74 2811.41,1709.12 2812.05,1727.5C2812.16,1730.5 2811.81,1733.53 2812.14,1736.49C2812.49,1739.58 2814.41,1742.81 2813.87,1745.63C2812.36,1753.51 2813.9,1761.31 2814.38,1768.98C2815.3,1783.55 2818.16,1797.98 2820.03,1812.5C2820.93,1819.52 2821.36,1826.61 2822.14,1833.65C2822.21,1834.28 2823.31,1835.21 2823.96,1835.24C2824.64,1835.27 2825.87,1834.47 2825.99,1833.87C2828.04,1823.67 2834.38,1815.3 2837.93,1805.81C2846.24,1783.58 2854.49,1761.29 2861.53,1738.64C2867.89,1718.19 2872.89,1697.3 2877.97,1676.47C2881.32,1662.74 2884.84,1649.08 2886.33,1634.86C2887.77,1621.17 2891.79,1607.78 2893.95,1594.14C2895.85,1582.12 2897.03,1569.97 2897.99,1557.83C2899.01,1544.81 2900.11,1531.72 2899.92,1518.68C2899.5,1489.86 2901.83,1460.99 2898.2,1432.19C2896.74,1420.57 2896.73,1408.77 2896.07,1397.05C2896.03,1396.38 2896.19,1395.69 2896.05,1395.05C2892.74,1380.1 2889.88,1365.03 2885.85,1350.27C2884.02,1343.55 2880.32,1337.17 2876.58,1331.19C2874.91,1328.53 2870.89,1325.58 2868.19,1325.81C2865.32,1326.05 2862.19,1328.21 2859.73,1331.97C2849.85,1347.08 2843.97,1363.51 2840.05,1380.88C2839.09,1385.12 2837.81,1389.3 2836.89,1393.56C2833.65,1408.61 2829.11,1423.4 2828.04,1438.88C2827.55,1445.95 2828.2,1453.57 2825.71,1459.9C2822.37,1468.38 2822.12,1476.73 2822.07,1485.38C2822.06,1487.04 2822.58,1488.94 2821.96,1490.33C2818.7,1497.6 2818.61,1505.5 2818.3,1513.06C2817.67,1528.27 2816.14,1543.31 2814.25,1558.4C2812.68,1571 2812.6,1583.81 2812.12,1596.53C2811.84,1603.85 2811.69,1611.21 2812.17,1618.51C2812.65,1625.65 2808.96,1632.72 2812.01,1639.88C2812.33,1640.64 2811.83,1641.75 2811.72,1642.7C2811.17,1647.14 2808.79,1652.51 2810.48,1655.81C2813.3,1661.35 2809.72,1665.57 2810.07,1672.35M3282.07,2158.35C3280.07,2163.19 3276.87,2167.91 3276.39,2172.88C3275.9,2178.16 3274.15,2182.54 3272.21,2187.24C3270.22,2192.08 3269.19,2197.36 3268.12,2202.52C3266.59,2209.92 3266.24,2217.67 3263.82,2224.74C3261.6,2231.24 3263.2,2237.72 3261.91,2243.95C3260.03,2253.01 3257.76,2261.99 3258.15,2271.3C3258.36,2276.37 3260.24,2281.46 3259.9,2286.44C3259.12,2297.92 3262.79,2308.37 3266.12,2318.92C3268.16,2325.38 3271.88,2330.87 3277.04,2335.4C3280.26,2338.22 3283.64,2338.45 3286.52,2335.73C3290.03,2332.41 3293.21,2328.65 3296.01,2324.71C3304.33,2313 3308.87,2299.42 3313.91,2286.19C3317.32,2277.25 3319.38,2267.79 3321.88,2258.52C3326.83,2240.08 3331.91,2221.7 3334.22,2202.64C3335.31,2193.7 3339.1,2185.04 3339.8,2176.11C3340.62,2165.55 3345.3,2155.74 3344.33,2144.8C3343.73,2137.94 3345.26,2130.76 3346.68,2123.89C3348.09,2117.07 3350.31,2110.44 3350.09,2103.34C3349.96,2099.35 3348.83,2094.78 3350.35,2091.48C3352.87,2085.99 3351.48,2080.6 3352.08,2075.2C3352.7,2069.48 3353.88,2063.77 3353.95,2058.04C3354.03,2050.62 3354.63,2043.45 3357.71,2036.57C3358.29,2035.29 3357.68,2033.48 3357.62,2031.91C3356.45,2032.72 3355.03,2033.32 3354.14,2034.37C3352.1,2036.79 3350.58,2039.67 3348.4,2041.94C3336.86,2053.89 3329.37,2068.68 3320.2,2082.27C3309.12,2098.7 3300.77,2116.75 3291.99,2134.49C3288.44,2141.66 3285.36,2149.06 3282.07,2158.35Z" style="fill:#fff;fill-rule:nonzero;"/>
    <path d="M146.067,2003.35C145.303,1997.66 147.833,1992.54 144.188,1988.23C149.619,1983.39 142.777,1978.88 143.66,1973.77C144.371,1969.65 140.743,1964.98 140.335,1960.44C139.682,1953.18 140.122,1945.82 140.041,1938.5C140.031,1937.58 139.664,1936.66 139.463,1935.75C138.991,1936.62 138.622,1937.57 138.033,1938.36C130.895,1947.88 124.495,1957.76 119.425,1968.64C116.557,1974.8 111.126,1979.73 107.085,1985.38C95.698,2001.31 85.226,2017.96 72.913,2033.13C58.669,2050.68 44.304,2068.35 27.002,2083.07C21.825,2087.48 15.304,2091.69 7.365,2087.71C-1.232,2083.4 -2.484,2072 4.567,2065.68C11.959,2059.05 18.962,2051.94 25.65,2044.6C30.125,2039.69 33.752,2034 37.759,2028.66C45.772,2017.98 54.554,2007.78 61.624,1996.51C73.072,1978.26 85.518,1960.67 96.248,1941.92C107.039,1923.07 117.76,1904.18 128.584,1885.37C134.261,1875.51 134.073,1867.51 132.399,1857.34C130.341,1844.84 130.5,1831.95 130.142,1819.22C129.862,1809.26 128.812,1799.48 126.141,1789.86C125.625,1788 126.067,1785.88 126.067,1783.88C126.067,1771.88 126.211,1759.88 125.975,1747.88C125.908,1744.48 124.033,1741.05 124.268,1737.73C124.494,1734.55 127.989,1731.71 124.27,1728.16C123.591,1727.52 126.054,1724.22 125.947,1722.2C125.605,1715.8 124.699,1709.42 124.077,1703.03C123.483,1696.92 122.975,1690.82 122.412,1684.71C122.385,1684.42 121.999,1684.02 122.093,1683.87C128.126,1674.38 118.179,1663.91 123.921,1654.26C124.946,1652.53 124.067,1649.68 124.067,1647.35C124.067,1630.35 123.948,1613.35 124.133,1596.35C124.196,1590.6 122.712,1584.63 125.984,1579.13C126.569,1578.14 126.332,1576.44 126.024,1575.19C123.869,1566.39 125.016,1557.29 126.467,1548.9C129.201,1533.1 127.128,1517.01 131.536,1501.18C134.263,1491.38 135.665,1480.92 137.917,1470.78C140.332,1459.91 144.805,1449.56 151.52,1441.53C165.8,1424.46 188.571,1420.83 207.15,1437.58C212.152,1442.08 217.136,1446.44 220.849,1452.62C226.171,1461.49 230.089,1470.9 233.841,1480.3C239.292,1493.94 240.676,1508.84 244.444,1522.96C249.097,1540.4 248.86,1557.95 250.415,1575.54C251.911,1592.46 248.28,1609.13 250.067,1625.91C245.282,1636.24 250.76,1648.12 244.437,1658.65C241.587,1663.39 243.174,1670.63 241.976,1676.58C239.385,1689.44 236.913,1702.38 233.27,1714.97C227.342,1735.45 220.601,1755.69 214.023,1775.98C211.552,1783.6 208.969,1791.22 205.751,1798.55C200.169,1811.24 193.984,1823.67 188.188,1836.27C184.972,1843.27 181.302,1850.18 179.198,1857.52C177.482,1863.5 175.793,1869.92 178.01,1876.44C179.012,1879.38 180.003,1882.54 179.966,1885.59C179.77,1901.73 182.253,1917.48 185.982,1933.12C186.584,1935.64 186.086,1938.43 186.064,1941.1C185.969,1952.33 187.372,1963.31 191.507,1973.85C191.959,1975 192.047,1976.35 192.043,1977.61C192.003,1989.67 192.558,2001.64 195.984,2013.32C196.167,2013.94 194.726,2014.96 194.797,2015.72C194.89,2016.7 195.744,2017.61 196.27,2018.56C196.869,2018 197.697,2017.56 198.033,2016.88C206.742,1999.15 215.257,1981.34 224.134,1963.7C227.898,1956.22 232.488,1949.17 236.551,1941.84C241.803,1932.36 246.364,1922.45 252.186,1913.34C262.264,1897.58 270.213,1880.58 280.99,1865.22C285.401,1858.93 288.359,1851.63 292.08,1844.85C298.043,1833.98 302.634,1821.91 310.513,1812.66C318.487,1803.3 320.133,1790.34 329.903,1782.52C336.278,1764.88 347.288,1749.71 356.031,1733.34C361.558,1722.99 366.919,1712.53 371.949,1701.93C373.385,1698.9 373.579,1695.23 374.023,1691.81C374.638,1687.08 373.233,1682.28 375.817,1677.51C376.913,1675.49 375.15,1671.99 374.894,1669.14C374.672,1666.69 374.582,1664.19 374.725,1661.73C374.952,1657.84 375.807,1653.95 375.688,1650.08C375.551,1645.64 373.2,1640.8 374.348,1636.87C377.303,1626.78 375.473,1616.68 376.037,1606.62C376.887,1591.46 378.044,1576.33 378.294,1561.11C378.489,1549.31 380.52,1537.52 382.116,1525.77C384.596,1507.52 386.601,1489.14 390.342,1471.14C392.919,1458.74 396.514,1446.39 399.476,1434.09C402.476,1421.63 406.901,1409.7 410.178,1397.4C414.012,1383.01 422.137,1370.57 431.445,1359.3C441.203,1347.49 461.052,1352.79 465.81,1368.67C469.139,1379.77 470.566,1391.54 471.894,1403.12C472.799,1411.02 472.616,1419.15 471.96,1427.09C470.253,1447.76 469.687,1468.47 464.521,1488.9C461.856,1499.44 460.584,1510.53 458.18,1521.32C453.713,1541.36 448.147,1561.08 441.767,1580.55C434.853,1601.65 427.51,1622.62 419.991,1643.52C416.136,1654.23 411.546,1664.68 407.182,1675.21C404.101,1682.64 400.119,1689.47 403.714,1698.4C405.372,1702.52 402.925,1708.16 402.921,1713.12C402.917,1717.94 403.759,1722.77 404.047,1727.6C404.831,1740.78 405.057,1754 408.012,1766.96C408.282,1768.14 408.106,1769.64 407.593,1770.75C405.433,1775.38 404.959,1779.81 407.933,1784.36C408.545,1785.3 408.078,1786.96 408.063,1788.29C407.901,1801.88 408.214,1815.41 411.909,1828.67C412.393,1830.41 409.64,1833.16 410.242,1834.73C414.531,1845.92 409.465,1858 413.896,1869.21C415.035,1872.09 414.353,1875.84 413.98,1879.13C413.659,1881.96 414.682,1884.58 414.534,1887.51C414.138,1895.37 416.001,1903.34 416.993,1911.27C417.308,1913.79 418.019,1916.31 418.013,1918.82C417.983,1929.79 419.827,1940.46 421.911,1951.19C423.381,1958.76 422.907,1966.69 424.175,1974.32C426.417,1987.79 426.702,2001.5 429.884,2014.89C431.582,2022.04 431.216,2029.65 432.109,2037.01C433.497,2048.45 437.456,2059.59 436.144,2071.37C436.077,2071.97 437.128,2072.69 437.658,2073.35C438.461,2072.63 439.855,2071.99 439.979,2071.16C442.101,2057.01 443.771,2042.78 446.182,2028.68C447.541,2020.74 450.139,2013.01 452.051,2005.15C455.441,1991.21 458.247,1977.11 462.183,1963.33C467.871,1943.41 473.839,1923.54 480.647,1903.98C486.413,1887.42 493.53,1871.33 500.077,1855.05C501.34,1851.9 502.511,1848.69 504.103,1845.72C514.335,1826.58 523.149,1806.78 535.215,1788.5C542.375,1777.65 548.474,1765.89 556.18,1755.33C564.667,1743.69 573.732,1732.43 583.118,1721.5C589.359,1714.23 596.37,1707.56 603.454,1701.09C612.558,1692.76 622.636,1685.78 633.869,1680.45C640.885,1677.13 648.345,1676.32 655.545,1677.6C663.161,1678.95 668.982,1684.73 671.194,1691.82C674.641,1702.87 675.961,1714.39 672.541,1726.01C671.123,1730.83 670.676,1735.97 670.101,1741C668.422,1755.69 663.052,1769.49 660.108,1783.86C655.947,1804.17 651.843,1824.5 648.16,1844.9C646.292,1855.25 646.643,1866.14 643.731,1876.12C640.58,1886.93 644.632,1898.11 640.287,1908.65C639.425,1910.75 642.028,1914.03 641.945,1916.73C641.725,1923.81 642.64,1930.82 640.445,1938.02C639.201,1942.1 638.522,1947.55 641.68,1952.29C642.918,1954.14 642.076,1957.44 642.054,1960.08C641.935,1974.55 645.87,1988.46 647.73,2002.63C650.704,2025.29 663.247,2043.61 672.067,2063.64C682.387,2071.6 690.006,2083.78 705.488,2083.44C723.577,2083.04 729.454,2081.88 743.682,2070.87C749.599,2066.29 755.371,2061.87 760.598,2056.3C769.246,2047.08 772.473,2035.73 775.563,2024.42C776.971,2019.27 774.453,2013.12 774.152,2007.4C773.973,2004 775.257,2001.09 778.737,1999.29C784.905,1996.1 792.592,1998.61 793.922,2005.35C795.962,2015.69 797.032,2025.87 794.488,2036.77C791.968,2047.56 789.535,2058.14 783.127,2067.1C773.419,2080.68 763.39,2093.98 748.212,2102.44C739.728,2107.17 731.618,2112.24 721.718,2113.39C718.296,2113.8 714.937,2114.72 711.54,2115.34C708.127,2115.98 704.714,2116.63 701.277,2117.1C699.333,2117.37 697.174,2117.82 695.398,2117.27C681.424,2112.93 667.559,2109.57 655.886,2098.81C638.42,2082.7 629.452,2061.98 621.475,2041.05C616.21,2027.23 614.261,2011.89 611.475,1997.04C606.681,1971.49 608.201,1946.05 608.457,1920.6C608.582,1908.24 608.925,1895.56 611.893,1883.21C613.532,1876.39 614.272,1869.09 613.858,1862.09C613.271,1852.2 617.15,1843.33 618.593,1833.93C620.021,1824.64 622.198,1815.45 624.071,1806.23C625.381,1799.78 626.47,1793.26 628.129,1786.9C630.553,1777.61 633.595,1768.48 636.01,1759.19C638.288,1750.42 641.293,1741.9 642.37,1732.72C643.193,1725.7 645.505,1718.71 647.131,1711.72C648.281,1706.78 646.672,1705.85 643.119,1705.47C641.379,1705.27 639.25,1705.85 637.744,1706.79C631.628,1710.63 625.12,1714.1 619.783,1718.86C603.017,1733.81 588.848,1751.13 576.643,1769.93C566.978,1784.82 557.613,1799.95 549.119,1815.53C539.516,1833.13 530.639,1851.16 522.209,1869.37C516.784,1881.08 512.475,1893.34 508.143,1905.53C504.212,1916.58 500.471,1927.75 497.487,1939.09C494.485,1950.5 488.137,1961.22 486.68,1972.46C484.8,1986.98 479.42,2000.53 477.794,2015.03C476.699,2024.82 472.587,2034.22 470.613,2043.95C468.596,2053.9 467.567,2064.04 466.059,2074.09C464.743,2082.87 464.444,2091.99 461.689,2100.3C459.208,2107.79 459.708,2115.56 456.455,2123.11C449.746,2138.68 437.182,2142.1 424.583,2131.34C417.993,2125.71 417.097,2118.09 414.432,2111.39C409.458,2098.87 406.902,2085.43 406.13,2071.84C405.802,2066.08 401.596,2061.76 401.713,2055.5C401.858,2047.75 399.452,2039.93 398.054,2032.17C396.104,2021.32 393.772,2010.53 392.18,1999.63C391.254,1993.3 391.857,1986.91 390.391,1980.41C388.417,1971.64 388.81,1962.36 388.05,1953.31C386.779,1938.19 386.31,1922.92 383.674,1908.04C382.401,1900.85 382.475,1893.87 382.101,1886.8C381.322,1872.08 382.5,1856.98 379.494,1842.75C377.189,1831.84 381.388,1820.6 376.112,1810.31C380.216,1803.91 378.583,1796.63 377.77,1790.16C375.922,1775.41 376.222,1760.7 376.025,1745.95C376.014,1745.08 375.405,1744.22 375.075,1743.36C374.367,1744.06 373.416,1744.64 373.001,1745.49C371.917,1747.7 370.928,1749.97 370.148,1752.3C365.181,1767.13 355.68,1779.67 349.212,1793.64C342.637,1807.85 332.122,1820.01 326.883,1834.35C322.428,1846.54 312.27,1855.47 310.026,1868.39C293.407,1888.92 284.981,1914.22 270.638,1936.12C264.61,1945.33 261.109,1956.15 255.995,1966C250.993,1975.63 244.394,1984.54 240.3,1994.5C233.97,2009.91 224.743,2023.87 219.602,2039.97C216.683,2049.11 211.738,2058.07 207.196,2066.75C201.598,2077.45 203.685,2088.01 204.748,2098.66C204.966,2100.84 204.54,2102.46 204.535,2104.23C204.516,2110.5 205.867,2116.78 206.8,2123.05C207.025,2124.57 208.427,2126.39 207.942,2127.46C203.925,2136.34 207.562,2145.34 208.492,2153.81C211.758,2183.57 208.91,2213.32 210.134,2243.02C210.262,2246.12 211.616,2249.15 211.872,2252.25C212.108,2255.12 211.763,2258.06 211.424,2260.94C211.207,2262.78 210.289,2264.54 210.106,2266.37C208.701,2280.48 208.425,2294.79 205.761,2308.65C203.381,2321.03 199.2,2333.29 190.923,2343.41C188.035,2346.95 184.388,2349.43 179.413,2349.4C175.535,2349.39 171.576,2350.44 167.79,2349.95C152.739,2348.02 147.15,2335.45 142.487,2324.06C137.933,2312.93 136.824,2300.4 134.202,2288.49C139.188,2283.02 132.397,2277.88 133.79,2272.14C135.087,2266.78 133.861,2260.86 134.123,2255.2C134.404,2249.12 133.528,2243.13 135.75,2236.92C137.497,2232.04 134.714,2226.32 135.882,2220.65C138.204,2209.38 139.171,2197.85 140.515,2186.4C141.624,2176.95 145.458,2167.73 146.495,2157.99C147.625,2147.4 151.35,2137.09 154.784,2127.41C158.981,2115.57 158.269,2104.2 157.715,2092.83C157.01,2078.34 155.473,2063.71 151.323,2049.61C150.886,2048.12 149.64,2045.97 150.206,2045.23C153.561,2040.9 151.039,2037.04 150.214,2032.76C148.405,2023.37 147.4,2013.83 146.067,2003.35M158.067,1680.35C158.733,1683.41 159.831,1686.44 159.985,1689.53C160.423,1698.27 161.135,1707.03 161.626,1715.71C162.614,1733.21 162.891,1750.66 165.859,1768.05C167.655,1778.58 167.371,1789.46 168.115,1800.18C168.183,1801.16 168.929,1802.1 169.36,1803.06C170.067,1802.35 171.096,1801.77 171.431,1800.92C175.04,1791.75 178.664,1782.58 182.037,1773.32C187.103,1759.42 191.192,1745.1 197.127,1731.59C204.051,1715.82 207.157,1699.06 211.92,1682.74C214.723,1673.14 216.014,1663.1 218.087,1653.28C219.311,1647.48 221.141,1641.77 221.966,1635.92C223.045,1628.26 222.627,1620.32 224.289,1612.82C225.887,1605.6 221.409,1598.06 226.067,1591.26C225.4,1574.09 225.79,1556.8 223.758,1539.8C221.872,1524.01 218.114,1508.33 213.863,1492.97C209.734,1478.05 203.664,1463.78 191.156,1453.4C185.227,1448.48 178.447,1447.39 174.27,1452.51C170.025,1457.72 166.881,1464.03 164.184,1470.25C159.733,1480.53 160.873,1492.01 158.124,1502.72C157.106,1506.69 156.387,1510.8 156.129,1514.88C155.177,1529.92 157.606,1545.04 154.316,1560.09C153.361,1564.46 155.853,1569.47 155.992,1574.21C156.765,1600.59 154.681,1627.02 157.91,1653.38C158.916,1661.59 158.067,1670.02 158.067,1680.35M402.067,1582.35C403.991,1596.78 398.076,1611.2 402.003,1625.66C402.412,1627.17 402.556,1629.41 401.735,1630.46C399.888,1632.81 399.037,1634.81 401.094,1637.33C402.506,1635.25 403.937,1633.18 405.318,1631.08C405.651,1630.57 405.968,1629.98 406.045,1629.39C407.647,1617.25 413.926,1606.66 417.475,1595.15C421.734,1581.33 427.654,1568.03 431.943,1554.22C437.638,1535.88 443.075,1517.42 447.484,1498.74C452.878,1475.88 458.006,1452.9 458.159,1429.17C458.192,1424.12 461.071,1418.55 459.7,1414.13C457.262,1406.28 459.292,1398.49 457.903,1390.9C456.687,1384.26 454.478,1377.71 451.938,1371.43C449.869,1366.32 446.875,1365.76 443.219,1369.35C440.273,1372.24 437.512,1375.52 435.46,1379.09C427.835,1392.34 424.249,1407.14 420.197,1421.68C417.511,1431.32 416.159,1441.32 414.029,1451.12C412.909,1456.27 410.885,1461.27 410.17,1466.46C408.512,1478.52 406.678,1490.63 406.253,1502.76C405.743,1517.31 404.53,1531.68 402.505,1546.11C401.795,1551.17 401.372,1556.88 401.931,1562.39C402.533,1568.32 402.067,1574.36 402.067,1582.35M170.067,2294.35C170.889,2286.94 166.865,2279.53 170.067,2272.12C166.138,2263.01 168.591,2253.43 168.153,2244.08C167.749,2235.47 168.067,2226.83 168.067,2218.21C168.067,2216.55 168.133,2214.89 168.031,2213.23C167.996,2212.66 167.542,2212.12 167.28,2211.57C166.875,2212.25 166.191,2212.91 166.111,2213.63C165.37,2220.31 164.759,2227.01 164.059,2233.7C163.428,2239.73 161.519,2245.93 162.359,2251.74C163.539,2259.9 164.042,2267.98 164.082,2276.17C164.117,2283.24 163.334,2290.39 166.009,2297.26C166.621,2298.83 165.172,2301.84 168.461,2301.13C169.302,2300.95 169.548,2298.02 170.067,2294.35Z" style="fill:#fff;fill-rule:nonzero;"/>
    <path d="M1416.57,1841.85C1415.83,1843.92 1416.12,1845.91 1415.27,1846.99C1411.69,1851.49 1410.49,1857.28 1407.69,1861.81C1400.99,1872.68 1398.48,1885.78 1389.32,1895.34C1386.18,1898.62 1384.13,1903.1 1382.13,1907.29C1376.58,1918.87 1368.21,1928.41 1360.14,1938.15C1357.1,1941.82 1356.66,1944.82 1357.78,1949.73C1361.14,1964.41 1368.86,1977.22 1374.43,1990.89C1380.13,2004.87 1387.06,2018.67 1396.6,2030.65C1399.96,2034.86 1404.55,2038.34 1409.16,2041.23C1414.78,2044.76 1414.89,2044.25 1418.1,2038.44C1422.89,2029.78 1424.63,2020.2 1425.9,2010.71C1427.83,1996.19 1429.21,1981.62 1431.94,1967.19C1433.32,1959.94 1433.63,1952.45 1434.02,1945.05C1434.87,1929.05 1436.7,1913.26 1439.69,1897.46C1441.27,1889.12 1441.96,1880.53 1444.03,1872.18C1445.91,1864.6 1447.44,1856.92 1449.13,1849.29C1452.11,1835.86 1455.12,1822.43 1458.05,1808.99C1459.57,1802.01 1462.2,1795.15 1464.6,1788.68C1470.36,1773.13 1476.58,1757.49 1486.55,1743.78C1498.88,1726.82 1521.29,1731.9 1530.11,1744.96C1539.78,1759.29 1545.76,1775.16 1550,1791.72C1553.27,1804.48 1556.62,1817.16 1558.43,1830.34C1559.82,1840.46 1562.67,1850.36 1562.12,1860.73C1562.07,1861.58 1562.72,1862.46 1563.04,1863.33C1563.75,1862.64 1564.59,1862.04 1565.12,1861.23C1565.61,1860.48 1566.08,1859.49 1566.02,1858.63C1564.84,1841.76 1571.48,1826.16 1574.54,1810.04C1576.33,1800.64 1580.01,1791.17 1583.64,1781.92C1587.64,1771.71 1592.34,1762.13 1598.04,1752.88C1602.43,1745.76 1609.54,1742.52 1617,1741.63C1624.87,1740.69 1630.96,1746.1 1635.5,1751.97C1645.58,1765 1649.78,1780.64 1654.15,1796.22C1658.09,1810.24 1661.3,1824.33 1662.13,1838.92C1662.38,1843.33 1663.35,1847.71 1664.1,1852.09C1664.3,1853.22 1664.95,1854.27 1665.39,1855.35C1666.74,1854.57 1668.96,1854.05 1669.28,1852.96C1672.97,1840.53 1682.41,1831.23 1687.23,1819.38C1691.05,1809.97 1695.5,1800.71 1700.66,1791.97C1707.98,1779.58 1716.04,1767.6 1724.13,1755.69C1729.11,1748.36 1733.54,1740.46 1742.1,1736.24C1751.3,1731.71 1761.06,1734.36 1766.03,1743.48C1772.01,1754.45 1775.39,1766.19 1778.6,1778.35C1782.89,1794.57 1782.42,1811.47 1787.83,1827.42C1789.94,1833.66 1789.29,1840.8 1790.12,1847.51C1790.5,1850.6 1791.76,1853.6 1792.01,1856.69C1793.38,1873.39 1798.52,1889.3 1802.03,1905.55C1803.14,1910.68 1800.52,1916.02 1796.61,1917.35C1793.4,1918.45 1785.77,1915.56 1784.15,1911.93C1779.9,1902.37 1775.58,1892.78 1772.2,1882.89C1768.9,1873.21 1766.44,1863.22 1764.14,1853.24C1761.17,1840.41 1758.72,1827.47 1756.07,1814.57C1753.98,1804.43 1751.91,1794.29 1749.86,1784.14C1748.56,1777.67 1747.35,1771.18 1746.04,1764.72C1745.82,1763.62 1745.29,1762.58 1744.91,1761.51C1744.2,1762.22 1743.37,1762.84 1742.81,1763.65C1738.53,1769.86 1733.9,1775.89 1730.16,1782.42C1725.1,1791.26 1720.48,1800.38 1716.14,1809.6C1712.21,1817.95 1709.24,1826.76 1705.22,1835.06C1701.43,1842.86 1696.03,1849.93 1692.79,1857.91C1688.84,1867.63 1683.19,1875.91 1675.53,1882.7C1669.2,1888.31 1661.68,1892.31 1653.25,1887.21C1649.04,1884.66 1644.53,1881.21 1642.34,1877.03C1638.67,1870 1636.19,1862.19 1634.19,1854.46C1631.2,1842.83 1631.89,1830.61 1628.35,1818.89C1626.16,1811.63 1627.48,1803.37 1625.87,1795.85C1624.07,1787.44 1620.86,1779.31 1617.95,1771.16C1617.41,1769.63 1615.41,1767.63 1614.08,1767.63C1612.74,1767.62 1610.74,1769.6 1610.17,1771.14C1604.31,1786.74 1595.52,1801.23 1593.84,1818.44C1592.98,1827.35 1589.65,1835.99 1587.66,1844.8C1585.65,1853.67 1583.7,1862.56 1582.12,1871.5C1579.91,1883.97 1578.04,1896.5 1576.08,1909.01C1575.34,1913.72 1574.44,1918.43 1574.14,1923.18C1573.71,1929.9 1569.84,1932.9 1563.87,1934.72C1560.97,1935.6 1559.28,1935.25 1556.92,1933.38C1551.09,1928.78 1547.73,1922.54 1546.25,1915.78C1543.6,1903.75 1542.19,1891.45 1540.02,1879.31C1538.59,1871.29 1536.68,1863.36 1535.12,1855.36C1534.57,1852.54 1534.14,1849.65 1534.11,1846.79C1533.99,1832.99 1530.2,1819.74 1528.45,1806.23C1526.87,1793.92 1523.9,1782.21 1520,1770.62C1518.34,1765.67 1516.35,1760.73 1513.76,1756.22C1510.76,1750.99 1506.19,1751.65 1501.98,1756.23C1493.65,1765.28 1489.87,1776.46 1486.09,1787.69C1482.36,1798.82 1478.31,1809.88 1475.36,1821.23C1471.74,1835.15 1469.04,1849.31 1466.1,1863.4C1464.49,1871.11 1463.26,1878.89 1461.78,1886.62C1460.61,1892.79 1458.9,1898.88 1458.15,1905.09C1456.54,1918.5 1455.63,1932 1454,1945.41C1452.28,1959.62 1450,1973.75 1448.1,1987.93C1447.25,1994.3 1446.49,2000.7 1446.12,2007.11C1445.37,2019.78 1443.03,2031.95 1438.29,2043.87C1435.09,2051.9 1430.53,2058.56 1424.25,2064C1417.99,2069.43 1409.89,2068.21 1402.85,2066.78C1395.22,2065.23 1388.76,2060.39 1382.7,2055.14C1368.36,2042.74 1358.94,2026.62 1349.02,2011C1342.6,2000.88 1337.87,1989.67 1332.62,1978.83C1329.69,1972.81 1329.08,1971.12 1323.43,1976.85C1310.59,1989.88 1294.21,1997.55 1277.22,2002.69C1263.64,2006.8 1249.44,2003.96 1235.72,1999.51C1224.48,1995.87 1216.18,1988.02 1207.47,1981.04C1202.39,1976.98 1199.24,1970.11 1196.18,1964.01C1189.09,1949.9 1182.69,1935.6 1179.84,1919.74C1177.54,1906.92 1175.56,1894.12 1173.67,1881.24C1171.01,1863.09 1173.07,1845.06 1172.07,1827.02C1176.41,1818.34 1174.36,1808.64 1175.37,1799.6C1176.57,1788.76 1178,1777.85 1180.47,1767.43C1183.23,1755.82 1185.75,1744.05 1190.89,1732.8C1195.2,1723.38 1199.63,1714.71 1206.94,1707.46C1217.02,1697.47 1228.54,1696.33 1240.34,1704.72C1246.85,1709.36 1253.08,1714.41 1259.19,1719.57C1263.67,1723.35 1263.43,1726.87 1259.29,1731.21C1257.71,1732.86 1256.75,1731.91 1254.94,1731.68C1246.88,1730.65 1241.49,1725.05 1235.21,1721.23C1225.59,1715.38 1221.24,1715.74 1216.16,1725.78C1210.94,1736.08 1208.19,1747.18 1205.77,1758.53C1203.52,1769.04 1205.93,1780.3 1200.35,1790.24C1199.5,1791.77 1200.08,1794.13 1200.07,1796.11C1200.06,1814.11 1199.6,1832.12 1200.26,1850.1C1200.61,1859.68 1200.37,1869.45 1203.88,1878.86C1205.62,1883.51 1205.99,1888.91 1205.95,1893.96C1205.85,1905.93 1210.36,1917.11 1214.65,1927.4C1221.01,1942.61 1229.05,1958 1244.58,1966.8C1252.95,1971.54 1262.6,1973.4 1271.41,1970.61C1288.08,1965.34 1302.63,1955.88 1315.15,1943.41C1317.94,1940.64 1318.12,1938.68 1316.21,1935.33C1314.58,1932.44 1314.31,1928.81 1313.26,1925.57C1310.01,1915.59 1306.44,1905.7 1303.44,1895.65C1300.07,1884.35 1297.76,1872.7 1293.93,1861.57C1288.41,1845.54 1288.34,1828.39 1282.54,1812.32C1279.15,1802.95 1279.26,1792.28 1278.12,1782.15C1277.04,1772.66 1277.06,1763.03 1274.09,1753.81C1273.9,1753.2 1274.1,1752.48 1274.06,1751.82C1273.4,1738.76 1272.82,1725.7 1272.03,1712.65C1271.55,1704.58 1270.49,1696.54 1270.15,1688.47C1269.89,1682.38 1272.04,1675.71 1271.26,1670.43C1270.4,1664.62 1269.64,1658.64 1270.34,1653.17C1272.31,1637.77 1271.19,1622.33 1272.27,1606.98C1273.32,1592.08 1276.12,1577.3 1278.04,1562.45C1278.86,1556.08 1279.51,1549.68 1280.04,1543.28C1281.04,1531.28 1283.44,1519.58 1286.38,1507.91C1288.51,1499.43 1291.6,1491.23 1292.35,1482.28C1292.88,1475.99 1295.83,1469.83 1298.12,1463.76C1301.92,1453.68 1304.99,1443.1 1310.36,1433.88C1316.15,1423.94 1320.42,1413.23 1327.77,1403.89C1333.98,1395.99 1340.26,1388.29 1347.28,1381.13C1355.84,1372.4 1366.26,1366.43 1377.71,1362.9C1396.64,1357.07 1414.32,1358.58 1432.08,1369.66C1446.71,1378.79 1455.63,1391.87 1463.69,1405.61C1469.52,1415.52 1472.89,1427.05 1476.54,1438.26C1479.56,1447.5 1479.8,1457.24 1483.63,1466.28C1485.79,1471.38 1485.65,1477.55 1486,1483.27C1486.86,1497.32 1486.91,1511.43 1488.26,1525.42C1489,1532.97 1487.94,1540.33 1488.04,1547.78C1488.15,1555.78 1488.31,1563.79 1487.98,1571.78C1487.76,1577.18 1486.71,1582.56 1486.07,1587.95C1485.48,1593.02 1486.16,1597.97 1484.43,1603.24C1482.26,1609.8 1483.26,1617.33 1481.95,1624.27C1479.45,1637.55 1477.54,1650.92 1474.78,1664.18C1472.03,1677.37 1469.42,1690.6 1466.03,1703.65C1462.91,1715.63 1460.29,1727.74 1455.37,1739.23C1453.2,1744.32 1452.84,1750.16 1450.92,1755.39C1445.74,1769.56 1439.55,1783.39 1434.91,1797.73C1430.05,1812.77 1423.72,1827.1 1416.57,1841.85M1310.07,1742.35C1310.07,1745.69 1309.24,1749.29 1310.22,1752.3C1313.27,1761.63 1314.39,1771.51 1315.52,1780.92C1317.41,1796.72 1319.37,1812.31 1324.02,1827.54C1325.02,1830.83 1325.34,1834.32 1326.08,1837.69C1328.01,1846.55 1329.76,1855.45 1332.01,1864.23C1335.86,1879.27 1340.03,1894.22 1344.07,1909.21C1344.23,1909.8 1344.47,1910.38 1344.67,1910.96C1345.38,1910.52 1346.33,1910.23 1346.76,1909.6C1353.23,1899.97 1359.03,1889.81 1366.2,1880.73C1378.14,1865.63 1384.11,1847.37 1393.88,1831.13C1399.57,1821.68 1403.42,1811.12 1408.05,1801.05C1409.47,1797.97 1410.82,1794.86 1412.05,1791.71C1418.36,1775.66 1424.69,1759.62 1430.86,1743.52C1434.73,1733.45 1439.65,1723.55 1441.69,1713.1C1443.62,1703.19 1447.48,1694.06 1449.92,1684.44C1452.15,1675.67 1453.69,1666.72 1456.17,1658.02C1458.35,1650.33 1460.84,1642.8 1460.07,1634.66C1466.61,1625.38 1463.92,1614.29 1465.93,1604.13C1467.3,1597.21 1466.55,1589.83 1468.26,1583.04C1470.87,1572.66 1471.4,1562.08 1471.81,1551.65C1472.59,1531.28 1473.05,1510.8 1470.02,1490.52C1468.44,1479.91 1466.33,1469.39 1464.54,1458.81C1462.57,1447.12 1458.14,1436.23 1454.35,1425.06C1448.81,1408.72 1437.86,1396.83 1425.42,1386.23C1420.81,1382.3 1413.61,1380.18 1407.37,1379.62C1392.05,1378.26 1378.16,1382.85 1367.85,1394.74C1356.9,1407.36 1346.41,1419.99 1339.58,1435.97C1332.35,1452.88 1326.67,1470.04 1322.08,1487.7C1321.3,1490.73 1320.73,1493.81 1320.07,1496.87C1318.07,1506.04 1315.96,1515.18 1314.1,1524.38C1312.6,1531.79 1310.13,1539.31 1310.42,1546.69C1310.71,1554.18 1306.8,1561.4 1309.58,1568.84C1305.64,1585.49 1306.24,1602.44 1305.92,1619.36C1305.79,1625.83 1305.28,1632.24 1306.01,1638.71C1306.3,1641.3 1306.05,1643.98 1305.79,1646.6C1305.32,1651.36 1303.12,1656.59 1304.42,1660.76C1306.45,1667.28 1305.61,1673.62 1306.06,1680.03C1306.59,1687.43 1306.4,1694.76 1307.67,1702.26C1309.79,1714.74 1309.4,1727.63 1310.07,1742.35Z" style="fill:#fff;fill-rule:nonzero;"/>
    <path d="M975.567,2112.85C969.138,2120.68 964.19,2128.82 956.169,2134.36C950.253,2138.45 943.656,2137.85 937.469,2136.97C934.981,2136.61 932.824,2132.12 931.024,2129.2C928.265,2124.73 929.775,2114.6 934.193,2112.49C942.533,2108.49 943.557,2100.98 943.88,2093.63C944.344,2083.09 945.361,2072.34 940.223,2062.26C939.146,2060.14 940.265,2056.99 940.032,2054.35C939.039,2043.07 937.124,2032.12 932.23,2021.63C927.561,2011.62 923.716,2001.13 920.559,1990.54C919.104,1985.66 919.595,1979.96 920.223,1974.76C920.857,1969.5 925.984,1965.71 931.762,1965.39C942.159,1964.82 950.528,1968.85 956.843,1977.13C964.632,1987.34 972.268,1997.61 974.518,2010.77C975.521,2016.63 976.983,2022.41 978.032,2028.27C978.871,2032.96 979.346,2037.71 980.081,2042.41C980.932,2047.86 982.364,2052.79 980.568,2058.89C978.891,2064.58 981.948,2071.5 981.943,2077.88C981.934,2088.34 980.984,2098.76 976.139,2108.39C975.605,2109.46 976.067,2111.02 975.567,2112.85Z" style="fill:#fff;fill-rule:nonzero;"/>
    <path d="M1601.57,1577.85C1603.85,1590.51 1598.73,1601.52 1595.93,1612.82C1591.08,1632.39 1585.47,1651.77 1580.03,1671.19C1578.28,1677.43 1575.67,1683.45 1574.2,1689.74C1573.18,1694.14 1570.97,1697.37 1566.8,1697.11C1562.82,1696.86 1561.1,1693.52 1559.81,1689.22C1556.97,1679.81 1561.89,1671.53 1562.4,1662.66C1562.92,1653.41 1565.83,1644.24 1568.12,1635.15C1571.35,1622.36 1571.1,1608.94 1575.8,1596.36C1577.65,1591.41 1577.84,1585.69 1577.95,1580.3C1578.12,1572.95 1583.97,1571.03 1588.62,1567.88C1589.28,1567.44 1590.79,1567.24 1591.23,1567.65C1594.6,1570.78 1597.81,1574.09 1601.57,1577.85Z" style="fill:#fff;fill-rule:nonzero;"/>
    <path d="M725.567,1560.85C711.913,1566.21 700.998,1560.32 697.985,1546.92C697.53,1544.9 696.091,1543.05 694.925,1541.24C689.296,1532.49 692.218,1521.77 701.706,1516.73C706.351,1514.26 710.566,1510.98 716.408,1511.28C728.46,1511.88 736.282,1517.73 740.697,1528.9C744.49,1538.49 740.984,1546.23 735.004,1553.24C732.578,1556.08 729.078,1558.01 725.567,1560.85Z" style="fill:#fff;fill-rule:nonzero;"/>
    <path d="M3506.07,2041.35C3508.55,2026.82 3514.57,2021.94 3526.33,2021.14C3537.52,2020.38 3544.94,2035.48 3539.47,2044.62C3536.69,2049.26 3532.14,2053.09 3527.76,2056.47C3520.9,2061.78 3511.87,2060.6 3507.66,2053.59C3505.87,2050.6 3506.52,2046.14 3506.07,2041.35Z" style="fill:#fff;fill-rule:nonzero;"/>
    <path d="M2650.07,1609.35C2646.76,1607.05 2643.39,1605.11 2642.44,1602.35C2641.37,1599.21 2641.67,1595.04 2642.83,1591.85C2644.53,1587.17 2649.05,1586.65 2655.89,1589.35C2663.53,1592.37 2666.49,1600.08 2661.99,1606.27C2659.38,1609.87 2655.6,1611.49 2650.07,1609.35Z" style="fill:#fff;fill-rule:nonzero;"/>
    <path d="M1911.57,1762.85C1910.12,1763.35 1909.15,1763.5 1908.25,1763.31C1907.53,1763.15 1906.9,1762.58 1906.23,1762.19C1906.75,1761.91 1907.3,1761.35 1907.77,1761.41C1909.22,1761.59 1910.63,1762.02 1911.57,1762.85Z" style="fill-rule:nonzero;"/>
</svg>
